%TF.GenerationSoftware,KiCad,Pcbnew,(6.0.9)*%
%TF.CreationDate,2023-01-18T11:33:35+02:00*%
%TF.ProjectId,SilosProject02,53696c6f-7350-4726-9f6a-65637430322e,rev?*%
%TF.SameCoordinates,Original*%
%TF.FileFunction,Soldermask,Top*%
%TF.FilePolarity,Negative*%
%FSLAX46Y46*%
G04 Gerber Fmt 4.6, Leading zero omitted, Abs format (unit mm)*
G04 Created by KiCad (PCBNEW (6.0.9)) date 2023-01-18 11:33:35*
%MOMM*%
%LPD*%
G01*
G04 APERTURE LIST*
G04 Aperture macros list*
%AMRoundRect*
0 Rectangle with rounded corners*
0 $1 Rounding radius*
0 $2 $3 $4 $5 $6 $7 $8 $9 X,Y pos of 4 corners*
0 Add a 4 corners polygon primitive as box body*
4,1,4,$2,$3,$4,$5,$6,$7,$8,$9,$2,$3,0*
0 Add four circle primitives for the rounded corners*
1,1,$1+$1,$2,$3*
1,1,$1+$1,$4,$5*
1,1,$1+$1,$6,$7*
1,1,$1+$1,$8,$9*
0 Add four rect primitives between the rounded corners*
20,1,$1+$1,$2,$3,$4,$5,0*
20,1,$1+$1,$4,$5,$6,$7,0*
20,1,$1+$1,$6,$7,$8,$9,0*
20,1,$1+$1,$8,$9,$2,$3,0*%
G04 Aperture macros list end*
%ADD10RoundRect,0.250000X-1.425000X0.362500X-1.425000X-0.362500X1.425000X-0.362500X1.425000X0.362500X0*%
%ADD11R,2.500000X3.300000*%
%ADD12RoundRect,0.250000X0.450000X-0.262500X0.450000X0.262500X-0.450000X0.262500X-0.450000X-0.262500X0*%
%ADD13RoundRect,0.250000X1.425000X-0.362500X1.425000X0.362500X-1.425000X0.362500X-1.425000X-0.362500X0*%
%ADD14RoundRect,0.250000X-0.450000X0.262500X-0.450000X-0.262500X0.450000X-0.262500X0.450000X0.262500X0*%
%ADD15RoundRect,0.250000X-0.475000X0.250000X-0.475000X-0.250000X0.475000X-0.250000X0.475000X0.250000X0*%
%ADD16RoundRect,0.250000X-0.262500X-0.450000X0.262500X-0.450000X0.262500X0.450000X-0.262500X0.450000X0*%
%ADD17RoundRect,0.250000X0.262500X0.450000X-0.262500X0.450000X-0.262500X-0.450000X0.262500X-0.450000X0*%
%ADD18RoundRect,0.250000X-0.362500X-1.425000X0.362500X-1.425000X0.362500X1.425000X-0.362500X1.425000X0*%
%ADD19R,1.200000X0.900000*%
%ADD20RoundRect,0.250000X0.362500X1.425000X-0.362500X1.425000X-0.362500X-1.425000X0.362500X-1.425000X0*%
%ADD21RoundRect,0.250000X0.250000X0.475000X-0.250000X0.475000X-0.250000X-0.475000X0.250000X-0.475000X0*%
%ADD22R,1.900000X0.400000*%
%ADD23RoundRect,0.075000X-0.725000X-0.075000X0.725000X-0.075000X0.725000X0.075000X-0.725000X0.075000X0*%
%ADD24RoundRect,0.075000X-0.075000X-0.725000X0.075000X-0.725000X0.075000X0.725000X-0.075000X0.725000X0*%
%ADD25R,2.000000X1.500000*%
%ADD26R,2.000000X3.800000*%
%ADD27RoundRect,0.250000X0.475000X-0.250000X0.475000X0.250000X-0.475000X0.250000X-0.475000X-0.250000X0*%
%ADD28RoundRect,0.250000X-0.250000X-0.475000X0.250000X-0.475000X0.250000X0.475000X-0.250000X0.475000X0*%
%ADD29RoundRect,0.250000X-0.275000X-0.350000X0.275000X-0.350000X0.275000X0.350000X-0.275000X0.350000X0*%
%ADD30C,2.500000*%
%ADD31R,1.600000X1.600000*%
%ADD32O,1.600000X1.600000*%
%ADD33R,2.200000X2.200000*%
%ADD34O,2.200000X2.200000*%
%ADD35R,1.800000X1.800000*%
%ADD36C,1.800000*%
%ADD37R,1.700000X1.700000*%
%ADD38O,1.700000X1.700000*%
%ADD39R,1.524000X1.524000*%
%ADD40C,1.524000*%
%ADD41C,1.600000*%
%ADD42R,2.000000X1.905000*%
%ADD43O,2.000000X1.905000*%
G04 APERTURE END LIST*
D10*
%TO.C,R112*%
X-387000000Y-569537500D03*
X-387000000Y-575462500D03*
%TD*%
D11*
%TO.C,D25*%
X-480637500Y-441500000D03*
X-487437500Y-441500000D03*
%TD*%
D12*
%TO.C,R117*%
X-405000000Y-560412500D03*
X-405000000Y-558587500D03*
%TD*%
%TO.C,R268*%
X-387200000Y-480912500D03*
X-387200000Y-479087500D03*
%TD*%
D13*
%TO.C,R222*%
X-432275000Y-441162500D03*
X-432275000Y-435237500D03*
%TD*%
D14*
%TO.C,R107*%
X-392000000Y-518175000D03*
X-392000000Y-520000000D03*
%TD*%
%TO.C,R119*%
X-400000000Y-518175000D03*
X-400000000Y-520000000D03*
%TD*%
D15*
%TO.C,C13*%
X-387000000Y-439050000D03*
X-387000000Y-440950000D03*
%TD*%
D12*
%TO.C,R88*%
X-393000000Y-560412500D03*
X-393000000Y-558587500D03*
%TD*%
D16*
%TO.C,R175*%
X-359162500Y-517000000D03*
X-357337500Y-517000000D03*
%TD*%
D17*
%TO.C,R201*%
X-296087500Y-535462500D03*
X-297912500Y-535462500D03*
%TD*%
D14*
%TO.C,R132*%
X-398000000Y-518175000D03*
X-398000000Y-520000000D03*
%TD*%
D17*
%TO.C,R215*%
X-296087500Y-529462500D03*
X-297912500Y-529462500D03*
%TD*%
D13*
%TO.C,R236*%
X-438275000Y-441162500D03*
X-438275000Y-435237500D03*
%TD*%
D12*
%TO.C,R284*%
X-391200000Y-480912500D03*
X-391200000Y-479087500D03*
%TD*%
%TO.C,R182*%
X-327000000Y-560412500D03*
X-327000000Y-558587500D03*
%TD*%
D14*
%TO.C,R184*%
X-374000000Y-518175000D03*
X-374000000Y-520000000D03*
%TD*%
D12*
%TO.C,R234*%
X-401200000Y-480912500D03*
X-401200000Y-479087500D03*
%TD*%
D17*
%TO.C,R226*%
X-296287500Y-469462500D03*
X-298112500Y-469462500D03*
%TD*%
D13*
%TO.C,R208*%
X-426275000Y-441162500D03*
X-426275000Y-435237500D03*
%TD*%
D10*
%TO.C,R109*%
X-411000000Y-569537500D03*
X-411000000Y-575462500D03*
%TD*%
D14*
%TO.C,R251*%
X-318275000Y-450287500D03*
X-318275000Y-452112500D03*
%TD*%
D17*
%TO.C,R67*%
X-401587500Y-495000000D03*
X-403412500Y-495000000D03*
%TD*%
D12*
%TO.C,R73*%
X-399000000Y-560412500D03*
X-399000000Y-558587500D03*
%TD*%
D10*
%TO.C,R106*%
X-441000000Y-569537500D03*
X-441000000Y-575462500D03*
%TD*%
D16*
%TO.C,R38*%
X-459912500Y-526087500D03*
X-458087500Y-526087500D03*
%TD*%
D18*
%TO.C,R219*%
X-287162500Y-529462500D03*
X-281237500Y-529462500D03*
%TD*%
D14*
%TO.C,R261*%
X-324275000Y-450287500D03*
X-324275000Y-452112500D03*
%TD*%
D17*
%TO.C,R153*%
X-296087500Y-553462500D03*
X-297912500Y-553462500D03*
%TD*%
D13*
%TO.C,R258*%
X-420275000Y-441162500D03*
X-420275000Y-435237500D03*
%TD*%
D14*
%TO.C,R262*%
X-348275000Y-450287500D03*
X-348275000Y-452112500D03*
%TD*%
D18*
%TO.C,R192*%
X-287162500Y-541462500D03*
X-281237500Y-541462500D03*
%TD*%
D10*
%TO.C,R189*%
X-327000000Y-569537500D03*
X-327000000Y-575462500D03*
%TD*%
D15*
%TO.C,C14*%
X-414000000Y-439050000D03*
X-414000000Y-440950000D03*
%TD*%
D10*
%TO.C,R141*%
X-375000000Y-569537500D03*
X-375000000Y-575462500D03*
%TD*%
D16*
%TO.C,R86*%
X-459912500Y-544087500D03*
X-458087500Y-544087500D03*
%TD*%
D19*
%TO.C,D26*%
X-473037500Y-444850000D03*
X-473037500Y-448150000D03*
%TD*%
D16*
%TO.C,R259*%
X-359162500Y-503000000D03*
X-357337500Y-503000000D03*
%TD*%
D20*
%TO.C,R29*%
X-469037500Y-496000000D03*
X-474962500Y-496000000D03*
%TD*%
D18*
%TO.C,R177*%
X-287162500Y-547462500D03*
X-281237500Y-547462500D03*
%TD*%
D12*
%TO.C,R265*%
X-363200000Y-480912500D03*
X-363200000Y-479087500D03*
%TD*%
%TO.C,R116*%
X-435000000Y-560412500D03*
X-435000000Y-558587500D03*
%TD*%
D14*
%TO.C,R104*%
X-402000000Y-518175000D03*
X-402000000Y-520000000D03*
%TD*%
D10*
%TO.C,R156*%
X-369000000Y-569537500D03*
X-369000000Y-575462500D03*
%TD*%
D17*
%TO.C,R45*%
X-401587500Y-509000000D03*
X-403412500Y-509000000D03*
%TD*%
D16*
%TO.C,R227*%
X-359162500Y-499000000D03*
X-357337500Y-499000000D03*
%TD*%
D17*
%TO.C,R60*%
X-401587500Y-511000000D03*
X-403412500Y-511000000D03*
%TD*%
D12*
%TO.C,R289*%
X-369200000Y-480912500D03*
X-369200000Y-479087500D03*
%TD*%
D21*
%TO.C,C5*%
X-386225000Y-513500000D03*
X-388125000Y-513500000D03*
%TD*%
D22*
%TO.C,Y1*%
X-394175000Y-500000000D03*
X-394175000Y-501200000D03*
X-394175000Y-502400000D03*
%TD*%
D18*
%TO.C,R233*%
X-287162500Y-523462500D03*
X-281237500Y-523462500D03*
%TD*%
%TO.C,R162*%
X-287162500Y-553462500D03*
X-281237500Y-553462500D03*
%TD*%
D16*
%TO.C,R228*%
X-359162500Y-491000000D03*
X-357337500Y-491000000D03*
%TD*%
D10*
%TO.C,R199*%
X-351000000Y-569537500D03*
X-351000000Y-575462500D03*
%TD*%
D18*
%TO.C,R205*%
X-287162500Y-535462500D03*
X-281237500Y-535462500D03*
%TD*%
D10*
%TO.C,R134*%
X-429000000Y-569537500D03*
X-429000000Y-575462500D03*
%TD*%
D12*
%TO.C,R273*%
X-365200000Y-480912500D03*
X-365200000Y-479087500D03*
%TD*%
%TO.C,R281*%
X-367200000Y-480912500D03*
X-367200000Y-479087500D03*
%TD*%
%TO.C,R292*%
X-393200000Y-480912500D03*
X-393200000Y-479087500D03*
%TD*%
D10*
%TO.C,R124*%
X-405000000Y-569537500D03*
X-405000000Y-575462500D03*
%TD*%
D12*
%TO.C,R101*%
X-441000000Y-560412500D03*
X-441000000Y-558587500D03*
%TD*%
D10*
%TO.C,R159*%
X-339000000Y-569537500D03*
X-339000000Y-575462500D03*
%TD*%
D23*
%TO.C,U3*%
X-389350000Y-495000000D03*
X-389350000Y-495500000D03*
X-389350000Y-496000000D03*
X-389350000Y-496500000D03*
X-389350000Y-497000000D03*
X-389350000Y-497500000D03*
X-389350000Y-498000000D03*
X-389350000Y-498500000D03*
X-389350000Y-499000000D03*
X-389350000Y-499500000D03*
X-389350000Y-500000000D03*
X-389350000Y-500500000D03*
X-389350000Y-501000000D03*
X-389350000Y-501500000D03*
X-389350000Y-502000000D03*
X-389350000Y-502500000D03*
X-389350000Y-503000000D03*
X-389350000Y-503500000D03*
X-389350000Y-504000000D03*
X-389350000Y-504500000D03*
X-389350000Y-505000000D03*
X-389350000Y-505500000D03*
X-389350000Y-506000000D03*
X-389350000Y-506500000D03*
X-389350000Y-507000000D03*
D24*
X-387675000Y-508675000D03*
X-387175000Y-508675000D03*
X-386675000Y-508675000D03*
X-386175000Y-508675000D03*
X-385675000Y-508675000D03*
X-385175000Y-508675000D03*
X-384675000Y-508675000D03*
X-384175000Y-508675000D03*
X-383675000Y-508675000D03*
X-383175000Y-508675000D03*
X-382675000Y-508675000D03*
X-382175000Y-508675000D03*
X-381675000Y-508675000D03*
X-381175000Y-508675000D03*
X-380675000Y-508675000D03*
X-380175000Y-508675000D03*
X-379675000Y-508675000D03*
X-379175000Y-508675000D03*
X-378675000Y-508675000D03*
X-378175000Y-508675000D03*
X-377675000Y-508675000D03*
X-377175000Y-508675000D03*
X-376675000Y-508675000D03*
X-376175000Y-508675000D03*
X-375675000Y-508675000D03*
D23*
X-374000000Y-507000000D03*
X-374000000Y-506500000D03*
X-374000000Y-506000000D03*
X-374000000Y-505500000D03*
X-374000000Y-505000000D03*
X-374000000Y-504500000D03*
X-374000000Y-504000000D03*
X-374000000Y-503500000D03*
X-374000000Y-503000000D03*
X-374000000Y-502500000D03*
X-374000000Y-502000000D03*
X-374000000Y-501500000D03*
X-374000000Y-501000000D03*
X-374000000Y-500500000D03*
X-374000000Y-500000000D03*
X-374000000Y-499500000D03*
X-374000000Y-499000000D03*
X-374000000Y-498500000D03*
X-374000000Y-498000000D03*
X-374000000Y-497500000D03*
X-374000000Y-497000000D03*
X-374000000Y-496500000D03*
X-374000000Y-496000000D03*
X-374000000Y-495500000D03*
X-374000000Y-495000000D03*
D24*
X-375675000Y-493325000D03*
X-376175000Y-493325000D03*
X-376675000Y-493325000D03*
X-377175000Y-493325000D03*
X-377675000Y-493325000D03*
X-378175000Y-493325000D03*
X-378675000Y-493325000D03*
X-379175000Y-493325000D03*
X-379675000Y-493325000D03*
X-380175000Y-493325000D03*
X-380675000Y-493325000D03*
X-381175000Y-493325000D03*
X-381675000Y-493325000D03*
X-382175000Y-493325000D03*
X-382675000Y-493325000D03*
X-383175000Y-493325000D03*
X-383675000Y-493325000D03*
X-384175000Y-493325000D03*
X-384675000Y-493325000D03*
X-385175000Y-493325000D03*
X-385675000Y-493325000D03*
X-386175000Y-493325000D03*
X-386675000Y-493325000D03*
X-387175000Y-493325000D03*
X-387675000Y-493325000D03*
%TD*%
D10*
%TO.C,R97*%
X-393000000Y-569537500D03*
X-393000000Y-575462500D03*
%TD*%
D14*
%TO.C,R197*%
X-372000000Y-518175000D03*
X-372000000Y-520000000D03*
%TD*%
%TO.C,R287*%
X-390275000Y-450287500D03*
X-390275000Y-452112500D03*
%TD*%
D20*
%TO.C,R26*%
X-469037500Y-466000000D03*
X-474962500Y-466000000D03*
%TD*%
D14*
%TO.C,R157*%
X-368000000Y-518175000D03*
X-368000000Y-520000000D03*
%TD*%
D16*
%TO.C,R242*%
X-359162500Y-489000000D03*
X-357337500Y-489000000D03*
%TD*%
D20*
%TO.C,R17*%
X-469037500Y-514000000D03*
X-474962500Y-514000000D03*
%TD*%
D14*
%TO.C,R264*%
X-396275000Y-450287500D03*
X-396275000Y-452112500D03*
%TD*%
D10*
%TO.C,R79*%
X-423000000Y-569537500D03*
X-423000000Y-575462500D03*
%TD*%
D16*
%TO.C,R36*%
X-459912500Y-472087500D03*
X-458087500Y-472087500D03*
%TD*%
D17*
%TO.C,R15*%
X-401587500Y-505000000D03*
X-403412500Y-505000000D03*
%TD*%
D20*
%TO.C,R91*%
X-469037500Y-544000000D03*
X-474962500Y-544000000D03*
%TD*%
D15*
%TO.C,C12*%
X-307600000Y-439050000D03*
X-307600000Y-440950000D03*
%TD*%
D10*
%TO.C,R171*%
X-363000000Y-569537500D03*
X-363000000Y-575462500D03*
%TD*%
D16*
%TO.C,R3*%
X-309512500Y-448000000D03*
X-307687500Y-448000000D03*
%TD*%
D17*
%TO.C,R240*%
X-296287500Y-463462500D03*
X-298112500Y-463462500D03*
%TD*%
D25*
%TO.C,U7*%
X-463150000Y-421700000D03*
D26*
X-456850000Y-424000000D03*
D25*
X-463150000Y-424000000D03*
X-463150000Y-426300000D03*
%TD*%
D14*
%TO.C,R110*%
X-384000000Y-518175000D03*
X-384000000Y-520000000D03*
%TD*%
%TO.C,R279*%
X-384275000Y-450287500D03*
X-384275000Y-452112500D03*
%TD*%
D16*
%TO.C,R190*%
X-359162500Y-515000000D03*
X-357337500Y-515000000D03*
%TD*%
D20*
%TO.C,R11*%
X-469037500Y-460000000D03*
X-474962500Y-460000000D03*
%TD*%
D17*
%TO.C,R24*%
X-401600000Y-489000000D03*
X-403425000Y-489000000D03*
%TD*%
D14*
%TO.C,R230*%
X-438275000Y-450287500D03*
X-438275000Y-452112500D03*
%TD*%
D17*
%TO.C,R74*%
X-401587500Y-513000000D03*
X-403412500Y-513000000D03*
%TD*%
D12*
%TO.C,R196*%
X-351000000Y-560412500D03*
X-351000000Y-558587500D03*
%TD*%
D27*
%TO.C,C19*%
X-466800000Y-426350000D03*
X-466800000Y-424450000D03*
%TD*%
D12*
%TO.C,R137*%
X-344912500Y-560412500D03*
X-344912500Y-558587500D03*
%TD*%
D17*
%TO.C,R168*%
X-296087500Y-547462500D03*
X-297912500Y-547462500D03*
%TD*%
D14*
%TO.C,R270*%
X-354275000Y-450287500D03*
X-354275000Y-452112500D03*
%TD*%
%TO.C,R272*%
X-402275000Y-450287500D03*
X-402275000Y-452112500D03*
%TD*%
D20*
%TO.C,R32*%
X-469037500Y-520000000D03*
X-474962500Y-520000000D03*
%TD*%
D16*
%TO.C,R213*%
X-359162500Y-501000000D03*
X-357337500Y-501000000D03*
%TD*%
D21*
%TO.C,C9*%
X-393675000Y-508500000D03*
X-395575000Y-508500000D03*
%TD*%
D14*
%TO.C,R154*%
X-378000000Y-518175000D03*
X-378000000Y-520000000D03*
%TD*%
D17*
%TO.C,R244*%
X-296087500Y-517462500D03*
X-297912500Y-517462500D03*
%TD*%
D21*
%TO.C,C10*%
X-393725000Y-511000000D03*
X-395625000Y-511000000D03*
%TD*%
D10*
%TO.C,R127*%
X-381000000Y-569537500D03*
X-381000000Y-575462500D03*
%TD*%
D12*
%TO.C,R283*%
X-383200000Y-480912500D03*
X-383200000Y-479087500D03*
%TD*%
%TO.C,R290*%
X-377200000Y-480912500D03*
X-377200000Y-479087500D03*
%TD*%
D16*
%TO.C,R53*%
X-459912500Y-532087500D03*
X-458087500Y-532087500D03*
%TD*%
D17*
%TO.C,R254*%
X-296287500Y-505462500D03*
X-298112500Y-505462500D03*
%TD*%
D14*
%TO.C,R288*%
X-414275000Y-450287500D03*
X-414275000Y-452112500D03*
%TD*%
%TO.C,R125*%
X-382000000Y-518175000D03*
X-382000000Y-520000000D03*
%TD*%
%TO.C,R255*%
X-420275000Y-450287500D03*
X-420275000Y-452112500D03*
%TD*%
D12*
%TO.C,R136*%
X-375000000Y-560412500D03*
X-375000000Y-558587500D03*
%TD*%
D14*
%TO.C,R285*%
X-342275000Y-450287500D03*
X-342275000Y-452112500D03*
%TD*%
D12*
%TO.C,R118*%
X-381000000Y-560412500D03*
X-381000000Y-558587500D03*
%TD*%
%TO.C,R256*%
X-395200000Y-480912500D03*
X-395200000Y-479087500D03*
%TD*%
D16*
%TO.C,R23*%
X-459912500Y-520087500D03*
X-458087500Y-520087500D03*
%TD*%
D20*
%TO.C,R44*%
X-469037500Y-502000000D03*
X-474962500Y-502000000D03*
%TD*%
D27*
%TO.C,C4*%
X-396675000Y-498500000D03*
X-396675000Y-496600000D03*
%TD*%
D12*
%TO.C,R87*%
X-417000000Y-560412500D03*
X-417000000Y-558587500D03*
%TD*%
D14*
%TO.C,R277*%
X-336275000Y-450287500D03*
X-336275000Y-452112500D03*
%TD*%
D20*
%TO.C,R14*%
X-469037500Y-490000000D03*
X-474962500Y-490000000D03*
%TD*%
D14*
%TO.C,R122*%
X-390000000Y-518175000D03*
X-390000000Y-520000000D03*
%TD*%
%TO.C,R92*%
X-394000000Y-518175000D03*
X-394000000Y-520000000D03*
%TD*%
D20*
%TO.C,R76*%
X-469037500Y-538000000D03*
X-474962500Y-538000000D03*
%TD*%
D12*
%TO.C,R282*%
X-375200000Y-480912500D03*
X-375200000Y-479087500D03*
%TD*%
D10*
%TO.C,R5*%
X-477037500Y-444837500D03*
X-477037500Y-450762500D03*
%TD*%
D12*
%TO.C,R152*%
X-339000000Y-560412500D03*
X-339000000Y-558587500D03*
%TD*%
D14*
%TO.C,R216*%
X-432275000Y-450287500D03*
X-432275000Y-452112500D03*
%TD*%
D16*
%TO.C,R241*%
X-359162500Y-497000000D03*
X-357337500Y-497000000D03*
%TD*%
D12*
%TO.C,R102*%
X-411000000Y-560412500D03*
X-411000000Y-558587500D03*
%TD*%
D14*
%TO.C,R280*%
X-408275000Y-450287500D03*
X-408275000Y-452112500D03*
%TD*%
D16*
%TO.C,R7*%
X-459912500Y-490087500D03*
X-458087500Y-490087500D03*
%TD*%
D12*
%TO.C,R103*%
X-387000000Y-560412500D03*
X-387000000Y-558587500D03*
%TD*%
D16*
%TO.C,R2*%
X-309512500Y-450000000D03*
X-307687500Y-450000000D03*
%TD*%
D12*
%TO.C,R291*%
X-385200000Y-480912500D03*
X-385200000Y-479087500D03*
%TD*%
%TO.C,R220*%
X-399200000Y-480912500D03*
X-399200000Y-479087500D03*
%TD*%
D17*
%TO.C,R9*%
X-401587500Y-487000000D03*
X-403412500Y-487000000D03*
%TD*%
D10*
%TO.C,R186*%
X-357000000Y-569537500D03*
X-357000000Y-575462500D03*
%TD*%
D12*
%TO.C,R253*%
X-361200000Y-480912500D03*
X-361200000Y-479087500D03*
%TD*%
%TO.C,R151*%
X-369000000Y-560412500D03*
X-369000000Y-558587500D03*
%TD*%
D16*
%TO.C,R203*%
X-359162500Y-513000000D03*
X-357337500Y-513000000D03*
%TD*%
D17*
%TO.C,R42*%
X-401587500Y-501000000D03*
X-403412500Y-501000000D03*
%TD*%
D14*
%TO.C,R278*%
X-360275000Y-450287500D03*
X-360275000Y-452112500D03*
%TD*%
D17*
%TO.C,R225*%
X-296287500Y-493462500D03*
X-298112500Y-493462500D03*
%TD*%
D12*
%TO.C,R276*%
X-389200000Y-480912500D03*
X-389200000Y-479087500D03*
%TD*%
D17*
%TO.C,R30*%
X-401587500Y-507000000D03*
X-403412500Y-507000000D03*
%TD*%
D16*
%TO.C,R52*%
X-459912500Y-508087500D03*
X-458087500Y-508087500D03*
%TD*%
D20*
%TO.C,R56*%
X-469037500Y-478000000D03*
X-474962500Y-478000000D03*
%TD*%
D12*
%TO.C,R166*%
X-363000000Y-560412500D03*
X-363000000Y-558587500D03*
%TD*%
%TO.C,R274*%
X-373200000Y-480912500D03*
X-373200000Y-479087500D03*
%TD*%
D10*
%TO.C,R94*%
X-417000000Y-569537500D03*
X-417000000Y-575462500D03*
%TD*%
D20*
%TO.C,R69*%
X-469037500Y-484000000D03*
X-474962500Y-484000000D03*
%TD*%
D16*
%TO.C,R252*%
X-359162500Y-495000000D03*
X-357337500Y-495000000D03*
%TD*%
D12*
%TO.C,R72*%
X-423000000Y-560412500D03*
X-423000000Y-558587500D03*
%TD*%
%TO.C,R167*%
X-333000000Y-560412500D03*
X-333000000Y-558587500D03*
%TD*%
D14*
%TO.C,R269*%
X-330275000Y-450287500D03*
X-330275000Y-452112500D03*
%TD*%
D17*
%TO.C,R250*%
X-296287500Y-481462500D03*
X-298112500Y-481462500D03*
%TD*%
D15*
%TO.C,C7*%
X-369175000Y-494100000D03*
X-369175000Y-496000000D03*
%TD*%
D16*
%TO.C,R6*%
X-459912500Y-460000000D03*
X-458087500Y-460000000D03*
%TD*%
D12*
%TO.C,R181*%
X-357000000Y-560412500D03*
X-357000000Y-558587500D03*
%TD*%
D21*
%TO.C,C3*%
X-393725000Y-494000000D03*
X-395625000Y-494000000D03*
%TD*%
D10*
%TO.C,R144*%
X-345000000Y-569537500D03*
X-345000000Y-575462500D03*
%TD*%
D14*
%TO.C,R271*%
X-378275000Y-450287500D03*
X-378275000Y-452112500D03*
%TD*%
D17*
%TO.C,R211*%
X-296287500Y-499462500D03*
X-298112500Y-499462500D03*
%TD*%
D16*
%TO.C,R66*%
X-459912500Y-484087500D03*
X-458087500Y-484087500D03*
%TD*%
D12*
%TO.C,R138*%
X-321000000Y-560412500D03*
X-321000000Y-558587500D03*
%TD*%
D16*
%TO.C,R51*%
X-459912500Y-478087500D03*
X-458087500Y-478087500D03*
%TD*%
%TO.C,R37*%
X-459912500Y-502087500D03*
X-458087500Y-502087500D03*
%TD*%
%TO.C,R231*%
X-359162500Y-509000000D03*
X-357337500Y-509000000D03*
%TD*%
D21*
%TO.C,C2*%
X-285050000Y-479000000D03*
X-286950000Y-479000000D03*
%TD*%
D17*
%TO.C,R243*%
X-296287500Y-511462500D03*
X-298112500Y-511462500D03*
%TD*%
D10*
%TO.C,R82*%
X-399000000Y-569537500D03*
X-399000000Y-575462500D03*
%TD*%
D28*
%TO.C,C8*%
X-389075000Y-488500000D03*
X-387175000Y-488500000D03*
%TD*%
D14*
%TO.C,R145*%
X-362000000Y-518175000D03*
X-362000000Y-520000000D03*
%TD*%
%TO.C,R187*%
X-364000000Y-518175000D03*
X-364000000Y-520000000D03*
%TD*%
D16*
%TO.C,R21*%
X-459912500Y-466087500D03*
X-458087500Y-466087500D03*
%TD*%
D29*
%TO.C,L1*%
X-395825000Y-506500000D03*
X-393525000Y-506500000D03*
%TD*%
D20*
%TO.C,R62*%
X-469000000Y-532000000D03*
X-474925000Y-532000000D03*
%TD*%
D14*
%TO.C,R169*%
X-376000000Y-518175000D03*
X-376000000Y-520000000D03*
%TD*%
D17*
%TO.C,R12*%
X-401587500Y-497000000D03*
X-403412500Y-497000000D03*
%TD*%
D14*
%TO.C,R286*%
X-366275000Y-450287500D03*
X-366275000Y-452112500D03*
%TD*%
D16*
%TO.C,R160*%
X-359162500Y-519000000D03*
X-357337500Y-519000000D03*
%TD*%
D20*
%TO.C,R47*%
X-469037500Y-526000000D03*
X-474962500Y-526000000D03*
%TD*%
D16*
%TO.C,R8*%
X-459912500Y-514087500D03*
X-458087500Y-514087500D03*
%TD*%
D14*
%TO.C,R139*%
X-380000000Y-518175000D03*
X-380000000Y-520000000D03*
%TD*%
D17*
%TO.C,R89*%
X-401587500Y-515000000D03*
X-403412500Y-515000000D03*
%TD*%
D18*
%TO.C,R4*%
X-478000000Y-441500000D03*
X-472075000Y-441500000D03*
%TD*%
D17*
%TO.C,R27*%
X-401587500Y-499000000D03*
X-403412500Y-499000000D03*
%TD*%
D21*
%TO.C,C6*%
X-374225000Y-513500000D03*
X-376125000Y-513500000D03*
%TD*%
D10*
%TO.C,R174*%
X-333000000Y-569537500D03*
X-333000000Y-575462500D03*
%TD*%
D16*
%TO.C,R217*%
X-359162500Y-511000000D03*
X-357337500Y-511000000D03*
%TD*%
D17*
%TO.C,R212*%
X-296287500Y-475462500D03*
X-298112500Y-475462500D03*
%TD*%
%TO.C,R229*%
X-296087500Y-523462500D03*
X-297912500Y-523462500D03*
%TD*%
D12*
%TO.C,R275*%
X-381200000Y-480912500D03*
X-381200000Y-479087500D03*
%TD*%
D14*
%TO.C,R80*%
X-388000000Y-518175000D03*
X-388000000Y-520000000D03*
%TD*%
D16*
%TO.C,R248*%
X-359162500Y-505000000D03*
X-357337500Y-505000000D03*
%TD*%
D14*
%TO.C,R172*%
X-366000000Y-518175000D03*
X-366000000Y-520000000D03*
%TD*%
%TO.C,R202*%
X-426275000Y-450287500D03*
X-426275000Y-452112500D03*
%TD*%
D17*
%TO.C,R54*%
X-401587500Y-493000000D03*
X-403412500Y-493000000D03*
%TD*%
D21*
%TO.C,C1*%
X-393725000Y-504500000D03*
X-395625000Y-504500000D03*
%TD*%
D15*
%TO.C,R1*%
X-384675000Y-487050000D03*
X-384675000Y-488950000D03*
%TD*%
D16*
%TO.C,R71*%
X-459912500Y-538087500D03*
X-458087500Y-538087500D03*
%TD*%
%TO.C,R22*%
X-459912500Y-496087500D03*
X-458087500Y-496087500D03*
%TD*%
D10*
%TO.C,R121*%
X-435000000Y-569537500D03*
X-435000000Y-575462500D03*
%TD*%
D17*
%TO.C,R239*%
X-296287500Y-487462500D03*
X-298112500Y-487462500D03*
%TD*%
D20*
%TO.C,R59*%
X-469037500Y-508000000D03*
X-474962500Y-508000000D03*
%TD*%
D18*
%TO.C,R247*%
X-287162500Y-517462500D03*
X-281237500Y-517462500D03*
%TD*%
D20*
%TO.C,R41*%
X-469037500Y-472000000D03*
X-474962500Y-472000000D03*
%TD*%
D15*
%TO.C,C17*%
X-476800000Y-420450000D03*
X-476800000Y-422350000D03*
%TD*%
D14*
%TO.C,R95*%
X-386000000Y-518175000D03*
X-386000000Y-520000000D03*
%TD*%
D17*
%TO.C,R39*%
X-401587500Y-491000000D03*
X-403412500Y-491000000D03*
%TD*%
D14*
%TO.C,R142*%
X-370000000Y-518175000D03*
X-370000000Y-520000000D03*
%TD*%
D12*
%TO.C,R206*%
X-397200000Y-480912500D03*
X-397200000Y-479087500D03*
%TD*%
%TO.C,R131*%
X-429000000Y-560412500D03*
X-429000000Y-558587500D03*
%TD*%
D16*
%TO.C,R245*%
X-359162500Y-507000000D03*
X-357337500Y-507000000D03*
%TD*%
D14*
%TO.C,R263*%
X-372275000Y-450287500D03*
X-372275000Y-452112500D03*
%TD*%
D17*
%TO.C,R183*%
X-296087500Y-541462500D03*
X-297912500Y-541462500D03*
%TD*%
D12*
%TO.C,R266*%
X-371200000Y-480912500D03*
X-371200000Y-479087500D03*
%TD*%
D17*
%TO.C,R57*%
X-401587500Y-503000000D03*
X-403412500Y-503000000D03*
%TD*%
D12*
%TO.C,R267*%
X-379200000Y-480912500D03*
X-379200000Y-479087500D03*
%TD*%
D10*
%TO.C,R147*%
X-321000000Y-569537500D03*
X-321000000Y-575462500D03*
%TD*%
D14*
%TO.C,R77*%
X-396000000Y-518175000D03*
X-396000000Y-520000000D03*
%TD*%
D16*
%TO.C,R214*%
X-359162500Y-493000000D03*
X-357337500Y-493000000D03*
%TD*%
D15*
%TO.C,C11*%
X-338000000Y-439050000D03*
X-338000000Y-440950000D03*
%TD*%
D30*
%TO.C,J13*%
X-340600000Y-596800000D03*
X-345600000Y-596800000D03*
X-350600000Y-596800000D03*
%TD*%
D31*
%TO.C,D113*%
X-346000000Y-566500000D03*
D32*
X-343460000Y-566500000D03*
%TD*%
D31*
%TO.C,D151*%
X-425275000Y-444200000D03*
D32*
X-427815000Y-444200000D03*
%TD*%
D33*
%TO.C,D87*%
X-411000000Y-578500000D03*
D34*
X-411000000Y-588660000D03*
%TD*%
D31*
%TO.C,U29*%
X-385725000Y-563300000D03*
D32*
X-388265000Y-563300000D03*
X-388265000Y-555680000D03*
X-385725000Y-555680000D03*
%TD*%
D33*
%TO.C,D176*%
X-420275000Y-432200000D03*
D34*
X-420275000Y-422040000D03*
%TD*%
D31*
%TO.C,D167*%
X-437275000Y-444200000D03*
D32*
X-439815000Y-444200000D03*
%TD*%
D35*
%TO.C,D189*%
X-360275000Y-460200000D03*
D36*
X-360275000Y-457660000D03*
%TD*%
D30*
%TO.C,J21*%
X-353200000Y-414000000D03*
X-348200000Y-414000000D03*
X-343200000Y-414000000D03*
%TD*%
D35*
%TO.C,D169*%
X-306020000Y-463462500D03*
D36*
X-303480000Y-463462500D03*
%TD*%
D31*
%TO.C,U69*%
X-329000000Y-455000000D03*
D32*
X-331540000Y-455000000D03*
X-331540000Y-447380000D03*
X-329000000Y-447380000D03*
%TD*%
D33*
%TO.C,D70*%
X-399000000Y-578500000D03*
D34*
X-399000000Y-588660000D03*
%TD*%
D31*
%TO.C,U8*%
X-462800000Y-461275000D03*
D32*
X-462800000Y-458735000D03*
X-455180000Y-458735000D03*
X-455180000Y-461275000D03*
%TD*%
D31*
%TO.C,U9*%
X-462800000Y-491275000D03*
D32*
X-462800000Y-488735000D03*
X-455180000Y-488735000D03*
X-455180000Y-491275000D03*
%TD*%
D31*
%TO.C,U26*%
X-391725000Y-563300000D03*
D32*
X-394265000Y-563300000D03*
X-394265000Y-555680000D03*
X-391725000Y-555680000D03*
%TD*%
D35*
%TO.C,D158*%
X-432275000Y-460200000D03*
D36*
X-432275000Y-457660000D03*
%TD*%
D30*
%TO.C,J9*%
X-401400000Y-596800000D03*
X-406400000Y-596800000D03*
X-411400000Y-596800000D03*
%TD*%
D35*
%TO.C,D36*%
X-450000000Y-514000000D03*
D36*
X-452540000Y-514000000D03*
%TD*%
D33*
%TO.C,D136*%
X-278200000Y-541462500D03*
D34*
X-268040000Y-541462500D03*
%TD*%
D33*
%TO.C,D38*%
X-478000000Y-466000000D03*
D34*
X-488160000Y-466000000D03*
%TD*%
D35*
%TO.C,D166*%
X-438275000Y-460200000D03*
D36*
X-438275000Y-457660000D03*
%TD*%
D37*
%TO.C,J1*%
X-374250000Y-490000000D03*
D38*
X-371710000Y-490000000D03*
X-369170000Y-490000000D03*
X-366630000Y-490000000D03*
X-364090000Y-490000000D03*
%TD*%
D33*
%TO.C,D30*%
X-478000000Y-490000000D03*
D34*
X-488160000Y-490000000D03*
%TD*%
D31*
%TO.C,U57*%
X-300800000Y-488737500D03*
D32*
X-300800000Y-486197500D03*
X-293180000Y-486197500D03*
X-293180000Y-488737500D03*
%TD*%
D30*
%TO.C,J19*%
X-259000000Y-473200000D03*
X-259000000Y-478200000D03*
X-259000000Y-483200000D03*
%TD*%
D31*
%TO.C,D76*%
X-400000000Y-566500000D03*
D32*
X-397460000Y-566500000D03*
%TD*%
D31*
%TO.C,U50*%
X-300820000Y-476737500D03*
D32*
X-300820000Y-474197500D03*
X-293200000Y-474197500D03*
X-293200000Y-476737500D03*
%TD*%
D31*
%TO.C,D111*%
X-376000000Y-566500000D03*
D32*
X-373460000Y-566500000D03*
%TD*%
D31*
%TO.C,U38*%
X-337725000Y-563300000D03*
D32*
X-340265000Y-563300000D03*
X-340265000Y-555680000D03*
X-337725000Y-555680000D03*
%TD*%
D31*
%TO.C,U42*%
X-293200000Y-546187500D03*
D32*
X-293200000Y-548727500D03*
X-300820000Y-548727500D03*
X-300820000Y-546187500D03*
%TD*%
D33*
%TO.C,D47*%
X-478000000Y-472000000D03*
D34*
X-488160000Y-472000000D03*
%TD*%
D33*
%TO.C,D49*%
X-478000000Y-526000000D03*
D34*
X-488160000Y-526000000D03*
%TD*%
D31*
%TO.C,D142*%
X-290200000Y-542462500D03*
D32*
X-290200000Y-539922500D03*
%TD*%
D33*
%TO.C,D14*%
X-342000000Y-421920000D03*
D34*
X-342000000Y-432080000D03*
%TD*%
D31*
%TO.C,U25*%
X-415725000Y-563300000D03*
D32*
X-418265000Y-563300000D03*
X-418265000Y-555680000D03*
X-415725000Y-555680000D03*
%TD*%
D30*
%TO.C,J17*%
X-259000000Y-503600000D03*
X-259000000Y-508600000D03*
X-259000000Y-513600000D03*
%TD*%
%TO.C,J6*%
X-497000000Y-513400000D03*
X-497000000Y-508400000D03*
X-497000000Y-503400000D03*
%TD*%
D31*
%TO.C,D115*%
X-322000000Y-566500000D03*
D32*
X-319460000Y-566500000D03*
%TD*%
D33*
%TO.C,D10*%
X-318000000Y-422000000D03*
D34*
X-318000000Y-432160000D03*
%TD*%
D33*
%TO.C,D18*%
X-366000000Y-422000000D03*
D34*
X-366000000Y-432160000D03*
%TD*%
D39*
%TO.C,A1*%
X-304905000Y-437380000D03*
D40*
X-304905000Y-439920000D03*
X-259175000Y-454900000D03*
X-259175000Y-435100000D03*
X-304905000Y-442460000D03*
X-304905000Y-445000000D03*
X-304905000Y-447540000D03*
X-304905000Y-450080000D03*
X-304905000Y-452620000D03*
X-297285000Y-454900000D03*
X-299825000Y-454900000D03*
X-302365000Y-454900000D03*
%TD*%
D35*
%TO.C,D192*%
X-342275000Y-460200000D03*
D36*
X-342275000Y-457660000D03*
%TD*%
D31*
%TO.C,D51*%
X-466000000Y-471000000D03*
D32*
X-466000000Y-473540000D03*
%TD*%
D35*
%TO.C,D187*%
X-402275000Y-460200000D03*
D36*
X-402275000Y-457660000D03*
%TD*%
D31*
%TO.C,D173*%
X-290200000Y-518462500D03*
D32*
X-290200000Y-515922500D03*
%TD*%
D33*
%TO.C,D23*%
X-396000000Y-422000000D03*
D34*
X-396000000Y-432160000D03*
%TD*%
D33*
%TO.C,D13*%
X-336000000Y-421920000D03*
D34*
X-336000000Y-432080000D03*
%TD*%
D31*
%TO.C,D101*%
X-406000000Y-566500000D03*
D32*
X-403460000Y-566500000D03*
%TD*%
D31*
%TO.C,U36*%
X-319725000Y-563300000D03*
D32*
X-322265000Y-563300000D03*
X-322265000Y-555680000D03*
X-319725000Y-555680000D03*
%TD*%
D33*
%TO.C,D143*%
X-351000000Y-578500000D03*
D34*
X-351000000Y-588660000D03*
%TD*%
D35*
%TO.C,D73*%
X-423000000Y-550500000D03*
D36*
X-423000000Y-553040000D03*
%TD*%
D35*
%TO.C,D194*%
X-390275000Y-460200000D03*
D36*
X-390275000Y-457660000D03*
%TD*%
D33*
%TO.C,D154*%
X-278200000Y-529462500D03*
D34*
X-268040000Y-529462500D03*
%TD*%
D35*
%TO.C,D112*%
X-345000000Y-550500000D03*
D36*
X-345000000Y-553040000D03*
%TD*%
D33*
%TO.C,D12*%
X-330000000Y-421920000D03*
D34*
X-330000000Y-432080000D03*
%TD*%
D31*
%TO.C,U80*%
X-413000000Y-455000000D03*
D32*
X-415540000Y-455000000D03*
X-415540000Y-447380000D03*
X-413000000Y-447380000D03*
%TD*%
D35*
%TO.C,D150*%
X-426275000Y-460200000D03*
D36*
X-426275000Y-457660000D03*
%TD*%
D31*
%TO.C,U37*%
X-367725000Y-563300000D03*
D32*
X-370265000Y-563300000D03*
X-370265000Y-555680000D03*
X-367725000Y-555680000D03*
%TD*%
D31*
%TO.C,U24*%
X-462800000Y-545275000D03*
D32*
X-462800000Y-542735000D03*
X-455180000Y-542735000D03*
X-455180000Y-545275000D03*
%TD*%
D35*
%TO.C,D174*%
X-306020000Y-481462500D03*
D36*
X-303480000Y-481462500D03*
%TD*%
D30*
%TO.C,J26*%
X-429200000Y-414000000D03*
X-424200000Y-414000000D03*
X-419200000Y-414000000D03*
%TD*%
D33*
%TO.C,D127*%
X-278200000Y-547462500D03*
D34*
X-268040000Y-547462500D03*
%TD*%
D35*
%TO.C,D63*%
X-450000000Y-532000000D03*
D36*
X-452540000Y-532000000D03*
%TD*%
D31*
%TO.C,U13*%
X-462800000Y-521275000D03*
D32*
X-462800000Y-518735000D03*
X-455180000Y-518735000D03*
X-455180000Y-521275000D03*
%TD*%
D33*
%TO.C,D65*%
X-478000000Y-484000000D03*
D34*
X-488160000Y-484000000D03*
%TD*%
D31*
%TO.C,U70*%
X-353000000Y-455000000D03*
D32*
X-355540000Y-455000000D03*
X-355540000Y-447380000D03*
X-353000000Y-447380000D03*
%TD*%
D35*
%TO.C,D141*%
X-306020000Y-541462500D03*
D36*
X-303480000Y-541462500D03*
%TD*%
D33*
%TO.C,D86*%
X-441000000Y-578500000D03*
D34*
X-441000000Y-588660000D03*
%TD*%
D31*
%TO.C,D138*%
X-358000000Y-566500000D03*
D32*
X-355460000Y-566500000D03*
%TD*%
D33*
%TO.C,D107*%
X-375000000Y-578500000D03*
D34*
X-375000000Y-588660000D03*
%TD*%
D31*
%TO.C,U27*%
X-439725000Y-563300000D03*
D32*
X-442265000Y-563300000D03*
X-442265000Y-555680000D03*
X-439725000Y-555680000D03*
%TD*%
D31*
%TO.C,D106*%
X-430000000Y-566500000D03*
D32*
X-427460000Y-566500000D03*
%TD*%
D31*
%TO.C,U76*%
X-407000000Y-455000000D03*
D32*
X-409540000Y-455000000D03*
X-409540000Y-447380000D03*
X-407000000Y-447380000D03*
%TD*%
D31*
%TO.C,U21*%
X-462800000Y-539275000D03*
D32*
X-462800000Y-536735000D03*
X-455180000Y-536735000D03*
X-455180000Y-539275000D03*
%TD*%
D35*
%TO.C,D32*%
X-450000000Y-460000000D03*
D36*
X-452540000Y-460000000D03*
%TD*%
D33*
%TO.C,D146*%
X-278200000Y-535462500D03*
D34*
X-268040000Y-535462500D03*
%TD*%
D33*
%TO.C,D117*%
X-339000000Y-578500000D03*
D34*
X-339000000Y-588660000D03*
%TD*%
D30*
%TO.C,J18*%
X-259000000Y-488400000D03*
X-259000000Y-493400000D03*
X-259000000Y-498400000D03*
%TD*%
D35*
%TO.C,D119*%
X-369000000Y-550500000D03*
D36*
X-369000000Y-553040000D03*
%TD*%
D33*
%TO.C,D95*%
X-435000000Y-578500000D03*
D34*
X-435000000Y-588660000D03*
%TD*%
D35*
%TO.C,D193*%
X-366275000Y-460200000D03*
D36*
X-366275000Y-457660000D03*
%TD*%
D33*
%TO.C,D58*%
X-478000000Y-532000000D03*
D34*
X-488160000Y-532000000D03*
%TD*%
D31*
%TO.C,U43*%
X-355725000Y-563300000D03*
D32*
X-358265000Y-563300000D03*
X-358265000Y-555680000D03*
X-355725000Y-555680000D03*
%TD*%
D31*
%TO.C,U20*%
X-462800000Y-485275000D03*
D32*
X-462800000Y-482735000D03*
X-455180000Y-482735000D03*
X-455180000Y-485275000D03*
%TD*%
D31*
%TO.C,D94*%
X-388000000Y-566500000D03*
D32*
X-385460000Y-566500000D03*
%TD*%
D33*
%TO.C,D1*%
X-268000000Y-512000000D03*
D34*
X-278160000Y-512000000D03*
%TD*%
D35*
%TO.C,D195*%
X-414275000Y-460200000D03*
D36*
X-414275000Y-457660000D03*
%TD*%
D30*
%TO.C,J7*%
X-497000000Y-543800000D03*
X-497000000Y-538800000D03*
X-497000000Y-533800000D03*
%TD*%
D33*
%TO.C,D125*%
X-363000000Y-578500000D03*
D34*
X-363000000Y-588660000D03*
%TD*%
D31*
%TO.C,U75*%
X-383000000Y-455000000D03*
D32*
X-385540000Y-455000000D03*
X-385540000Y-447380000D03*
X-383000000Y-447380000D03*
%TD*%
D33*
%TO.C,D108*%
X-345000000Y-578500000D03*
D34*
X-345000000Y-588660000D03*
%TD*%
D35*
%TO.C,D172*%
X-306020000Y-517462500D03*
D36*
X-303480000Y-517462500D03*
%TD*%
D33*
%TO.C,D155*%
X-432275000Y-432200000D03*
D34*
X-432275000Y-422040000D03*
%TD*%
D35*
%TO.C,D80*%
X-450000000Y-544000000D03*
D36*
X-452540000Y-544000000D03*
%TD*%
D31*
%TO.C,D145*%
X-352000000Y-566500000D03*
D32*
X-349460000Y-566500000D03*
%TD*%
D35*
%TO.C,D130*%
X-333000000Y-550500000D03*
D36*
X-333000000Y-553040000D03*
%TD*%
D31*
%TO.C,U72*%
X-401000000Y-455000000D03*
D32*
X-403540000Y-455000000D03*
X-403540000Y-447380000D03*
X-401000000Y-447380000D03*
%TD*%
D31*
%TO.C,U56*%
X-439550000Y-447400000D03*
D32*
X-437010000Y-447400000D03*
X-437010000Y-455020000D03*
X-439550000Y-455020000D03*
%TD*%
D35*
%TO.C,D182*%
X-372275000Y-460200000D03*
D36*
X-372275000Y-457660000D03*
%TD*%
D31*
%TO.C,D85*%
X-394000000Y-566500000D03*
D32*
X-391460000Y-566500000D03*
%TD*%
D35*
%TO.C,D75*%
X-399000000Y-550500000D03*
D36*
X-399000000Y-553040000D03*
%TD*%
D31*
%TO.C,U73*%
X-335000000Y-455000000D03*
D32*
X-337540000Y-455000000D03*
X-337540000Y-447380000D03*
X-335000000Y-447380000D03*
%TD*%
D30*
%TO.C,J24*%
X-398800000Y-414000000D03*
X-393800000Y-414000000D03*
X-388800000Y-414000000D03*
%TD*%
D35*
%TO.C,D82*%
X-417000000Y-550500000D03*
D36*
X-417000000Y-553040000D03*
%TD*%
D35*
%TO.C,D156*%
X-306020000Y-529462500D03*
D36*
X-303480000Y-529462500D03*
%TD*%
D35*
%TO.C,D180*%
X-324275000Y-460200000D03*
D36*
X-324275000Y-457660000D03*
%TD*%
D31*
%TO.C,U63*%
X-300800000Y-506737500D03*
D32*
X-300800000Y-504197500D03*
X-293180000Y-504197500D03*
X-293180000Y-506737500D03*
%TD*%
D31*
%TO.C,D53*%
X-466000000Y-501000000D03*
D32*
X-466000000Y-503540000D03*
%TD*%
D31*
%TO.C,U60*%
X-293200000Y-516187500D03*
D32*
X-293200000Y-518727500D03*
X-300820000Y-518727500D03*
X-300820000Y-516187500D03*
%TD*%
D31*
%TO.C,U58*%
X-300820000Y-464737500D03*
D32*
X-300820000Y-462197500D03*
X-293200000Y-462197500D03*
X-293200000Y-464737500D03*
%TD*%
D31*
%TO.C,U14*%
X-462800000Y-473275000D03*
D32*
X-462800000Y-470735000D03*
X-455180000Y-470735000D03*
X-455180000Y-473275000D03*
%TD*%
D31*
%TO.C,D131*%
X-334000000Y-566500000D03*
D32*
X-331460000Y-566500000D03*
%TD*%
D31*
%TO.C,U17*%
X-462800000Y-479275000D03*
D32*
X-462800000Y-476735000D03*
X-455180000Y-476735000D03*
X-455180000Y-479275000D03*
%TD*%
D33*
%TO.C,D8*%
X-268000000Y-470000000D03*
D34*
X-278160000Y-470000000D03*
%TD*%
D35*
%TO.C,D61*%
X-450000000Y-508000000D03*
D36*
X-452540000Y-508000000D03*
%TD*%
D33*
%TO.C,D9*%
X-268000000Y-464000000D03*
D34*
X-278160000Y-464000000D03*
%TD*%
D35*
%TO.C,D177*%
X-306020000Y-505462500D03*
D36*
X-303480000Y-505462500D03*
%TD*%
D31*
%TO.C,D67*%
X-466000000Y-483000000D03*
D32*
X-466000000Y-485540000D03*
%TD*%
D41*
%TO.C,C16*%
X-469000000Y-441500000D03*
X-469000000Y-446500000D03*
%TD*%
D31*
%TO.C,U74*%
X-359000000Y-455000000D03*
D32*
X-361540000Y-455000000D03*
X-361540000Y-447380000D03*
X-359000000Y-447380000D03*
%TD*%
D31*
%TO.C,U59*%
X-300800000Y-512737500D03*
D32*
X-300800000Y-510197500D03*
X-293180000Y-510197500D03*
X-293180000Y-512737500D03*
%TD*%
D31*
%TO.C,D179*%
X-419275000Y-444200000D03*
D32*
X-421815000Y-444200000D03*
%TD*%
D31*
%TO.C,U10*%
X-462800000Y-515275000D03*
D32*
X-462800000Y-512735000D03*
X-455180000Y-512735000D03*
X-455180000Y-515275000D03*
%TD*%
D31*
%TO.C,U40*%
X-361725000Y-563300000D03*
D32*
X-364265000Y-563300000D03*
X-364265000Y-555680000D03*
X-361725000Y-555680000D03*
%TD*%
D31*
%TO.C,U45*%
X-293200000Y-540187500D03*
D32*
X-293200000Y-542727500D03*
X-300820000Y-542727500D03*
X-300820000Y-540187500D03*
%TD*%
D33*
%TO.C,D109*%
X-321000000Y-578500000D03*
D34*
X-321000000Y-588660000D03*
%TD*%
D31*
%TO.C,D35*%
X-466000000Y-489000000D03*
D32*
X-466000000Y-491540000D03*
%TD*%
D33*
%TO.C,D17*%
X-360000000Y-421920000D03*
D34*
X-360000000Y-432080000D03*
%TD*%
D31*
%TO.C,U51*%
X-293200000Y-528187500D03*
D32*
X-293200000Y-530727500D03*
X-300820000Y-530727500D03*
X-300820000Y-528187500D03*
%TD*%
D33*
%TO.C,D5*%
X-268000000Y-488000000D03*
D34*
X-278160000Y-488000000D03*
%TD*%
D31*
%TO.C,D92*%
X-412000000Y-566500000D03*
D32*
X-409460000Y-566500000D03*
%TD*%
D31*
%TO.C,U16*%
X-462800000Y-527275000D03*
D32*
X-462800000Y-524735000D03*
X-455180000Y-524735000D03*
X-455180000Y-527275000D03*
%TD*%
D31*
%TO.C,D64*%
X-466000000Y-531000000D03*
D32*
X-466000000Y-533540000D03*
%TD*%
D31*
%TO.C,U35*%
X-343725000Y-563300000D03*
D32*
X-346265000Y-563300000D03*
X-346265000Y-555680000D03*
X-343725000Y-555680000D03*
%TD*%
D33*
%TO.C,D97*%
X-381000000Y-578500000D03*
D34*
X-381000000Y-588660000D03*
%TD*%
D33*
%TO.C,D15*%
X-348000000Y-421920000D03*
D34*
X-348000000Y-432080000D03*
%TD*%
D33*
%TO.C,D69*%
X-423000000Y-578500000D03*
D34*
X-423000000Y-588660000D03*
%TD*%
D31*
%TO.C,U23*%
X-397725000Y-563300000D03*
D32*
X-400265000Y-563300000D03*
X-400265000Y-555680000D03*
X-397725000Y-555680000D03*
%TD*%
D31*
%TO.C,U71*%
X-377000000Y-455000000D03*
D32*
X-379540000Y-455000000D03*
X-379540000Y-447380000D03*
X-377000000Y-447380000D03*
%TD*%
D33*
%TO.C,D27*%
X-408000000Y-421920000D03*
D34*
X-408000000Y-432080000D03*
%TD*%
D30*
%TO.C,J2*%
X-497000000Y-467800000D03*
X-497000000Y-462800000D03*
X-497000000Y-457800000D03*
%TD*%
D35*
%TO.C,D152*%
X-306020000Y-499462500D03*
D36*
X-303480000Y-499462500D03*
%TD*%
D30*
%TO.C,J5*%
X-497000000Y-528600000D03*
X-497000000Y-523600000D03*
X-497000000Y-518600000D03*
%TD*%
D31*
%TO.C,D83*%
X-418000000Y-566500000D03*
D32*
X-415460000Y-566500000D03*
%TD*%
D33*
%TO.C,D56*%
X-478000000Y-478000000D03*
D34*
X-488160000Y-478000000D03*
%TD*%
D31*
%TO.C,D157*%
X-290200000Y-530462500D03*
D32*
X-290200000Y-527922500D03*
%TD*%
D31*
%TO.C,U67*%
X-371000000Y-455000000D03*
D32*
X-373540000Y-455000000D03*
X-373540000Y-447380000D03*
X-371000000Y-447380000D03*
%TD*%
D41*
%TO.C,C18*%
X-460000000Y-445500000D03*
X-460000000Y-443000000D03*
%TD*%
D35*
%TO.C,D144*%
X-351000000Y-550500000D03*
D36*
X-351000000Y-553040000D03*
%TD*%
D31*
%TO.C,D74*%
X-424000000Y-566500000D03*
D32*
X-421460000Y-566500000D03*
%TD*%
D31*
%TO.C,U61*%
X-300800000Y-482737500D03*
D32*
X-300800000Y-480197500D03*
X-293180000Y-480197500D03*
X-293180000Y-482737500D03*
%TD*%
D31*
%TO.C,U33*%
X-427725000Y-563300000D03*
D32*
X-430265000Y-563300000D03*
X-430265000Y-555680000D03*
X-427725000Y-555680000D03*
%TD*%
D33*
%TO.C,D68*%
X-478000000Y-538000000D03*
D34*
X-488160000Y-538000000D03*
%TD*%
D35*
%TO.C,D105*%
X-429000000Y-550500000D03*
D36*
X-429000000Y-553040000D03*
%TD*%
D35*
%TO.C,D184*%
X-330275000Y-460200000D03*
D36*
X-330275000Y-457660000D03*
%TD*%
D35*
%TO.C,D161*%
X-306020000Y-469462500D03*
D36*
X-303480000Y-469462500D03*
%TD*%
D31*
%TO.C,U15*%
X-462800000Y-503275000D03*
D32*
X-462800000Y-500735000D03*
X-455180000Y-500735000D03*
X-455180000Y-503275000D03*
%TD*%
D31*
%TO.C,U31*%
X-403725000Y-563300000D03*
D32*
X-406265000Y-563300000D03*
X-406265000Y-555680000D03*
X-403725000Y-555680000D03*
%TD*%
D35*
%TO.C,D100*%
X-405000000Y-550500000D03*
D36*
X-405000000Y-553040000D03*
%TD*%
D33*
%TO.C,D6*%
X-268000000Y-482000000D03*
D34*
X-278160000Y-482000000D03*
%TD*%
D31*
%TO.C,D33*%
X-466000000Y-459000000D03*
D32*
X-466000000Y-461540000D03*
%TD*%
D31*
%TO.C,U46*%
X-349725000Y-563300000D03*
D32*
X-352265000Y-563300000D03*
X-352265000Y-555680000D03*
X-349725000Y-555680000D03*
%TD*%
D31*
%TO.C,D60*%
X-466000000Y-477000000D03*
D32*
X-466000000Y-479540000D03*
%TD*%
D31*
%TO.C,D122*%
X-340000000Y-566500000D03*
D32*
X-337460000Y-566500000D03*
%TD*%
D30*
%TO.C,J23*%
X-383600000Y-414000000D03*
X-378600000Y-414000000D03*
X-373600000Y-414000000D03*
%TD*%
D31*
%TO.C,U49*%
X-300800000Y-500737500D03*
D32*
X-300800000Y-498197500D03*
X-293180000Y-498197500D03*
X-293180000Y-500737500D03*
%TD*%
D35*
%TO.C,D128*%
X-363000000Y-550500000D03*
D36*
X-363000000Y-553040000D03*
%TD*%
D35*
%TO.C,D123*%
X-306000000Y-553462500D03*
D36*
X-303460000Y-553462500D03*
%TD*%
D31*
%TO.C,D42*%
X-466000000Y-465000000D03*
D32*
X-466000000Y-467540000D03*
%TD*%
D33*
%TO.C,D78*%
X-417000000Y-578500000D03*
D34*
X-417000000Y-588660000D03*
%TD*%
D30*
%TO.C,J14*%
X-355800000Y-596800000D03*
X-360800000Y-596800000D03*
X-365800000Y-596800000D03*
%TD*%
D31*
%TO.C,U28*%
X-409725000Y-563300000D03*
D32*
X-412265000Y-563300000D03*
X-412265000Y-555680000D03*
X-409725000Y-555680000D03*
%TD*%
D35*
%TO.C,D98*%
X-435000000Y-550500000D03*
D36*
X-435000000Y-553040000D03*
%TD*%
D30*
%TO.C,J10*%
X-371000000Y-596800000D03*
X-376000000Y-596800000D03*
X-381000000Y-596800000D03*
%TD*%
D42*
%TO.C,U6*%
X-474055000Y-420460000D03*
D43*
X-474055000Y-423000000D03*
X-474055000Y-425540000D03*
%TD*%
D30*
%TO.C,J22*%
X-368400000Y-414000000D03*
X-363400000Y-414000000D03*
X-358400000Y-414000000D03*
%TD*%
D33*
%TO.C,D147*%
X-426275000Y-432200000D03*
D34*
X-426275000Y-422040000D03*
%TD*%
D35*
%TO.C,D132*%
X-306020000Y-547462500D03*
D36*
X-303480000Y-547462500D03*
%TD*%
D31*
%TO.C,U19*%
X-462800000Y-533275000D03*
D32*
X-462800000Y-530735000D03*
X-455180000Y-530735000D03*
X-455180000Y-533275000D03*
%TD*%
D31*
%TO.C,D81*%
X-466000000Y-543000000D03*
D32*
X-466000000Y-545540000D03*
%TD*%
D30*
%TO.C,J3*%
X-497000000Y-498200000D03*
X-497000000Y-493200000D03*
X-497000000Y-488200000D03*
%TD*%
D35*
%TO.C,D153*%
X-306020000Y-475462500D03*
D36*
X-303480000Y-475462500D03*
%TD*%
D31*
%TO.C,U41*%
X-331725000Y-563300000D03*
D32*
X-334265000Y-563300000D03*
X-334265000Y-555680000D03*
X-331725000Y-555680000D03*
%TD*%
D31*
%TO.C,U65*%
X-323000000Y-455000000D03*
D32*
X-325540000Y-455000000D03*
X-325540000Y-447380000D03*
X-323000000Y-447380000D03*
%TD*%
D33*
%TO.C,D4*%
X-268000000Y-494000000D03*
D34*
X-278160000Y-494000000D03*
%TD*%
D35*
%TO.C,D188*%
X-336275000Y-460200000D03*
D36*
X-336275000Y-457660000D03*
%TD*%
D31*
%TO.C,D124*%
X-290200000Y-554462500D03*
D32*
X-290200000Y-551922500D03*
%TD*%
D31*
%TO.C,U48*%
X-427475000Y-447400000D03*
D32*
X-424935000Y-447400000D03*
X-424935000Y-455020000D03*
X-427475000Y-455020000D03*
%TD*%
D35*
%TO.C,D110*%
X-375000000Y-550500000D03*
D36*
X-375000000Y-553040000D03*
%TD*%
D31*
%TO.C,U79*%
X-389000000Y-455000000D03*
D32*
X-391540000Y-455000000D03*
X-391540000Y-447380000D03*
X-389000000Y-447380000D03*
%TD*%
D33*
%TO.C,D57*%
X-478000000Y-508000000D03*
D34*
X-488160000Y-508000000D03*
%TD*%
D33*
%TO.C,D28*%
X-414000000Y-421920000D03*
D34*
X-414000000Y-432080000D03*
%TD*%
D33*
%TO.C,D11*%
X-324000000Y-422000000D03*
D34*
X-324000000Y-432160000D03*
%TD*%
D30*
%TO.C,J8*%
X-386200000Y-596800000D03*
X-391200000Y-596800000D03*
X-396200000Y-596800000D03*
%TD*%
D33*
%TO.C,D21*%
X-384000000Y-422000000D03*
D34*
X-384000000Y-432160000D03*
%TD*%
D35*
%TO.C,D114*%
X-321000000Y-550500000D03*
D36*
X-321000000Y-553040000D03*
%TD*%
D35*
%TO.C,D41*%
X-450000000Y-466000000D03*
D36*
X-452540000Y-466000000D03*
%TD*%
D33*
%TO.C,D88*%
X-387000000Y-578500000D03*
D34*
X-387000000Y-588660000D03*
%TD*%
D33*
%TO.C,D126*%
X-333000000Y-578500000D03*
D34*
X-333000000Y-588660000D03*
%TD*%
D35*
%TO.C,D59*%
X-450000000Y-478000000D03*
D36*
X-452540000Y-478000000D03*
%TD*%
D33*
%TO.C,D20*%
X-378000000Y-422000000D03*
D34*
X-378000000Y-432160000D03*
%TD*%
D31*
%TO.C,D55*%
X-466000000Y-525000000D03*
D32*
X-466000000Y-527540000D03*
%TD*%
D33*
%TO.C,D96*%
X-405000000Y-578500000D03*
D34*
X-405000000Y-588660000D03*
%TD*%
D33*
%TO.C,D19*%
X-372000000Y-422000000D03*
D34*
X-372000000Y-432160000D03*
%TD*%
D35*
%TO.C,D93*%
X-387000000Y-550500000D03*
D36*
X-387000000Y-553040000D03*
%TD*%
D31*
%TO.C,U77*%
X-341000000Y-455000000D03*
D32*
X-343540000Y-455000000D03*
X-343540000Y-447380000D03*
X-341000000Y-447380000D03*
%TD*%
D31*
%TO.C,U30*%
X-433725000Y-563300000D03*
D32*
X-436265000Y-563300000D03*
X-436265000Y-555680000D03*
X-433725000Y-555680000D03*
%TD*%
D35*
%TO.C,D139*%
X-327000000Y-550500000D03*
D36*
X-327000000Y-553040000D03*
%TD*%
D31*
%TO.C,U54*%
X-300820000Y-470737500D03*
D32*
X-300820000Y-468197500D03*
X-293200000Y-468197500D03*
X-293200000Y-470737500D03*
%TD*%
D33*
%TO.C,D2*%
X-268000000Y-506000000D03*
D34*
X-278160000Y-506000000D03*
%TD*%
D33*
%TO.C,D134*%
X-357000000Y-578500000D03*
D34*
X-357000000Y-588660000D03*
%TD*%
D30*
%TO.C,J11*%
X-416600000Y-596800000D03*
X-421600000Y-596800000D03*
X-426600000Y-596800000D03*
%TD*%
D35*
%TO.C,D43*%
X-450000000Y-496000000D03*
D36*
X-452540000Y-496000000D03*
%TD*%
D33*
%TO.C,D170*%
X-278200000Y-517462500D03*
D34*
X-268040000Y-517462500D03*
%TD*%
D30*
%TO.C,J20*%
X-338000000Y-414000000D03*
X-333000000Y-414000000D03*
X-328000000Y-414000000D03*
%TD*%
D31*
%TO.C,U39*%
X-293200000Y-552187500D03*
D32*
X-293200000Y-554727500D03*
X-300820000Y-554727500D03*
X-300820000Y-552187500D03*
%TD*%
D31*
%TO.C,U78*%
X-365000000Y-455000000D03*
D32*
X-367540000Y-455000000D03*
X-367540000Y-447380000D03*
X-365000000Y-447380000D03*
%TD*%
D31*
%TO.C,D129*%
X-364000000Y-566500000D03*
D32*
X-361460000Y-566500000D03*
%TD*%
D31*
%TO.C,U32*%
X-379725000Y-563300000D03*
D32*
X-382265000Y-563300000D03*
X-382265000Y-555680000D03*
X-379725000Y-555680000D03*
%TD*%
D35*
%TO.C,D45*%
X-450000000Y-520000000D03*
D36*
X-452540000Y-520000000D03*
%TD*%
D35*
%TO.C,D178*%
X-420275000Y-460200000D03*
D36*
X-420275000Y-457660000D03*
%TD*%
D35*
%TO.C,D54*%
X-450000000Y-526000000D03*
D36*
X-452540000Y-526000000D03*
%TD*%
D30*
%TO.C,J16*%
X-259000000Y-518800000D03*
X-259000000Y-523800000D03*
X-259000000Y-528800000D03*
%TD*%
D31*
%TO.C,D159*%
X-431275000Y-444200000D03*
D32*
X-433815000Y-444200000D03*
%TD*%
D35*
%TO.C,D185*%
X-354275000Y-460200000D03*
D36*
X-354275000Y-457660000D03*
%TD*%
D31*
%TO.C,U62*%
X-317000000Y-455000000D03*
D32*
X-319540000Y-455000000D03*
X-319540000Y-447380000D03*
X-317000000Y-447380000D03*
%TD*%
D33*
%TO.C,D162*%
X-278200000Y-523462500D03*
D34*
X-268040000Y-523462500D03*
%TD*%
D35*
%TO.C,D148*%
X-306020000Y-535462500D03*
D36*
X-303480000Y-535462500D03*
%TD*%
D31*
%TO.C,U68*%
X-395000000Y-455000000D03*
D32*
X-397540000Y-455000000D03*
X-397540000Y-447380000D03*
X-395000000Y-447380000D03*
%TD*%
D33*
%TO.C,D29*%
X-478000000Y-460000000D03*
D34*
X-488160000Y-460000000D03*
%TD*%
D31*
%TO.C,U55*%
X-293200000Y-522187500D03*
D32*
X-293200000Y-524727500D03*
X-300820000Y-524727500D03*
X-300820000Y-522187500D03*
%TD*%
D33*
%TO.C,D24*%
X-402000000Y-422000000D03*
D34*
X-402000000Y-432160000D03*
%TD*%
D33*
%TO.C,D135*%
X-327000000Y-578500000D03*
D34*
X-327000000Y-588660000D03*
%TD*%
D35*
%TO.C,D89*%
X-441000000Y-550500000D03*
D36*
X-441000000Y-553040000D03*
%TD*%
D31*
%TO.C,D90*%
X-442000000Y-566500000D03*
D32*
X-439460000Y-566500000D03*
%TD*%
D35*
%TO.C,D91*%
X-411000000Y-550500000D03*
D36*
X-411000000Y-553040000D03*
%TD*%
D31*
%TO.C,D99*%
X-436000000Y-566500000D03*
D32*
X-433460000Y-566500000D03*
%TD*%
D30*
%TO.C,J4*%
X-497000000Y-483000000D03*
X-497000000Y-478000000D03*
X-497000000Y-473000000D03*
%TD*%
D33*
%TO.C,D31*%
X-478000000Y-514000000D03*
D34*
X-488160000Y-514000000D03*
%TD*%
D35*
%TO.C,D183*%
X-396275000Y-460200000D03*
D36*
X-396275000Y-457660000D03*
%TD*%
D31*
%TO.C,D120*%
X-370000000Y-566500000D03*
D32*
X-367460000Y-566500000D03*
%TD*%
D35*
%TO.C,D186*%
X-378275000Y-460200000D03*
D36*
X-378275000Y-457660000D03*
%TD*%
D33*
%TO.C,D48*%
X-478000000Y-502000000D03*
D34*
X-488160000Y-502000000D03*
%TD*%
D31*
%TO.C,U47*%
X-293200000Y-534187500D03*
D32*
X-293200000Y-536727500D03*
X-300820000Y-536727500D03*
X-300820000Y-534187500D03*
%TD*%
D35*
%TO.C,D181*%
X-348275000Y-460200000D03*
D36*
X-348275000Y-457660000D03*
%TD*%
D33*
%TO.C,D77*%
X-478000000Y-544000000D03*
D34*
X-488160000Y-544000000D03*
%TD*%
D33*
%TO.C,D116*%
X-369000000Y-578500000D03*
D34*
X-369000000Y-588660000D03*
%TD*%
D35*
%TO.C,D102*%
X-381000000Y-550500000D03*
D36*
X-381000000Y-553040000D03*
%TD*%
D35*
%TO.C,D160*%
X-306020000Y-493462500D03*
D36*
X-303480000Y-493462500D03*
%TD*%
D31*
%TO.C,U11*%
X-462800000Y-467275000D03*
D32*
X-462800000Y-464735000D03*
X-455180000Y-464735000D03*
X-455180000Y-467275000D03*
%TD*%
D31*
%TO.C,D149*%
X-290200000Y-536462500D03*
D32*
X-290200000Y-533922500D03*
%TD*%
D33*
%TO.C,D104*%
X-429000000Y-578500000D03*
D34*
X-429000000Y-588660000D03*
%TD*%
D33*
%TO.C,D79*%
X-393000000Y-578500000D03*
D34*
X-393000000Y-588660000D03*
%TD*%
D30*
%TO.C,J12*%
X-325400000Y-596800000D03*
X-330400000Y-596800000D03*
X-335400000Y-596800000D03*
%TD*%
D31*
%TO.C,U44*%
X-325725000Y-563300000D03*
D32*
X-328265000Y-563300000D03*
X-328265000Y-555680000D03*
X-325725000Y-555680000D03*
%TD*%
D33*
%TO.C,D22*%
X-390000000Y-422000000D03*
D34*
X-390000000Y-432160000D03*
%TD*%
D35*
%TO.C,D175*%
X-318275000Y-460200000D03*
D36*
X-318275000Y-457660000D03*
%TD*%
D33*
%TO.C,D7*%
X-268000000Y-476000000D03*
D34*
X-278160000Y-476000000D03*
%TD*%
D35*
%TO.C,D34*%
X-450000000Y-490000000D03*
D36*
X-452540000Y-490000000D03*
%TD*%
D35*
%TO.C,D191*%
X-408275000Y-460200000D03*
D36*
X-408275000Y-457660000D03*
%TD*%
D31*
%TO.C,D72*%
X-466000000Y-537000000D03*
D32*
X-466000000Y-539540000D03*
%TD*%
D35*
%TO.C,D50*%
X-450000000Y-472000000D03*
D36*
X-452540000Y-472000000D03*
%TD*%
D33*
%TO.C,D118*%
X-278200000Y-553462500D03*
D34*
X-268040000Y-553462500D03*
%TD*%
D31*
%TO.C,D46*%
X-466000000Y-519000000D03*
D32*
X-466000000Y-521540000D03*
%TD*%
D31*
%TO.C,U34*%
X-373725000Y-563300000D03*
D32*
X-376265000Y-563300000D03*
X-376265000Y-555680000D03*
X-373725000Y-555680000D03*
%TD*%
D31*
%TO.C,U22*%
X-421725000Y-563300000D03*
D32*
X-424265000Y-563300000D03*
X-424265000Y-555680000D03*
X-421725000Y-555680000D03*
%TD*%
D35*
%TO.C,D66*%
X-450000000Y-484000000D03*
D36*
X-452540000Y-484000000D03*
%TD*%
D31*
%TO.C,D165*%
X-290200000Y-524462500D03*
D32*
X-290200000Y-521922500D03*
%TD*%
D33*
%TO.C,D39*%
X-478000000Y-496000000D03*
D34*
X-488160000Y-496000000D03*
%TD*%
D31*
%TO.C,U66*%
X-347000000Y-455000000D03*
D32*
X-349540000Y-455000000D03*
X-349540000Y-447380000D03*
X-347000000Y-447380000D03*
%TD*%
D35*
%TO.C,D168*%
X-306020000Y-487462500D03*
D36*
X-303480000Y-487462500D03*
%TD*%
D35*
%TO.C,D171*%
X-306020000Y-511462500D03*
D36*
X-303480000Y-511462500D03*
%TD*%
D31*
%TO.C,D103*%
X-382000000Y-566500000D03*
D32*
X-379460000Y-566500000D03*
%TD*%
D31*
%TO.C,D140*%
X-328000000Y-566500000D03*
D32*
X-325460000Y-566500000D03*
%TD*%
D30*
%TO.C,J15*%
X-259000000Y-534000000D03*
X-259000000Y-539000000D03*
X-259000000Y-544000000D03*
%TD*%
D33*
%TO.C,D3*%
X-268000000Y-500000000D03*
D34*
X-278160000Y-500000000D03*
%TD*%
D31*
%TO.C,U52*%
X-433550000Y-447400000D03*
D32*
X-431010000Y-447400000D03*
X-431010000Y-455020000D03*
X-433550000Y-455020000D03*
%TD*%
D35*
%TO.C,D71*%
X-450000000Y-538000000D03*
D36*
X-452540000Y-538000000D03*
%TD*%
D31*
%TO.C,U12*%
X-462800000Y-497275000D03*
D32*
X-462800000Y-494735000D03*
X-455180000Y-494735000D03*
X-455180000Y-497275000D03*
%TD*%
D31*
%TO.C,U18*%
X-462800000Y-509275000D03*
D32*
X-462800000Y-506735000D03*
X-455180000Y-506735000D03*
X-455180000Y-509275000D03*
%TD*%
D35*
%TO.C,D137*%
X-357000000Y-550500000D03*
D36*
X-357000000Y-553040000D03*
%TD*%
D31*
%TO.C,U53*%
X-300800000Y-494737500D03*
D32*
X-300800000Y-492197500D03*
X-293180000Y-492197500D03*
X-293180000Y-494737500D03*
%TD*%
D41*
%TO.C,C15*%
X-453000000Y-445500000D03*
X-453000000Y-443000000D03*
%TD*%
D35*
%TO.C,D52*%
X-450000000Y-502000000D03*
D36*
X-452540000Y-502000000D03*
%TD*%
D31*
%TO.C,D62*%
X-466000000Y-507000000D03*
D32*
X-466000000Y-509540000D03*
%TD*%
D35*
%TO.C,D84*%
X-393000000Y-550500000D03*
D36*
X-393000000Y-553040000D03*
%TD*%
D35*
%TO.C,D121*%
X-339000000Y-550500000D03*
D36*
X-339000000Y-553040000D03*
%TD*%
D31*
%TO.C,D133*%
X-290200000Y-548462500D03*
D32*
X-290200000Y-545922500D03*
%TD*%
D35*
%TO.C,D164*%
X-306020000Y-523462500D03*
D36*
X-303480000Y-523462500D03*
%TD*%
D35*
%TO.C,D190*%
X-384275000Y-460200000D03*
D36*
X-384275000Y-457660000D03*
%TD*%
D30*
%TO.C,J25*%
X-414000000Y-414000000D03*
X-409000000Y-414000000D03*
X-404000000Y-414000000D03*
%TD*%
D33*
%TO.C,D16*%
X-354000000Y-421920000D03*
D34*
X-354000000Y-432080000D03*
%TD*%
D33*
%TO.C,D40*%
X-478000000Y-520000000D03*
D34*
X-488160000Y-520000000D03*
%TD*%
D31*
%TO.C,U64*%
X-421550000Y-447400000D03*
D32*
X-419010000Y-447400000D03*
X-419010000Y-455020000D03*
X-421550000Y-455020000D03*
%TD*%
D31*
%TO.C,D37*%
X-466000000Y-513000000D03*
D32*
X-466000000Y-515540000D03*
%TD*%
D31*
%TO.C,D44*%
X-466000000Y-495000000D03*
D32*
X-466000000Y-497540000D03*
%TD*%
D33*
%TO.C,D163*%
X-438275000Y-432200000D03*
D34*
X-438275000Y-422040000D03*
%TD*%
M02*
