%TF.GenerationSoftware,KiCad,Pcbnew,(6.0.9)*%
%TF.CreationDate,2023-01-18T11:33:35+02:00*%
%TF.ProjectId,SilosProject02,53696c6f-7350-4726-9f6a-65637430322e,rev?*%
%TF.SameCoordinates,Original*%
%TF.FileFunction,Paste,Top*%
%TF.FilePolarity,Positive*%
%FSLAX46Y46*%
G04 Gerber Fmt 4.6, Leading zero omitted, Abs format (unit mm)*
G04 Created by KiCad (PCBNEW (6.0.9)) date 2023-01-18 11:33:35*
%MOMM*%
%LPD*%
G01*
G04 APERTURE LIST*
G04 Aperture macros list*
%AMRoundRect*
0 Rectangle with rounded corners*
0 $1 Rounding radius*
0 $2 $3 $4 $5 $6 $7 $8 $9 X,Y pos of 4 corners*
0 Add a 4 corners polygon primitive as box body*
4,1,4,$2,$3,$4,$5,$6,$7,$8,$9,$2,$3,0*
0 Add four circle primitives for the rounded corners*
1,1,$1+$1,$2,$3*
1,1,$1+$1,$4,$5*
1,1,$1+$1,$6,$7*
1,1,$1+$1,$8,$9*
0 Add four rect primitives between the rounded corners*
20,1,$1+$1,$2,$3,$4,$5,0*
20,1,$1+$1,$4,$5,$6,$7,0*
20,1,$1+$1,$6,$7,$8,$9,0*
20,1,$1+$1,$8,$9,$2,$3,0*%
G04 Aperture macros list end*
%ADD10RoundRect,0.250000X-1.425000X0.362500X-1.425000X-0.362500X1.425000X-0.362500X1.425000X0.362500X0*%
%ADD11R,2.500000X3.300000*%
%ADD12RoundRect,0.250000X0.450000X-0.262500X0.450000X0.262500X-0.450000X0.262500X-0.450000X-0.262500X0*%
%ADD13RoundRect,0.250000X1.425000X-0.362500X1.425000X0.362500X-1.425000X0.362500X-1.425000X-0.362500X0*%
%ADD14RoundRect,0.250000X-0.450000X0.262500X-0.450000X-0.262500X0.450000X-0.262500X0.450000X0.262500X0*%
%ADD15RoundRect,0.250000X-0.475000X0.250000X-0.475000X-0.250000X0.475000X-0.250000X0.475000X0.250000X0*%
%ADD16RoundRect,0.250000X-0.262500X-0.450000X0.262500X-0.450000X0.262500X0.450000X-0.262500X0.450000X0*%
%ADD17RoundRect,0.250000X0.262500X0.450000X-0.262500X0.450000X-0.262500X-0.450000X0.262500X-0.450000X0*%
%ADD18RoundRect,0.250000X-0.362500X-1.425000X0.362500X-1.425000X0.362500X1.425000X-0.362500X1.425000X0*%
%ADD19R,1.200000X0.900000*%
%ADD20RoundRect,0.250000X0.362500X1.425000X-0.362500X1.425000X-0.362500X-1.425000X0.362500X-1.425000X0*%
%ADD21RoundRect,0.250000X0.250000X0.475000X-0.250000X0.475000X-0.250000X-0.475000X0.250000X-0.475000X0*%
%ADD22R,1.900000X0.400000*%
%ADD23RoundRect,0.075000X-0.725000X-0.075000X0.725000X-0.075000X0.725000X0.075000X-0.725000X0.075000X0*%
%ADD24RoundRect,0.075000X-0.075000X-0.725000X0.075000X-0.725000X0.075000X0.725000X-0.075000X0.725000X0*%
%ADD25R,2.000000X1.500000*%
%ADD26R,2.000000X3.800000*%
%ADD27RoundRect,0.250000X0.475000X-0.250000X0.475000X0.250000X-0.475000X0.250000X-0.475000X-0.250000X0*%
%ADD28RoundRect,0.250000X-0.250000X-0.475000X0.250000X-0.475000X0.250000X0.475000X-0.250000X0.475000X0*%
%ADD29RoundRect,0.250000X-0.275000X-0.350000X0.275000X-0.350000X0.275000X0.350000X-0.275000X0.350000X0*%
G04 APERTURE END LIST*
D10*
%TO.C,R112*%
X-387000000Y-569537500D03*
X-387000000Y-575462500D03*
%TD*%
D11*
%TO.C,D25*%
X-480637500Y-441500000D03*
X-487437500Y-441500000D03*
%TD*%
D12*
%TO.C,R117*%
X-405000000Y-560412500D03*
X-405000000Y-558587500D03*
%TD*%
%TO.C,R268*%
X-387200000Y-480912500D03*
X-387200000Y-479087500D03*
%TD*%
D13*
%TO.C,R222*%
X-432275000Y-441162500D03*
X-432275000Y-435237500D03*
%TD*%
D14*
%TO.C,R107*%
X-392000000Y-518175000D03*
X-392000000Y-520000000D03*
%TD*%
%TO.C,R119*%
X-400000000Y-518175000D03*
X-400000000Y-520000000D03*
%TD*%
D15*
%TO.C,C13*%
X-387000000Y-439050000D03*
X-387000000Y-440950000D03*
%TD*%
D12*
%TO.C,R88*%
X-393000000Y-560412500D03*
X-393000000Y-558587500D03*
%TD*%
D16*
%TO.C,R175*%
X-359162500Y-517000000D03*
X-357337500Y-517000000D03*
%TD*%
D17*
%TO.C,R201*%
X-296087500Y-535462500D03*
X-297912500Y-535462500D03*
%TD*%
D14*
%TO.C,R132*%
X-398000000Y-518175000D03*
X-398000000Y-520000000D03*
%TD*%
D17*
%TO.C,R215*%
X-296087500Y-529462500D03*
X-297912500Y-529462500D03*
%TD*%
D13*
%TO.C,R236*%
X-438275000Y-441162500D03*
X-438275000Y-435237500D03*
%TD*%
D12*
%TO.C,R284*%
X-391200000Y-480912500D03*
X-391200000Y-479087500D03*
%TD*%
%TO.C,R182*%
X-327000000Y-560412500D03*
X-327000000Y-558587500D03*
%TD*%
D14*
%TO.C,R184*%
X-374000000Y-518175000D03*
X-374000000Y-520000000D03*
%TD*%
D12*
%TO.C,R234*%
X-401200000Y-480912500D03*
X-401200000Y-479087500D03*
%TD*%
D17*
%TO.C,R226*%
X-296287500Y-469462500D03*
X-298112500Y-469462500D03*
%TD*%
D13*
%TO.C,R208*%
X-426275000Y-441162500D03*
X-426275000Y-435237500D03*
%TD*%
D10*
%TO.C,R109*%
X-411000000Y-569537500D03*
X-411000000Y-575462500D03*
%TD*%
D14*
%TO.C,R251*%
X-318275000Y-450287500D03*
X-318275000Y-452112500D03*
%TD*%
D17*
%TO.C,R67*%
X-401587500Y-495000000D03*
X-403412500Y-495000000D03*
%TD*%
D12*
%TO.C,R73*%
X-399000000Y-560412500D03*
X-399000000Y-558587500D03*
%TD*%
D10*
%TO.C,R106*%
X-441000000Y-569537500D03*
X-441000000Y-575462500D03*
%TD*%
D16*
%TO.C,R38*%
X-459912500Y-526087500D03*
X-458087500Y-526087500D03*
%TD*%
D18*
%TO.C,R219*%
X-287162500Y-529462500D03*
X-281237500Y-529462500D03*
%TD*%
D14*
%TO.C,R261*%
X-324275000Y-450287500D03*
X-324275000Y-452112500D03*
%TD*%
D17*
%TO.C,R153*%
X-296087500Y-553462500D03*
X-297912500Y-553462500D03*
%TD*%
D13*
%TO.C,R258*%
X-420275000Y-441162500D03*
X-420275000Y-435237500D03*
%TD*%
D14*
%TO.C,R262*%
X-348275000Y-450287500D03*
X-348275000Y-452112500D03*
%TD*%
D18*
%TO.C,R192*%
X-287162500Y-541462500D03*
X-281237500Y-541462500D03*
%TD*%
D10*
%TO.C,R189*%
X-327000000Y-569537500D03*
X-327000000Y-575462500D03*
%TD*%
D15*
%TO.C,C14*%
X-414000000Y-439050000D03*
X-414000000Y-440950000D03*
%TD*%
D10*
%TO.C,R141*%
X-375000000Y-569537500D03*
X-375000000Y-575462500D03*
%TD*%
D16*
%TO.C,R86*%
X-459912500Y-544087500D03*
X-458087500Y-544087500D03*
%TD*%
D19*
%TO.C,D26*%
X-473037500Y-444850000D03*
X-473037500Y-448150000D03*
%TD*%
D16*
%TO.C,R259*%
X-359162500Y-503000000D03*
X-357337500Y-503000000D03*
%TD*%
D20*
%TO.C,R29*%
X-469037500Y-496000000D03*
X-474962500Y-496000000D03*
%TD*%
D18*
%TO.C,R177*%
X-287162500Y-547462500D03*
X-281237500Y-547462500D03*
%TD*%
D12*
%TO.C,R265*%
X-363200000Y-480912500D03*
X-363200000Y-479087500D03*
%TD*%
%TO.C,R116*%
X-435000000Y-560412500D03*
X-435000000Y-558587500D03*
%TD*%
D14*
%TO.C,R104*%
X-402000000Y-518175000D03*
X-402000000Y-520000000D03*
%TD*%
D10*
%TO.C,R156*%
X-369000000Y-569537500D03*
X-369000000Y-575462500D03*
%TD*%
D17*
%TO.C,R45*%
X-401587500Y-509000000D03*
X-403412500Y-509000000D03*
%TD*%
D16*
%TO.C,R227*%
X-359162500Y-499000000D03*
X-357337500Y-499000000D03*
%TD*%
D17*
%TO.C,R60*%
X-401587500Y-511000000D03*
X-403412500Y-511000000D03*
%TD*%
D12*
%TO.C,R289*%
X-369200000Y-480912500D03*
X-369200000Y-479087500D03*
%TD*%
D21*
%TO.C,C5*%
X-386225000Y-513500000D03*
X-388125000Y-513500000D03*
%TD*%
D22*
%TO.C,Y1*%
X-394175000Y-500000000D03*
X-394175000Y-501200000D03*
X-394175000Y-502400000D03*
%TD*%
D18*
%TO.C,R233*%
X-287162500Y-523462500D03*
X-281237500Y-523462500D03*
%TD*%
%TO.C,R162*%
X-287162500Y-553462500D03*
X-281237500Y-553462500D03*
%TD*%
D16*
%TO.C,R228*%
X-359162500Y-491000000D03*
X-357337500Y-491000000D03*
%TD*%
D10*
%TO.C,R199*%
X-351000000Y-569537500D03*
X-351000000Y-575462500D03*
%TD*%
D18*
%TO.C,R205*%
X-287162500Y-535462500D03*
X-281237500Y-535462500D03*
%TD*%
D10*
%TO.C,R134*%
X-429000000Y-569537500D03*
X-429000000Y-575462500D03*
%TD*%
D12*
%TO.C,R273*%
X-365200000Y-480912500D03*
X-365200000Y-479087500D03*
%TD*%
%TO.C,R281*%
X-367200000Y-480912500D03*
X-367200000Y-479087500D03*
%TD*%
%TO.C,R292*%
X-393200000Y-480912500D03*
X-393200000Y-479087500D03*
%TD*%
D10*
%TO.C,R124*%
X-405000000Y-569537500D03*
X-405000000Y-575462500D03*
%TD*%
D12*
%TO.C,R101*%
X-441000000Y-560412500D03*
X-441000000Y-558587500D03*
%TD*%
D10*
%TO.C,R159*%
X-339000000Y-569537500D03*
X-339000000Y-575462500D03*
%TD*%
D23*
%TO.C,U3*%
X-389350000Y-495000000D03*
X-389350000Y-495500000D03*
X-389350000Y-496000000D03*
X-389350000Y-496500000D03*
X-389350000Y-497000000D03*
X-389350000Y-497500000D03*
X-389350000Y-498000000D03*
X-389350000Y-498500000D03*
X-389350000Y-499000000D03*
X-389350000Y-499500000D03*
X-389350000Y-500000000D03*
X-389350000Y-500500000D03*
X-389350000Y-501000000D03*
X-389350000Y-501500000D03*
X-389350000Y-502000000D03*
X-389350000Y-502500000D03*
X-389350000Y-503000000D03*
X-389350000Y-503500000D03*
X-389350000Y-504000000D03*
X-389350000Y-504500000D03*
X-389350000Y-505000000D03*
X-389350000Y-505500000D03*
X-389350000Y-506000000D03*
X-389350000Y-506500000D03*
X-389350000Y-507000000D03*
D24*
X-387675000Y-508675000D03*
X-387175000Y-508675000D03*
X-386675000Y-508675000D03*
X-386175000Y-508675000D03*
X-385675000Y-508675000D03*
X-385175000Y-508675000D03*
X-384675000Y-508675000D03*
X-384175000Y-508675000D03*
X-383675000Y-508675000D03*
X-383175000Y-508675000D03*
X-382675000Y-508675000D03*
X-382175000Y-508675000D03*
X-381675000Y-508675000D03*
X-381175000Y-508675000D03*
X-380675000Y-508675000D03*
X-380175000Y-508675000D03*
X-379675000Y-508675000D03*
X-379175000Y-508675000D03*
X-378675000Y-508675000D03*
X-378175000Y-508675000D03*
X-377675000Y-508675000D03*
X-377175000Y-508675000D03*
X-376675000Y-508675000D03*
X-376175000Y-508675000D03*
X-375675000Y-508675000D03*
D23*
X-374000000Y-507000000D03*
X-374000000Y-506500000D03*
X-374000000Y-506000000D03*
X-374000000Y-505500000D03*
X-374000000Y-505000000D03*
X-374000000Y-504500000D03*
X-374000000Y-504000000D03*
X-374000000Y-503500000D03*
X-374000000Y-503000000D03*
X-374000000Y-502500000D03*
X-374000000Y-502000000D03*
X-374000000Y-501500000D03*
X-374000000Y-501000000D03*
X-374000000Y-500500000D03*
X-374000000Y-500000000D03*
X-374000000Y-499500000D03*
X-374000000Y-499000000D03*
X-374000000Y-498500000D03*
X-374000000Y-498000000D03*
X-374000000Y-497500000D03*
X-374000000Y-497000000D03*
X-374000000Y-496500000D03*
X-374000000Y-496000000D03*
X-374000000Y-495500000D03*
X-374000000Y-495000000D03*
D24*
X-375675000Y-493325000D03*
X-376175000Y-493325000D03*
X-376675000Y-493325000D03*
X-377175000Y-493325000D03*
X-377675000Y-493325000D03*
X-378175000Y-493325000D03*
X-378675000Y-493325000D03*
X-379175000Y-493325000D03*
X-379675000Y-493325000D03*
X-380175000Y-493325000D03*
X-380675000Y-493325000D03*
X-381175000Y-493325000D03*
X-381675000Y-493325000D03*
X-382175000Y-493325000D03*
X-382675000Y-493325000D03*
X-383175000Y-493325000D03*
X-383675000Y-493325000D03*
X-384175000Y-493325000D03*
X-384675000Y-493325000D03*
X-385175000Y-493325000D03*
X-385675000Y-493325000D03*
X-386175000Y-493325000D03*
X-386675000Y-493325000D03*
X-387175000Y-493325000D03*
X-387675000Y-493325000D03*
%TD*%
D10*
%TO.C,R97*%
X-393000000Y-569537500D03*
X-393000000Y-575462500D03*
%TD*%
D14*
%TO.C,R197*%
X-372000000Y-518175000D03*
X-372000000Y-520000000D03*
%TD*%
%TO.C,R287*%
X-390275000Y-450287500D03*
X-390275000Y-452112500D03*
%TD*%
D20*
%TO.C,R26*%
X-469037500Y-466000000D03*
X-474962500Y-466000000D03*
%TD*%
D14*
%TO.C,R157*%
X-368000000Y-518175000D03*
X-368000000Y-520000000D03*
%TD*%
D16*
%TO.C,R242*%
X-359162500Y-489000000D03*
X-357337500Y-489000000D03*
%TD*%
D20*
%TO.C,R17*%
X-469037500Y-514000000D03*
X-474962500Y-514000000D03*
%TD*%
D14*
%TO.C,R264*%
X-396275000Y-450287500D03*
X-396275000Y-452112500D03*
%TD*%
D10*
%TO.C,R79*%
X-423000000Y-569537500D03*
X-423000000Y-575462500D03*
%TD*%
D16*
%TO.C,R36*%
X-459912500Y-472087500D03*
X-458087500Y-472087500D03*
%TD*%
D17*
%TO.C,R15*%
X-401587500Y-505000000D03*
X-403412500Y-505000000D03*
%TD*%
D20*
%TO.C,R91*%
X-469037500Y-544000000D03*
X-474962500Y-544000000D03*
%TD*%
D15*
%TO.C,C12*%
X-307600000Y-439050000D03*
X-307600000Y-440950000D03*
%TD*%
D10*
%TO.C,R171*%
X-363000000Y-569537500D03*
X-363000000Y-575462500D03*
%TD*%
D16*
%TO.C,R3*%
X-309512500Y-448000000D03*
X-307687500Y-448000000D03*
%TD*%
D17*
%TO.C,R240*%
X-296287500Y-463462500D03*
X-298112500Y-463462500D03*
%TD*%
D25*
%TO.C,U7*%
X-463150000Y-421700000D03*
D26*
X-456850000Y-424000000D03*
D25*
X-463150000Y-424000000D03*
X-463150000Y-426300000D03*
%TD*%
D14*
%TO.C,R110*%
X-384000000Y-518175000D03*
X-384000000Y-520000000D03*
%TD*%
%TO.C,R279*%
X-384275000Y-450287500D03*
X-384275000Y-452112500D03*
%TD*%
D16*
%TO.C,R190*%
X-359162500Y-515000000D03*
X-357337500Y-515000000D03*
%TD*%
D20*
%TO.C,R11*%
X-469037500Y-460000000D03*
X-474962500Y-460000000D03*
%TD*%
D17*
%TO.C,R24*%
X-401600000Y-489000000D03*
X-403425000Y-489000000D03*
%TD*%
D14*
%TO.C,R230*%
X-438275000Y-450287500D03*
X-438275000Y-452112500D03*
%TD*%
D17*
%TO.C,R74*%
X-401587500Y-513000000D03*
X-403412500Y-513000000D03*
%TD*%
D12*
%TO.C,R196*%
X-351000000Y-560412500D03*
X-351000000Y-558587500D03*
%TD*%
D27*
%TO.C,C19*%
X-466800000Y-426350000D03*
X-466800000Y-424450000D03*
%TD*%
D12*
%TO.C,R137*%
X-344912500Y-560412500D03*
X-344912500Y-558587500D03*
%TD*%
D17*
%TO.C,R168*%
X-296087500Y-547462500D03*
X-297912500Y-547462500D03*
%TD*%
D14*
%TO.C,R270*%
X-354275000Y-450287500D03*
X-354275000Y-452112500D03*
%TD*%
%TO.C,R272*%
X-402275000Y-450287500D03*
X-402275000Y-452112500D03*
%TD*%
D20*
%TO.C,R32*%
X-469037500Y-520000000D03*
X-474962500Y-520000000D03*
%TD*%
D16*
%TO.C,R213*%
X-359162500Y-501000000D03*
X-357337500Y-501000000D03*
%TD*%
D21*
%TO.C,C9*%
X-393675000Y-508500000D03*
X-395575000Y-508500000D03*
%TD*%
D14*
%TO.C,R154*%
X-378000000Y-518175000D03*
X-378000000Y-520000000D03*
%TD*%
D17*
%TO.C,R244*%
X-296087500Y-517462500D03*
X-297912500Y-517462500D03*
%TD*%
D21*
%TO.C,C10*%
X-393725000Y-511000000D03*
X-395625000Y-511000000D03*
%TD*%
D10*
%TO.C,R127*%
X-381000000Y-569537500D03*
X-381000000Y-575462500D03*
%TD*%
D12*
%TO.C,R283*%
X-383200000Y-480912500D03*
X-383200000Y-479087500D03*
%TD*%
%TO.C,R290*%
X-377200000Y-480912500D03*
X-377200000Y-479087500D03*
%TD*%
D16*
%TO.C,R53*%
X-459912500Y-532087500D03*
X-458087500Y-532087500D03*
%TD*%
D17*
%TO.C,R254*%
X-296287500Y-505462500D03*
X-298112500Y-505462500D03*
%TD*%
D14*
%TO.C,R288*%
X-414275000Y-450287500D03*
X-414275000Y-452112500D03*
%TD*%
%TO.C,R125*%
X-382000000Y-518175000D03*
X-382000000Y-520000000D03*
%TD*%
%TO.C,R255*%
X-420275000Y-450287500D03*
X-420275000Y-452112500D03*
%TD*%
D12*
%TO.C,R136*%
X-375000000Y-560412500D03*
X-375000000Y-558587500D03*
%TD*%
D14*
%TO.C,R285*%
X-342275000Y-450287500D03*
X-342275000Y-452112500D03*
%TD*%
D12*
%TO.C,R118*%
X-381000000Y-560412500D03*
X-381000000Y-558587500D03*
%TD*%
%TO.C,R256*%
X-395200000Y-480912500D03*
X-395200000Y-479087500D03*
%TD*%
D16*
%TO.C,R23*%
X-459912500Y-520087500D03*
X-458087500Y-520087500D03*
%TD*%
D20*
%TO.C,R44*%
X-469037500Y-502000000D03*
X-474962500Y-502000000D03*
%TD*%
D27*
%TO.C,C4*%
X-396675000Y-498500000D03*
X-396675000Y-496600000D03*
%TD*%
D12*
%TO.C,R87*%
X-417000000Y-560412500D03*
X-417000000Y-558587500D03*
%TD*%
D14*
%TO.C,R277*%
X-336275000Y-450287500D03*
X-336275000Y-452112500D03*
%TD*%
D20*
%TO.C,R14*%
X-469037500Y-490000000D03*
X-474962500Y-490000000D03*
%TD*%
D14*
%TO.C,R122*%
X-390000000Y-518175000D03*
X-390000000Y-520000000D03*
%TD*%
%TO.C,R92*%
X-394000000Y-518175000D03*
X-394000000Y-520000000D03*
%TD*%
D20*
%TO.C,R76*%
X-469037500Y-538000000D03*
X-474962500Y-538000000D03*
%TD*%
D12*
%TO.C,R282*%
X-375200000Y-480912500D03*
X-375200000Y-479087500D03*
%TD*%
D10*
%TO.C,R5*%
X-477037500Y-444837500D03*
X-477037500Y-450762500D03*
%TD*%
D12*
%TO.C,R152*%
X-339000000Y-560412500D03*
X-339000000Y-558587500D03*
%TD*%
D14*
%TO.C,R216*%
X-432275000Y-450287500D03*
X-432275000Y-452112500D03*
%TD*%
D16*
%TO.C,R241*%
X-359162500Y-497000000D03*
X-357337500Y-497000000D03*
%TD*%
D12*
%TO.C,R102*%
X-411000000Y-560412500D03*
X-411000000Y-558587500D03*
%TD*%
D14*
%TO.C,R280*%
X-408275000Y-450287500D03*
X-408275000Y-452112500D03*
%TD*%
D16*
%TO.C,R7*%
X-459912500Y-490087500D03*
X-458087500Y-490087500D03*
%TD*%
D12*
%TO.C,R103*%
X-387000000Y-560412500D03*
X-387000000Y-558587500D03*
%TD*%
D16*
%TO.C,R2*%
X-309512500Y-450000000D03*
X-307687500Y-450000000D03*
%TD*%
D12*
%TO.C,R291*%
X-385200000Y-480912500D03*
X-385200000Y-479087500D03*
%TD*%
%TO.C,R220*%
X-399200000Y-480912500D03*
X-399200000Y-479087500D03*
%TD*%
D17*
%TO.C,R9*%
X-401587500Y-487000000D03*
X-403412500Y-487000000D03*
%TD*%
D10*
%TO.C,R186*%
X-357000000Y-569537500D03*
X-357000000Y-575462500D03*
%TD*%
D12*
%TO.C,R253*%
X-361200000Y-480912500D03*
X-361200000Y-479087500D03*
%TD*%
%TO.C,R151*%
X-369000000Y-560412500D03*
X-369000000Y-558587500D03*
%TD*%
D16*
%TO.C,R203*%
X-359162500Y-513000000D03*
X-357337500Y-513000000D03*
%TD*%
D17*
%TO.C,R42*%
X-401587500Y-501000000D03*
X-403412500Y-501000000D03*
%TD*%
D14*
%TO.C,R278*%
X-360275000Y-450287500D03*
X-360275000Y-452112500D03*
%TD*%
D17*
%TO.C,R225*%
X-296287500Y-493462500D03*
X-298112500Y-493462500D03*
%TD*%
D12*
%TO.C,R276*%
X-389200000Y-480912500D03*
X-389200000Y-479087500D03*
%TD*%
D17*
%TO.C,R30*%
X-401587500Y-507000000D03*
X-403412500Y-507000000D03*
%TD*%
D16*
%TO.C,R52*%
X-459912500Y-508087500D03*
X-458087500Y-508087500D03*
%TD*%
D20*
%TO.C,R56*%
X-469037500Y-478000000D03*
X-474962500Y-478000000D03*
%TD*%
D12*
%TO.C,R166*%
X-363000000Y-560412500D03*
X-363000000Y-558587500D03*
%TD*%
%TO.C,R274*%
X-373200000Y-480912500D03*
X-373200000Y-479087500D03*
%TD*%
D10*
%TO.C,R94*%
X-417000000Y-569537500D03*
X-417000000Y-575462500D03*
%TD*%
D20*
%TO.C,R69*%
X-469037500Y-484000000D03*
X-474962500Y-484000000D03*
%TD*%
D16*
%TO.C,R252*%
X-359162500Y-495000000D03*
X-357337500Y-495000000D03*
%TD*%
D12*
%TO.C,R72*%
X-423000000Y-560412500D03*
X-423000000Y-558587500D03*
%TD*%
%TO.C,R167*%
X-333000000Y-560412500D03*
X-333000000Y-558587500D03*
%TD*%
D14*
%TO.C,R269*%
X-330275000Y-450287500D03*
X-330275000Y-452112500D03*
%TD*%
D17*
%TO.C,R250*%
X-296287500Y-481462500D03*
X-298112500Y-481462500D03*
%TD*%
D15*
%TO.C,C7*%
X-369175000Y-494100000D03*
X-369175000Y-496000000D03*
%TD*%
D16*
%TO.C,R6*%
X-459912500Y-460000000D03*
X-458087500Y-460000000D03*
%TD*%
D12*
%TO.C,R181*%
X-357000000Y-560412500D03*
X-357000000Y-558587500D03*
%TD*%
D21*
%TO.C,C3*%
X-393725000Y-494000000D03*
X-395625000Y-494000000D03*
%TD*%
D10*
%TO.C,R144*%
X-345000000Y-569537500D03*
X-345000000Y-575462500D03*
%TD*%
D14*
%TO.C,R271*%
X-378275000Y-450287500D03*
X-378275000Y-452112500D03*
%TD*%
D17*
%TO.C,R211*%
X-296287500Y-499462500D03*
X-298112500Y-499462500D03*
%TD*%
D16*
%TO.C,R66*%
X-459912500Y-484087500D03*
X-458087500Y-484087500D03*
%TD*%
D12*
%TO.C,R138*%
X-321000000Y-560412500D03*
X-321000000Y-558587500D03*
%TD*%
D16*
%TO.C,R51*%
X-459912500Y-478087500D03*
X-458087500Y-478087500D03*
%TD*%
%TO.C,R37*%
X-459912500Y-502087500D03*
X-458087500Y-502087500D03*
%TD*%
%TO.C,R231*%
X-359162500Y-509000000D03*
X-357337500Y-509000000D03*
%TD*%
D21*
%TO.C,C2*%
X-285050000Y-479000000D03*
X-286950000Y-479000000D03*
%TD*%
D17*
%TO.C,R243*%
X-296287500Y-511462500D03*
X-298112500Y-511462500D03*
%TD*%
D10*
%TO.C,R82*%
X-399000000Y-569537500D03*
X-399000000Y-575462500D03*
%TD*%
D28*
%TO.C,C8*%
X-389075000Y-488500000D03*
X-387175000Y-488500000D03*
%TD*%
D14*
%TO.C,R145*%
X-362000000Y-518175000D03*
X-362000000Y-520000000D03*
%TD*%
%TO.C,R187*%
X-364000000Y-518175000D03*
X-364000000Y-520000000D03*
%TD*%
D16*
%TO.C,R21*%
X-459912500Y-466087500D03*
X-458087500Y-466087500D03*
%TD*%
D29*
%TO.C,L1*%
X-395825000Y-506500000D03*
X-393525000Y-506500000D03*
%TD*%
D20*
%TO.C,R62*%
X-469000000Y-532000000D03*
X-474925000Y-532000000D03*
%TD*%
D14*
%TO.C,R169*%
X-376000000Y-518175000D03*
X-376000000Y-520000000D03*
%TD*%
D17*
%TO.C,R12*%
X-401587500Y-497000000D03*
X-403412500Y-497000000D03*
%TD*%
D14*
%TO.C,R286*%
X-366275000Y-450287500D03*
X-366275000Y-452112500D03*
%TD*%
D16*
%TO.C,R160*%
X-359162500Y-519000000D03*
X-357337500Y-519000000D03*
%TD*%
D20*
%TO.C,R47*%
X-469037500Y-526000000D03*
X-474962500Y-526000000D03*
%TD*%
D16*
%TO.C,R8*%
X-459912500Y-514087500D03*
X-458087500Y-514087500D03*
%TD*%
D14*
%TO.C,R139*%
X-380000000Y-518175000D03*
X-380000000Y-520000000D03*
%TD*%
D17*
%TO.C,R89*%
X-401587500Y-515000000D03*
X-403412500Y-515000000D03*
%TD*%
D18*
%TO.C,R4*%
X-478000000Y-441500000D03*
X-472075000Y-441500000D03*
%TD*%
D17*
%TO.C,R27*%
X-401587500Y-499000000D03*
X-403412500Y-499000000D03*
%TD*%
D21*
%TO.C,C6*%
X-374225000Y-513500000D03*
X-376125000Y-513500000D03*
%TD*%
D10*
%TO.C,R174*%
X-333000000Y-569537500D03*
X-333000000Y-575462500D03*
%TD*%
D16*
%TO.C,R217*%
X-359162500Y-511000000D03*
X-357337500Y-511000000D03*
%TD*%
D17*
%TO.C,R212*%
X-296287500Y-475462500D03*
X-298112500Y-475462500D03*
%TD*%
%TO.C,R229*%
X-296087500Y-523462500D03*
X-297912500Y-523462500D03*
%TD*%
D12*
%TO.C,R275*%
X-381200000Y-480912500D03*
X-381200000Y-479087500D03*
%TD*%
D14*
%TO.C,R80*%
X-388000000Y-518175000D03*
X-388000000Y-520000000D03*
%TD*%
D16*
%TO.C,R248*%
X-359162500Y-505000000D03*
X-357337500Y-505000000D03*
%TD*%
D14*
%TO.C,R172*%
X-366000000Y-518175000D03*
X-366000000Y-520000000D03*
%TD*%
%TO.C,R202*%
X-426275000Y-450287500D03*
X-426275000Y-452112500D03*
%TD*%
D17*
%TO.C,R54*%
X-401587500Y-493000000D03*
X-403412500Y-493000000D03*
%TD*%
D21*
%TO.C,C1*%
X-393725000Y-504500000D03*
X-395625000Y-504500000D03*
%TD*%
D15*
%TO.C,R1*%
X-384675000Y-487050000D03*
X-384675000Y-488950000D03*
%TD*%
D16*
%TO.C,R71*%
X-459912500Y-538087500D03*
X-458087500Y-538087500D03*
%TD*%
%TO.C,R22*%
X-459912500Y-496087500D03*
X-458087500Y-496087500D03*
%TD*%
D10*
%TO.C,R121*%
X-435000000Y-569537500D03*
X-435000000Y-575462500D03*
%TD*%
D17*
%TO.C,R239*%
X-296287500Y-487462500D03*
X-298112500Y-487462500D03*
%TD*%
D20*
%TO.C,R59*%
X-469037500Y-508000000D03*
X-474962500Y-508000000D03*
%TD*%
D18*
%TO.C,R247*%
X-287162500Y-517462500D03*
X-281237500Y-517462500D03*
%TD*%
D20*
%TO.C,R41*%
X-469037500Y-472000000D03*
X-474962500Y-472000000D03*
%TD*%
D15*
%TO.C,C17*%
X-476800000Y-420450000D03*
X-476800000Y-422350000D03*
%TD*%
D14*
%TO.C,R95*%
X-386000000Y-518175000D03*
X-386000000Y-520000000D03*
%TD*%
D17*
%TO.C,R39*%
X-401587500Y-491000000D03*
X-403412500Y-491000000D03*
%TD*%
D14*
%TO.C,R142*%
X-370000000Y-518175000D03*
X-370000000Y-520000000D03*
%TD*%
D12*
%TO.C,R206*%
X-397200000Y-480912500D03*
X-397200000Y-479087500D03*
%TD*%
%TO.C,R131*%
X-429000000Y-560412500D03*
X-429000000Y-558587500D03*
%TD*%
D16*
%TO.C,R245*%
X-359162500Y-507000000D03*
X-357337500Y-507000000D03*
%TD*%
D14*
%TO.C,R263*%
X-372275000Y-450287500D03*
X-372275000Y-452112500D03*
%TD*%
D17*
%TO.C,R183*%
X-296087500Y-541462500D03*
X-297912500Y-541462500D03*
%TD*%
D12*
%TO.C,R266*%
X-371200000Y-480912500D03*
X-371200000Y-479087500D03*
%TD*%
D17*
%TO.C,R57*%
X-401587500Y-503000000D03*
X-403412500Y-503000000D03*
%TD*%
D12*
%TO.C,R267*%
X-379200000Y-480912500D03*
X-379200000Y-479087500D03*
%TD*%
D10*
%TO.C,R147*%
X-321000000Y-569537500D03*
X-321000000Y-575462500D03*
%TD*%
D14*
%TO.C,R77*%
X-396000000Y-518175000D03*
X-396000000Y-520000000D03*
%TD*%
D16*
%TO.C,R214*%
X-359162500Y-493000000D03*
X-357337500Y-493000000D03*
%TD*%
D15*
%TO.C,C11*%
X-338000000Y-439050000D03*
X-338000000Y-440950000D03*
%TD*%
M02*
