M48
; DRILL file {KiCad (6.0.9)} date Wed Jan 18 11:34:01 2023
; FORMAT={-:-/ absolute / inch / decimal}
; #@! TF.CreationDate,2023-01-18T11:34:01+02:00
; #@! TF.GenerationSoftware,Kicad,Pcbnew,(6.0.9)
; #@! TF.FileFunction,Plated,1,2,PTH
FMAT,2
INCH
; #@! TA.AperFunction,Plated,PTH,ViaDrill
T1C0.0118
; #@! TA.AperFunction,Plated,PTH,ComponentDrill
T2C0.0315
; #@! TA.AperFunction,Plated,PTH,ComponentDrill
T3C0.0354
; #@! TA.AperFunction,Plated,PTH,ComponentDrill
T4C0.0360
; #@! TA.AperFunction,Plated,PTH,ComponentDrill
T5C0.0394
; #@! TA.AperFunction,Plated,PTH,ComponentDrill
T6C0.0433
; #@! TA.AperFunction,Plated,PTH,ComponentDrill
T7C0.0551
%
G90
G05
T1
X-18.937Y-22.2835
X-18.8583Y-22.3622
X-18.7795Y-22.4409
X-18.7008Y-22.0866
X-18.7008Y-22.5197
X-18.622Y-22.1654
X-18.622Y-22.5984
X-18.5433Y-16.2992
X-18.5433Y-16.4961
X-18.5433Y-22.2441
X-18.4646Y-16.2992
X-18.4646Y-16.4961
X-18.4646Y-22.3228
X-18.3858Y-16.2992
X-18.3858Y-16.4961
X-18.3858Y-22.4016
X-18.3071Y-16.2992
X-18.3071Y-16.4961
X-18.2283Y-16.2992
X-18.2283Y-16.4961
X-18.0709Y-17.8346
X-18.0315Y-17.7953
X-18.0315Y-21.7717
X-17.9921Y-17.7559
X-17.9528Y-21.8504
X-17.9134Y-17.9134
X-17.874Y-17.874
X-17.874Y-21.9291
X-17.8346Y-17.8346
X-17.8346Y-21.6535
X-17.7559Y-21.7323
X-17.6772Y-17.6378
X-17.6772Y-21.811
X-17.5984Y-17.6378
X-17.5197Y-17.6378
X-17.4803Y-17.8346
X-17.4803Y-17.9134
X-17.4803Y-17.9921
X-16.3543Y-17.1417
X-16.2992Y-17.4409
X-15.7953Y-18.9843
X-15.7677Y-19.252
X-15.7677Y-19.3307
X-15.7677Y-19.4094
X-15.7677Y-19.4882
X-15.7677Y-19.5669
X-15.7677Y-19.6457
X-15.7677Y-19.7244
X-15.7677Y-19.8031
X-15.7677Y-19.8819
X-15.7677Y-19.9606
X-15.7677Y-20.0394
X-15.7677Y-20.1181
X-15.7677Y-20.1969
X-15.7677Y-20.2756
X-15.7638Y-19.1732
X-15.748Y-20.3543
X-15.7165Y-18.9843
X-15.6693Y-19.5433
X-15.6693Y-19.8425
X-15.6457Y-17.4094
X-15.6378Y-18.9843
X-15.6368Y-19.9409
X-15.6299Y-20.1181
X-15.6142Y-19.4016
X-15.5906Y-19.7244
X-15.5591Y-18.9843
X-15.5384Y-19.5866
X-15.5Y-19.2323
X-15.499Y-19.626
X-15.4803Y-18.9843
X-15.44Y-19.9803
X-15.44Y-20.0197
X-15.44Y-20.0591
X-15.436Y-19.4685
X-15.436Y-19.5
X-15.436Y-19.563
X-15.4349Y-19.5314
X-15.4331Y-19.4331
X-15.4331Y-20.3543
X-15.4203Y-19.6418
X-15.4203Y-19.7677
X-15.4203Y-19.8031
X-15.4203Y-19.8425
X-15.4203Y-19.8819
X-15.4094Y-17.378
X-15.4016Y-18.9843
X-15.3307Y-20.2205
X-15.3228Y-18.9843
X-15.315Y-17.5197
X-15.2992Y-17.1417
X-15.2756Y-19.1732
X-15.2722Y-19.305
X-15.2441Y-18.9843
X-15.2362Y-19.8425
X-15.2273Y-19.3126
X-15.2037Y-19.2913
X-15.2037Y-20.1575
X-15.1998Y-20.0984
X-15.1683Y-19.311
X-15.1211Y-19.2913
X-15.1211Y-19.3504
X-15.1181Y-20.1772
X-15.1181Y-20.3543
X-15.0934Y-19.3064
X-15.0699Y-19.2717
X-15.0492Y-20.0984
X-14.9843Y-20.1575
X-14.9055Y-20.1969
X-14.8346Y-20.1732
X-14.8297Y-20.1378
X-14.8031Y-20.3543
X-14.7087Y-17.3937
X-14.685Y-20.2126
X-14.6654Y-20.0
X-14.6142Y-19.5827
X-14.6142Y-19.622
X-14.5354Y-19.4016
X-14.4882Y-20.3543
X-14.4724Y-17.4331
X-14.4488Y-19.5276
X-14.252Y-20.3543
X-14.1929Y-20.4331
X-13.9921Y-17.4331
X-13.7614Y-17.3961
X-13.5197Y-17.3622
X-13.3858Y-17.5197
X-13.3701Y-17.1417
X-12.8189Y-17.4016
X-12.5827Y-17.4331
X-12.3622Y-17.9528
X-12.2835Y-17.9528
X-12.1811Y-17.2835
X-12.1654Y-17.4016
X-11.811Y-22.874
X-11.7323Y-22.7953
X-11.6535Y-22.7165
X-11.5748Y-22.6378
X-11.5748Y-23.0315
X-11.4961Y-22.5591
X-11.4961Y-22.9528
X-11.4804Y-18.433
X-11.4567Y-18.7795
X-11.4488Y-20.0866
X-11.4173Y-22.874
X-11.3386Y-17.5591
X-11.3386Y-17.6378
X-11.3386Y-17.7165
X-11.3386Y-22.7953
X-11.3071Y-18.748
X-11.3071Y-19.8504
X-11.2992Y-17.0866
X-11.2992Y-17.1654
X-11.2992Y-17.2441
X-11.2598Y-22.7165
X-11.252Y-19.6142
X-11.2047Y-19.378
X-11.1417Y-17.1654
X-11.1417Y-17.2441
X-11.1417Y-17.3228
X-11.1417Y-17.6772
X-11.1417Y-17.7559
X-11.1417Y-17.8346
X-11.0787Y-18.7953
T2
X-18.4646Y-17.3819
X-18.4646Y-17.5787
X-18.3465Y-18.0709
X-18.3465Y-18.1709
X-18.3465Y-18.3071
X-18.3465Y-18.4071
X-18.3465Y-18.5433
X-18.3465Y-18.6433
X-18.3465Y-18.7795
X-18.3465Y-18.8795
X-18.3465Y-19.0157
X-18.3465Y-19.1157
X-18.3465Y-19.252
X-18.3465Y-19.352
X-18.3465Y-19.4882
X-18.3465Y-19.5882
X-18.3465Y-19.7244
X-18.3465Y-19.8244
X-18.3465Y-19.9606
X-18.3465Y-20.0606
X-18.3465Y-20.1969
X-18.3465Y-20.2969
X-18.3465Y-20.4331
X-18.3465Y-20.5331
X-18.3465Y-20.6693
X-18.3465Y-20.7693
X-18.3465Y-20.9055
X-18.3465Y-21.0055
X-18.3465Y-21.1417
X-18.3465Y-21.2417
X-18.3465Y-21.378
X-18.3465Y-21.478
X-18.2205Y-18.0604
X-18.2205Y-18.1604
X-18.2205Y-18.2967
X-18.2205Y-18.3967
X-18.2205Y-18.5329
X-18.2205Y-18.6329
X-18.2205Y-18.7691
X-18.2205Y-18.8691
X-18.2205Y-19.0053
X-18.2205Y-19.1053
X-18.2205Y-19.2415
X-18.2205Y-19.3415
X-18.2205Y-19.4778
X-18.2205Y-19.5778
X-18.2205Y-19.714
X-18.2205Y-19.814
X-18.2205Y-19.9502
X-18.2205Y-20.0502
X-18.2205Y-20.1864
X-18.2205Y-20.2864
X-18.2205Y-20.4226
X-18.2205Y-20.5226
X-18.2205Y-20.6589
X-18.2205Y-20.7589
X-18.2205Y-20.8951
X-18.2205Y-20.9951
X-18.2205Y-21.1313
X-18.2205Y-21.2313
X-18.2205Y-21.3675
X-18.2205Y-21.4675
X-18.1102Y-17.4409
X-18.1102Y-17.5394
X-17.9205Y-18.0604
X-17.9205Y-18.1604
X-17.9205Y-18.2967
X-17.9205Y-18.3967
X-17.9205Y-18.5329
X-17.9205Y-18.6329
X-17.9205Y-18.7691
X-17.9205Y-18.8691
X-17.9205Y-19.0053
X-17.9205Y-19.1053
X-17.9205Y-19.2415
X-17.9205Y-19.3415
X-17.9205Y-19.4778
X-17.9205Y-19.5778
X-17.9205Y-19.714
X-17.9205Y-19.814
X-17.9205Y-19.9502
X-17.9205Y-20.0502
X-17.9205Y-20.1864
X-17.9205Y-20.2864
X-17.9205Y-20.4226
X-17.9205Y-20.5226
X-17.9205Y-20.6589
X-17.9205Y-20.7589
X-17.9205Y-20.8951
X-17.9205Y-20.9951
X-17.9205Y-21.1313
X-17.9205Y-21.2313
X-17.9205Y-21.3675
X-17.9205Y-21.4675
X-17.8346Y-17.4409
X-17.8346Y-17.5394
X-17.412Y-21.8772
X-17.412Y-22.1772
X-17.4016Y-22.3031
X-17.3156Y-17.4882
X-17.312Y-21.8772
X-17.312Y-22.1772
X-17.3051Y-17.6142
X-17.3051Y-17.9142
X-17.3016Y-22.3031
X-17.2156Y-17.4882
X-17.2051Y-17.6142
X-17.2051Y-17.9142
X-17.1758Y-21.8772
X-17.1758Y-22.1772
X-17.1654Y-22.3031
X-17.0793Y-17.4882
X-17.0758Y-21.8772
X-17.0758Y-22.1772
X-17.0689Y-17.6142
X-17.0689Y-17.9142
X-17.0654Y-22.3031
X-16.9793Y-17.4882
X-16.9689Y-17.6142
X-16.9689Y-17.9142
X-16.9396Y-21.8772
X-16.9396Y-22.1772
X-16.9291Y-22.3031
X-16.8431Y-17.4882
X-16.8396Y-21.8772
X-16.8396Y-22.1772
X-16.8297Y-17.6142
X-16.8297Y-17.9142
X-16.8291Y-22.3031
X-16.7431Y-17.4882
X-16.7297Y-17.6142
X-16.7297Y-17.9142
X-16.7033Y-21.8772
X-16.7033Y-22.1772
X-16.6929Y-22.3031
X-16.6069Y-17.4882
X-16.6033Y-21.8772
X-16.6033Y-22.1772
X-16.5965Y-17.6142
X-16.5965Y-17.9142
X-16.5929Y-22.3031
X-16.5069Y-17.4882
X-16.4965Y-17.6142
X-16.4965Y-17.9142
X-16.4671Y-21.8772
X-16.4671Y-22.1772
X-16.4567Y-22.3031
X-16.3671Y-21.8772
X-16.3671Y-22.1772
X-16.3598Y-17.6134
X-16.3598Y-17.9134
X-16.3567Y-22.3031
X-16.2598Y-17.6134
X-16.2598Y-17.9134
X-16.2309Y-21.8772
X-16.2309Y-22.1772
X-16.2205Y-22.3031
X-16.1309Y-21.8772
X-16.1309Y-22.1772
X-16.1236Y-17.6134
X-16.1236Y-17.9134
X-16.1205Y-22.3031
X-16.0236Y-17.6134
X-16.0236Y-17.9134
X-15.9947Y-21.8772
X-15.9947Y-22.1772
X-15.9843Y-22.3031
X-15.8947Y-21.8772
X-15.8947Y-22.1772
X-15.8874Y-17.6134
X-15.8874Y-17.9134
X-15.8843Y-22.3031
X-15.7874Y-17.6134
X-15.7874Y-17.9134
X-15.7585Y-21.8772
X-15.7585Y-22.1772
X-15.748Y-22.3031
X-15.6585Y-21.8772
X-15.6585Y-22.1772
X-15.6512Y-17.6134
X-15.6512Y-17.9134
X-15.648Y-22.3031
X-15.5512Y-17.6134
X-15.5512Y-17.9134
X-15.5222Y-21.8772
X-15.5222Y-22.1772
X-15.5118Y-22.3031
X-15.4222Y-21.8772
X-15.4222Y-22.1772
X-15.415Y-17.6134
X-15.415Y-17.9134
X-15.4118Y-22.3031
X-15.315Y-17.6134
X-15.315Y-17.9134
X-15.286Y-21.8772
X-15.286Y-22.1772
X-15.2756Y-22.3031
X-15.186Y-21.8772
X-15.186Y-22.1772
X-15.1787Y-17.6134
X-15.1787Y-17.9134
X-15.1756Y-22.3031
X-15.0787Y-17.6134
X-15.0787Y-17.9134
X-15.0498Y-21.8772
X-15.0498Y-22.1772
X-15.0394Y-22.3031
X-14.9498Y-21.8772
X-14.9498Y-22.1772
X-14.9425Y-17.6134
X-14.9425Y-17.9134
X-14.9394Y-22.3031
X-14.8425Y-17.6134
X-14.8425Y-17.9134
X-14.8136Y-21.8772
X-14.8136Y-22.1772
X-14.8031Y-22.3031
X-14.7136Y-21.8772
X-14.7136Y-22.1772
X-14.7063Y-17.6134
X-14.7063Y-17.9134
X-14.7031Y-22.3031
X-14.6063Y-17.6134
X-14.6063Y-17.9134
X-14.5774Y-21.8772
X-14.5774Y-22.1772
X-14.5669Y-22.3031
X-14.4774Y-21.8772
X-14.4774Y-22.1772
X-14.4701Y-17.6134
X-14.4701Y-17.9134
X-14.4669Y-22.3031
X-14.3701Y-17.6134
X-14.3701Y-17.9134
X-14.3411Y-21.8772
X-14.3411Y-22.1772
X-14.3307Y-22.3031
X-14.2411Y-21.8772
X-14.2411Y-22.1772
X-14.2339Y-17.6134
X-14.2339Y-17.9134
X-14.2307Y-22.3031
X-14.1339Y-17.6134
X-14.1339Y-17.9134
X-14.1049Y-21.8772
X-14.1049Y-22.1772
X-14.0945Y-22.3031
X-14.0049Y-21.8772
X-14.0049Y-22.1772
X-13.9976Y-17.6134
X-13.9976Y-17.9134
X-13.9945Y-22.3031
X-13.8976Y-17.6134
X-13.8976Y-17.9134
X-13.8687Y-21.8772
X-13.8687Y-22.1772
X-13.8583Y-22.3031
X-13.7687Y-21.8772
X-13.7687Y-22.1772
X-13.7614Y-17.6134
X-13.7614Y-17.9134
X-13.7583Y-22.3031
X-13.6614Y-17.6134
X-13.6614Y-17.9134
X-13.6325Y-21.8772
X-13.6325Y-22.1772
X-13.622Y-22.3031
X-13.5325Y-21.8772
X-13.5325Y-22.1772
X-13.5252Y-17.6134
X-13.5252Y-17.9134
X-13.522Y-22.3031
X-13.4252Y-17.6134
X-13.4252Y-17.9134
X-13.3963Y-21.8772
X-13.3963Y-22.1772
X-13.3858Y-22.3031
X-13.2963Y-21.8772
X-13.2963Y-22.1772
X-13.289Y-17.6134
X-13.289Y-17.9134
X-13.2858Y-22.3031
X-13.189Y-17.6134
X-13.189Y-17.9134
X-13.16Y-21.8772
X-13.16Y-22.1772
X-13.1496Y-22.3031
X-13.06Y-21.8772
X-13.06Y-22.1772
X-13.0528Y-17.6134
X-13.0528Y-17.9134
X-13.0496Y-22.3031
X-12.9528Y-17.6134
X-12.9528Y-17.9134
X-12.9238Y-21.8772
X-12.9238Y-22.1772
X-12.9134Y-22.3031
X-12.8238Y-21.8772
X-12.8238Y-22.1772
X-12.8165Y-17.6134
X-12.8165Y-17.9134
X-12.8134Y-22.3031
X-12.7165Y-17.6134
X-12.7165Y-17.9134
X-12.6876Y-21.8772
X-12.6876Y-22.1772
X-12.6772Y-22.3031
X-12.5876Y-21.8772
X-12.5876Y-22.1772
X-12.5803Y-17.6134
X-12.5803Y-17.9134
X-12.5772Y-22.3031
X-12.4803Y-17.6134
X-12.4803Y-17.9134
X-11.8433Y-18.1968
X-11.8433Y-18.2968
X-11.8433Y-18.433
X-11.8433Y-18.533
X-11.8433Y-18.6692
X-11.8433Y-18.7692
X-11.8433Y-20.3223
X-11.8433Y-20.4223
X-11.8433Y-20.5586
X-11.8433Y-20.6586
X-11.8433Y-20.7948
X-11.8433Y-20.8948
X-11.8433Y-21.031
X-11.8433Y-21.131
X-11.8433Y-21.2672
X-11.8433Y-21.3672
X-11.8433Y-21.5034
X-11.8433Y-21.6034
X-11.8433Y-21.7397
X-11.8433Y-21.8397
X-11.8425Y-18.9054
X-11.8425Y-19.0054
X-11.8425Y-19.1416
X-11.8425Y-19.2416
X-11.8425Y-19.3779
X-11.8425Y-19.4779
X-11.8425Y-19.6141
X-11.8425Y-19.7141
X-11.8425Y-19.8503
X-11.8425Y-19.9503
X-11.8425Y-20.0865
X-11.8425Y-20.1865
X-11.5433Y-18.1968
X-11.5433Y-18.2968
X-11.5433Y-18.433
X-11.5433Y-18.533
X-11.5433Y-18.6692
X-11.5433Y-18.7692
X-11.5433Y-20.3223
X-11.5433Y-20.4223
X-11.5433Y-20.5586
X-11.5433Y-20.6586
X-11.5433Y-20.7948
X-11.5433Y-20.8948
X-11.5433Y-21.031
X-11.5433Y-21.131
X-11.5433Y-21.2672
X-11.5433Y-21.3672
X-11.5433Y-21.5034
X-11.5433Y-21.6034
X-11.5433Y-21.7397
X-11.5433Y-21.8397
X-11.5425Y-18.9054
X-11.5425Y-19.0054
X-11.5425Y-19.1416
X-11.5425Y-19.2416
X-11.5425Y-19.3779
X-11.5425Y-19.4779
X-11.5425Y-19.6141
X-11.5425Y-19.7141
X-11.5425Y-19.8503
X-11.5425Y-19.9503
X-11.5425Y-20.0865
X-11.5425Y-20.1865
X-11.4252Y-20.3119
X-11.4252Y-20.4119
X-11.4252Y-20.5481
X-11.4252Y-20.6481
X-11.4252Y-20.7844
X-11.4252Y-20.8844
X-11.4252Y-21.0206
X-11.4252Y-21.1206
X-11.4252Y-21.2568
X-11.4252Y-21.3568
X-11.4252Y-21.493
X-11.4252Y-21.593
X-11.4252Y-21.7292
X-11.4252Y-21.8292
T3
X-17.8165Y-18.1102
X-17.8165Y-18.3465
X-17.8165Y-18.5827
X-17.8165Y-18.8189
X-17.8165Y-19.0551
X-17.8165Y-19.2913
X-17.8165Y-19.5276
X-17.8165Y-19.7638
X-17.8165Y-20.0
X-17.8165Y-20.2362
X-17.8165Y-20.4724
X-17.8165Y-20.7087
X-17.8165Y-20.9449
X-17.8165Y-21.1811
X-17.8165Y-21.4173
X-17.7165Y-18.1102
X-17.7165Y-18.3465
X-17.7165Y-18.5827
X-17.7165Y-18.8189
X-17.7165Y-19.0551
X-17.7165Y-19.2913
X-17.7165Y-19.5276
X-17.7165Y-19.7638
X-17.7165Y-20.0
X-17.7165Y-20.2362
X-17.7165Y-20.4724
X-17.7165Y-20.7087
X-17.7165Y-20.9449
X-17.7165Y-21.1811
X-17.7165Y-21.4173
X-17.3622Y-21.6732
X-17.3622Y-21.7732
X-17.2549Y-18.0181
X-17.2549Y-18.1181
X-17.126Y-21.6732
X-17.126Y-21.7732
X-17.0187Y-18.0181
X-17.0187Y-18.1181
X-16.8898Y-21.6732
X-16.8898Y-21.7732
X-16.7825Y-18.0181
X-16.7825Y-18.1181
X-16.6535Y-21.6732
X-16.6535Y-21.7732
X-16.5463Y-18.0181
X-16.5463Y-18.1181
X-16.4173Y-21.6732
X-16.4173Y-21.7732
X-16.31Y-18.0181
X-16.31Y-18.1181
X-16.1811Y-21.6732
X-16.1811Y-21.7732
X-16.0738Y-18.0181
X-16.0738Y-18.1181
X-15.9449Y-21.6732
X-15.9449Y-21.7732
X-15.8376Y-18.0181
X-15.8376Y-18.1181
X-15.7087Y-21.6732
X-15.7087Y-21.7732
X-15.6014Y-18.0181
X-15.6014Y-18.1181
X-15.4724Y-21.6732
X-15.4724Y-21.7732
X-15.3652Y-18.0181
X-15.3652Y-18.1181
X-15.2362Y-21.6732
X-15.2362Y-21.7732
X-15.1289Y-18.0181
X-15.1289Y-18.1181
X-15.0Y-21.6732
X-15.0Y-21.7732
X-14.8927Y-18.0181
X-14.8927Y-18.1181
X-14.7638Y-21.6732
X-14.7638Y-21.7732
X-14.6565Y-18.0181
X-14.6565Y-18.1181
X-14.5276Y-21.6732
X-14.5276Y-21.7732
X-14.4203Y-18.0181
X-14.4203Y-18.1181
X-14.2913Y-21.6732
X-14.2913Y-21.7732
X-14.1841Y-18.0181
X-14.1841Y-18.1181
X-14.0551Y-21.6732
X-14.0551Y-21.7732
X-13.9478Y-18.0181
X-13.9478Y-18.1181
X-13.8189Y-21.6732
X-13.8189Y-21.7732
X-13.7116Y-18.0181
X-13.7116Y-18.1181
X-13.5827Y-21.6732
X-13.5827Y-21.7732
X-13.4754Y-18.0181
X-13.4754Y-18.1181
X-13.3465Y-21.6732
X-13.3465Y-21.7732
X-13.2392Y-18.0181
X-13.2392Y-18.1181
X-13.1102Y-21.6732
X-13.1102Y-21.7732
X-13.003Y-18.0181
X-13.003Y-18.1181
X-12.874Y-21.6732
X-12.874Y-21.7732
X-12.7667Y-18.0181
X-12.7667Y-18.1181
X-12.6378Y-21.6732
X-12.6378Y-21.7732
X-12.5305Y-18.0181
X-12.5305Y-18.1181
X-12.048Y-18.2466
X-12.048Y-18.4828
X-12.048Y-18.719
X-12.048Y-18.9552
X-12.048Y-19.1914
X-12.048Y-19.4277
X-12.048Y-19.6639
X-12.048Y-19.9001
X-12.048Y-20.1363
X-12.048Y-20.3725
X-12.048Y-20.6088
X-12.048Y-20.845
X-12.048Y-21.0812
X-12.048Y-21.3174
X-12.048Y-21.5536
X-12.0472Y-21.7899
X-11.948Y-18.2466
X-11.948Y-18.4828
X-11.948Y-18.719
X-11.948Y-18.9552
X-11.948Y-19.1914
X-11.948Y-19.4277
X-11.948Y-19.6639
X-11.948Y-19.9001
X-11.948Y-20.1363
X-11.948Y-20.3725
X-11.948Y-20.6088
X-11.948Y-20.845
X-11.948Y-21.0812
X-11.948Y-21.3174
X-11.948Y-21.5536
X-11.9472Y-21.7899
T4
X-12.0041Y-17.2197
X-12.0041Y-17.3197
X-12.0041Y-17.4197
X-12.0041Y-17.5197
X-12.0041Y-17.6197
X-12.0041Y-17.7197
X-12.0041Y-17.8197
X-11.9041Y-17.9094
X-11.8041Y-17.9094
X-11.7041Y-17.9094
X-10.2037Y-17.1299
X-10.2037Y-17.9094
T5
X-14.7343Y-19.2913
X-14.6343Y-19.2913
X-14.5343Y-19.2913
X-14.4343Y-19.2913
X-14.3343Y-19.2913
T6
X-19.2189Y-18.1102
X-19.2189Y-18.3465
X-19.2189Y-18.5827
X-19.2189Y-18.8189
X-19.2189Y-19.0551
X-19.2189Y-19.2913
X-19.2189Y-19.5276
X-19.2189Y-19.7638
X-19.2189Y-20.0
X-19.2189Y-20.2362
X-19.2189Y-20.4724
X-19.2189Y-20.7087
X-19.2189Y-20.9449
X-19.2189Y-21.1811
X-19.2189Y-21.4173
X-18.8189Y-18.1102
X-18.8189Y-18.3465
X-18.8189Y-18.5827
X-18.8189Y-18.8189
X-18.8189Y-19.0551
X-18.8189Y-19.2913
X-18.8189Y-19.5276
X-18.8189Y-19.7638
X-18.8189Y-20.0
X-18.8189Y-20.2362
X-18.8189Y-20.4724
X-18.8189Y-20.7087
X-18.8189Y-20.9449
X-18.8189Y-21.1811
X-18.8189Y-21.4173
X-18.6636Y-16.5535
X-18.6636Y-16.6535
X-18.6636Y-16.7535
X-17.3622Y-22.7756
X-17.3622Y-23.1756
X-17.2549Y-16.6157
X-17.2549Y-17.0157
X-17.126Y-22.7756
X-17.126Y-23.1756
X-17.0187Y-16.6157
X-17.0187Y-17.0157
X-16.8898Y-22.7756
X-16.8898Y-23.1756
X-16.7825Y-16.6157
X-16.7825Y-17.0157
X-16.6535Y-22.7756
X-16.6535Y-23.1756
X-16.5463Y-16.6157
X-16.5463Y-17.0157
X-16.4173Y-22.7756
X-16.4173Y-23.1756
X-16.2992Y-16.611
X-16.2992Y-17.011
X-16.1811Y-22.7756
X-16.1811Y-23.1756
X-16.063Y-16.611
X-16.063Y-17.011
X-15.9449Y-22.7756
X-15.9449Y-23.1756
X-15.8268Y-16.6142
X-15.8268Y-17.0142
X-15.7087Y-22.7756
X-15.7087Y-23.1756
X-15.5906Y-16.6142
X-15.5906Y-17.0142
X-15.4724Y-22.7756
X-15.4724Y-23.1756
X-15.3543Y-16.6142
X-15.3543Y-17.0142
X-15.2362Y-22.7756
X-15.2362Y-23.1756
X-15.1181Y-16.6142
X-15.1181Y-17.0142
X-15.0Y-22.7756
X-15.0Y-23.1756
X-14.8819Y-16.6142
X-14.8819Y-17.0142
X-14.7638Y-22.7756
X-14.7638Y-23.1756
X-14.6457Y-16.6142
X-14.6457Y-17.0142
X-14.5276Y-22.7756
X-14.5276Y-23.1756
X-14.4094Y-16.6142
X-14.4094Y-17.0142
X-14.2913Y-22.7756
X-14.2913Y-23.1756
X-14.1732Y-16.611
X-14.1732Y-17.011
X-14.0551Y-22.7756
X-14.0551Y-23.1756
X-13.937Y-16.611
X-13.937Y-17.011
X-13.8189Y-22.7756
X-13.8189Y-23.1756
X-13.7008Y-16.611
X-13.7008Y-17.011
X-13.5827Y-22.7756
X-13.5827Y-23.1756
X-13.4646Y-16.611
X-13.4646Y-17.011
X-13.3465Y-22.7756
X-13.3465Y-23.1756
X-13.2283Y-16.611
X-13.2283Y-17.011
X-13.1102Y-22.7756
X-13.1102Y-23.1756
X-12.9921Y-16.611
X-12.9921Y-17.011
X-12.874Y-22.7756
X-12.874Y-23.1756
X-12.7559Y-16.6142
X-12.7559Y-17.0142
X-12.6378Y-22.7756
X-12.6378Y-23.1756
X-12.5197Y-16.6142
X-12.5197Y-17.0142
X-10.9528Y-20.3725
X-10.9528Y-20.6088
X-10.9528Y-20.845
X-10.9528Y-21.0812
X-10.9528Y-21.3174
X-10.9528Y-21.5536
X-10.9528Y-21.7899
X-10.9512Y-18.2677
X-10.9512Y-18.5039
X-10.9512Y-18.7402
X-10.9512Y-18.9764
X-10.9512Y-19.2126
X-10.9512Y-19.4488
X-10.9512Y-19.685
X-10.9512Y-19.9213
X-10.9512Y-20.1575
X-10.5528Y-20.3725
X-10.5528Y-20.6088
X-10.5528Y-20.845
X-10.5528Y-21.0812
X-10.5528Y-21.3174
X-10.5528Y-21.5536
X-10.5528Y-21.7899
X-10.5512Y-18.2677
X-10.5512Y-18.5039
X-10.5512Y-18.7402
X-10.5512Y-18.9764
X-10.5512Y-19.2126
X-10.5512Y-19.4488
X-10.5512Y-19.685
X-10.5512Y-19.9213
X-10.5512Y-20.1575
T7
X-19.5669Y-18.0236
X-19.5669Y-18.2205
X-19.5669Y-18.4173
X-19.5669Y-18.622
X-19.5669Y-18.8189
X-19.5669Y-19.0157
X-19.5669Y-19.2205
X-19.5669Y-19.4173
X-19.5669Y-19.6142
X-19.5669Y-19.8189
X-19.5669Y-20.0157
X-19.5669Y-20.2126
X-19.5669Y-20.4173
X-19.5669Y-20.6142
X-19.5669Y-20.811
X-19.5669Y-21.0157
X-19.5669Y-21.2126
X-19.5669Y-21.4094
X-16.8976Y-16.2992
X-16.7953Y-23.4961
X-16.7008Y-16.2992
X-16.5984Y-23.4961
X-16.5039Y-16.2992
X-16.4016Y-23.4961
X-16.2992Y-16.2992
X-16.1969Y-23.4961
X-16.1024Y-16.2992
X-16.0Y-23.4961
X-15.9055Y-16.2992
X-15.8031Y-23.4961
X-15.7008Y-16.2992
X-15.5984Y-23.4961
X-15.5039Y-16.2992
X-15.4016Y-23.4961
X-15.3071Y-16.2992
X-15.2047Y-23.4961
X-15.1024Y-16.2992
X-15.0Y-23.4961
X-14.9055Y-16.2992
X-14.8031Y-23.4961
X-14.7087Y-16.2992
X-14.6063Y-23.4961
X-14.5039Y-16.2992
X-14.4016Y-23.4961
X-14.3071Y-16.2992
X-14.2047Y-23.4961
X-14.1102Y-16.2992
X-14.0079Y-23.4961
X-13.9055Y-16.2992
X-13.8031Y-23.4961
X-13.7087Y-16.2992
X-13.6063Y-23.4961
X-13.5118Y-16.2992
X-13.4094Y-23.4961
X-13.3071Y-16.2992
X-13.2047Y-23.4961
X-13.1102Y-16.2992
X-13.0079Y-23.4961
X-12.9134Y-16.2992
X-12.811Y-23.4961
X-10.1969Y-18.6299
X-10.1969Y-18.8268
X-10.1969Y-19.0236
X-10.1969Y-19.2283
X-10.1969Y-19.4252
X-10.1969Y-19.622
X-10.1969Y-19.8268
X-10.1969Y-20.0236
X-10.1969Y-20.2205
X-10.1969Y-20.4252
X-10.1969Y-20.622
X-10.1969Y-20.8189
X-10.1969Y-21.0236
X-10.1969Y-21.2205
X-10.1969Y-21.4173
T0
M30
