%TF.GenerationSoftware,KiCad,Pcbnew,(6.0.9)*%
%TF.CreationDate,2023-01-18T11:33:35+02:00*%
%TF.ProjectId,SilosProject02,53696c6f-7350-4726-9f6a-65637430322e,rev?*%
%TF.SameCoordinates,Original*%
%TF.FileFunction,Soldermask,Bot*%
%TF.FilePolarity,Negative*%
%FSLAX46Y46*%
G04 Gerber Fmt 4.6, Leading zero omitted, Abs format (unit mm)*
G04 Created by KiCad (PCBNEW (6.0.9)) date 2023-01-18 11:33:35*
%MOMM*%
%LPD*%
G01*
G04 APERTURE LIST*
G04 Aperture macros list*
%AMRoundRect*
0 Rectangle with rounded corners*
0 $1 Rounding radius*
0 $2 $3 $4 $5 $6 $7 $8 $9 X,Y pos of 4 corners*
0 Add a 4 corners polygon primitive as box body*
4,1,4,$2,$3,$4,$5,$6,$7,$8,$9,$2,$3,0*
0 Add four circle primitives for the rounded corners*
1,1,$1+$1,$2,$3*
1,1,$1+$1,$4,$5*
1,1,$1+$1,$6,$7*
1,1,$1+$1,$8,$9*
0 Add four rect primitives between the rounded corners*
20,1,$1+$1,$2,$3,$4,$5,0*
20,1,$1+$1,$4,$5,$6,$7,0*
20,1,$1+$1,$6,$7,$8,$9,0*
20,1,$1+$1,$8,$9,$2,$3,0*%
G04 Aperture macros list end*
%ADD10RoundRect,0.250000X-0.625000X0.312500X-0.625000X-0.312500X0.625000X-0.312500X0.625000X0.312500X0*%
%ADD11C,2.500000*%
%ADD12R,1.600000X1.600000*%
%ADD13O,1.600000X1.600000*%
%ADD14RoundRect,0.250000X-0.450000X0.262500X-0.450000X-0.262500X0.450000X-0.262500X0.450000X0.262500X0*%
%ADD15R,2.200000X2.200000*%
%ADD16O,2.200000X2.200000*%
%ADD17RoundRect,0.250000X0.450000X-0.262500X0.450000X0.262500X-0.450000X0.262500X-0.450000X-0.262500X0*%
%ADD18R,1.800000X1.800000*%
%ADD19C,1.800000*%
%ADD20RoundRect,0.250000X0.625000X-0.312500X0.625000X0.312500X-0.625000X0.312500X-0.625000X-0.312500X0*%
%ADD21R,1.700000X1.700000*%
%ADD22O,1.700000X1.700000*%
%ADD23R,1.524000X1.524000*%
%ADD24C,1.524000*%
%ADD25RoundRect,0.250000X-0.262500X-0.450000X0.262500X-0.450000X0.262500X0.450000X-0.262500X0.450000X0*%
%ADD26RoundRect,0.250000X0.312500X0.625000X-0.312500X0.625000X-0.312500X-0.625000X0.312500X-0.625000X0*%
%ADD27RoundRect,0.250000X0.262500X0.450000X-0.262500X0.450000X-0.262500X-0.450000X0.262500X-0.450000X0*%
%ADD28RoundRect,0.250000X-0.312500X-0.625000X0.312500X-0.625000X0.312500X0.625000X-0.312500X0.625000X0*%
%ADD29C,1.600000*%
%ADD30RoundRect,0.150000X0.150000X-0.875000X0.150000X0.875000X-0.150000X0.875000X-0.150000X-0.875000X0*%
%ADD31R,2.000000X1.905000*%
%ADD32O,2.000000X1.905000*%
%ADD33RoundRect,0.150000X-0.875000X-0.150000X0.875000X-0.150000X0.875000X0.150000X-0.875000X0.150000X0*%
G04 APERTURE END LIST*
D10*
%TO.C,R20*%
X-472000000Y-512537500D03*
X-472000000Y-515462500D03*
%TD*%
D11*
%TO.C,J13*%
X-340600000Y-596800000D03*
X-345600000Y-596800000D03*
X-350600000Y-596800000D03*
%TD*%
D10*
%TO.C,R34*%
X-472000000Y-494537500D03*
X-472000000Y-497462500D03*
%TD*%
D12*
%TO.C,D113*%
X-346000000Y-566500000D03*
D13*
X-343460000Y-566500000D03*
%TD*%
D14*
%TO.C,R218*%
X-287200000Y-528550000D03*
X-287200000Y-530375000D03*
%TD*%
D12*
%TO.C,D151*%
X-425275000Y-444200000D03*
D13*
X-427815000Y-444200000D03*
%TD*%
D15*
%TO.C,D87*%
X-411000000Y-578500000D03*
D16*
X-411000000Y-588660000D03*
%TD*%
D12*
%TO.C,U29*%
X-385725000Y-563300000D03*
D13*
X-388265000Y-563300000D03*
X-388265000Y-555680000D03*
X-385725000Y-555680000D03*
%TD*%
D17*
%TO.C,R31*%
X-469000000Y-520912500D03*
X-469000000Y-519087500D03*
%TD*%
D15*
%TO.C,D176*%
X-420275000Y-432200000D03*
D16*
X-420275000Y-422040000D03*
%TD*%
D12*
%TO.C,D167*%
X-437275000Y-444200000D03*
D13*
X-439815000Y-444200000D03*
%TD*%
D18*
%TO.C,D189*%
X-360275000Y-460200000D03*
D19*
X-360275000Y-457660000D03*
%TD*%
D11*
%TO.C,J21*%
X-353200000Y-414000000D03*
X-348200000Y-414000000D03*
X-343200000Y-414000000D03*
%TD*%
D18*
%TO.C,D169*%
X-306020000Y-463462500D03*
D19*
X-303480000Y-463462500D03*
%TD*%
D12*
%TO.C,U69*%
X-329000000Y-455000000D03*
D13*
X-331540000Y-455000000D03*
X-331540000Y-447380000D03*
X-329000000Y-447380000D03*
%TD*%
D15*
%TO.C,D70*%
X-399000000Y-578500000D03*
D16*
X-399000000Y-588660000D03*
%TD*%
D20*
%TO.C,R223*%
X-284200000Y-530925000D03*
X-284200000Y-528000000D03*
%TD*%
D12*
%TO.C,U8*%
X-462800000Y-461275000D03*
D13*
X-462800000Y-458735000D03*
X-455180000Y-458735000D03*
X-455180000Y-461275000D03*
%TD*%
D12*
%TO.C,U9*%
X-462800000Y-491275000D03*
D13*
X-462800000Y-488735000D03*
X-455180000Y-488735000D03*
X-455180000Y-491275000D03*
%TD*%
D12*
%TO.C,U26*%
X-391725000Y-563300000D03*
D13*
X-394265000Y-563300000D03*
X-394265000Y-555680000D03*
X-391725000Y-555680000D03*
%TD*%
D18*
%TO.C,D158*%
X-432275000Y-460200000D03*
D19*
X-432275000Y-457660000D03*
%TD*%
D11*
%TO.C,J9*%
X-401400000Y-596800000D03*
X-406400000Y-596800000D03*
X-411400000Y-596800000D03*
%TD*%
D18*
%TO.C,D36*%
X-450000000Y-514000000D03*
D19*
X-452540000Y-514000000D03*
%TD*%
D15*
%TO.C,D136*%
X-278200000Y-541462500D03*
D16*
X-268040000Y-541462500D03*
%TD*%
D15*
%TO.C,D38*%
X-478000000Y-466000000D03*
D16*
X-488160000Y-466000000D03*
%TD*%
D17*
%TO.C,R16*%
X-469000000Y-514912500D03*
X-469000000Y-513087500D03*
%TD*%
D18*
%TO.C,D166*%
X-438275000Y-460200000D03*
D19*
X-438275000Y-457660000D03*
%TD*%
D21*
%TO.C,J1*%
X-374250000Y-490000000D03*
D22*
X-371710000Y-490000000D03*
X-369170000Y-490000000D03*
X-366630000Y-490000000D03*
X-364090000Y-490000000D03*
%TD*%
D15*
%TO.C,D30*%
X-478000000Y-490000000D03*
D16*
X-488160000Y-490000000D03*
%TD*%
D20*
%TO.C,R237*%
X-284200000Y-524925000D03*
X-284200000Y-522000000D03*
%TD*%
D12*
%TO.C,U57*%
X-300800000Y-488737500D03*
D13*
X-300800000Y-486197500D03*
X-293180000Y-486197500D03*
X-293180000Y-488737500D03*
%TD*%
D11*
%TO.C,J19*%
X-259000000Y-473200000D03*
X-259000000Y-478200000D03*
X-259000000Y-483200000D03*
%TD*%
D12*
%TO.C,D76*%
X-400000000Y-566500000D03*
D13*
X-397460000Y-566500000D03*
%TD*%
D12*
%TO.C,U50*%
X-300820000Y-476737500D03*
D13*
X-300820000Y-474197500D03*
X-293200000Y-474197500D03*
X-293200000Y-476737500D03*
%TD*%
D12*
%TO.C,D111*%
X-376000000Y-566500000D03*
D13*
X-373460000Y-566500000D03*
%TD*%
D17*
%TO.C,R40*%
X-469000000Y-472912500D03*
X-469000000Y-471087500D03*
%TD*%
D14*
%TO.C,R246*%
X-287200000Y-516550000D03*
X-287200000Y-518375000D03*
%TD*%
D12*
%TO.C,U38*%
X-337725000Y-563300000D03*
D13*
X-340265000Y-563300000D03*
X-340265000Y-555680000D03*
X-337725000Y-555680000D03*
%TD*%
D12*
%TO.C,U42*%
X-293200000Y-546187500D03*
D13*
X-293200000Y-548727500D03*
X-300820000Y-548727500D03*
X-300820000Y-546187500D03*
%TD*%
D15*
%TO.C,D47*%
X-478000000Y-472000000D03*
D16*
X-488160000Y-472000000D03*
%TD*%
D15*
%TO.C,D49*%
X-478000000Y-526000000D03*
D16*
X-488160000Y-526000000D03*
%TD*%
D12*
%TO.C,D142*%
X-290200000Y-542462500D03*
D13*
X-290200000Y-539922500D03*
%TD*%
D15*
%TO.C,D14*%
X-342000000Y-421920000D03*
D16*
X-342000000Y-432080000D03*
%TD*%
D12*
%TO.C,U25*%
X-415725000Y-563300000D03*
D13*
X-418265000Y-563300000D03*
X-418265000Y-555680000D03*
X-415725000Y-555680000D03*
%TD*%
D11*
%TO.C,J17*%
X-259000000Y-503600000D03*
X-259000000Y-508600000D03*
X-259000000Y-513600000D03*
%TD*%
%TO.C,J6*%
X-497000000Y-513400000D03*
X-497000000Y-508400000D03*
X-497000000Y-503400000D03*
%TD*%
D12*
%TO.C,D115*%
X-322000000Y-566500000D03*
D13*
X-319460000Y-566500000D03*
%TD*%
D15*
%TO.C,D10*%
X-318000000Y-422000000D03*
D16*
X-318000000Y-432160000D03*
%TD*%
D15*
%TO.C,D18*%
X-366000000Y-422000000D03*
D16*
X-366000000Y-432160000D03*
%TD*%
D23*
%TO.C,A1*%
X-304905000Y-437380000D03*
D24*
X-304905000Y-439920000D03*
X-259175000Y-454900000D03*
X-259175000Y-435100000D03*
X-304905000Y-442460000D03*
X-304905000Y-445000000D03*
X-304905000Y-447540000D03*
X-304905000Y-450080000D03*
X-304905000Y-452620000D03*
X-297285000Y-454900000D03*
X-299825000Y-454900000D03*
X-302365000Y-454900000D03*
%TD*%
D20*
%TO.C,R249*%
X-284200000Y-518925000D03*
X-284200000Y-516000000D03*
%TD*%
D18*
%TO.C,D192*%
X-342275000Y-460200000D03*
D19*
X-342275000Y-457660000D03*
%TD*%
D12*
%TO.C,D51*%
X-466000000Y-471000000D03*
D13*
X-466000000Y-473540000D03*
%TD*%
D20*
%TO.C,R209*%
X-284200000Y-536925000D03*
X-284200000Y-534000000D03*
%TD*%
D18*
%TO.C,D187*%
X-402275000Y-460200000D03*
D19*
X-402275000Y-457660000D03*
%TD*%
D12*
%TO.C,D173*%
X-290200000Y-518462500D03*
D13*
X-290200000Y-515922500D03*
%TD*%
D15*
%TO.C,D23*%
X-396000000Y-422000000D03*
D16*
X-396000000Y-432160000D03*
%TD*%
D15*
%TO.C,D13*%
X-336000000Y-421920000D03*
D16*
X-336000000Y-432080000D03*
%TD*%
D12*
%TO.C,D101*%
X-406000000Y-566500000D03*
D13*
X-403460000Y-566500000D03*
%TD*%
D12*
%TO.C,U36*%
X-319725000Y-563300000D03*
D13*
X-322265000Y-563300000D03*
X-322265000Y-555680000D03*
X-319725000Y-555680000D03*
%TD*%
D17*
%TO.C,R25*%
X-469000000Y-466912500D03*
X-469000000Y-465087500D03*
%TD*%
D15*
%TO.C,D143*%
X-351000000Y-578500000D03*
D16*
X-351000000Y-588660000D03*
%TD*%
D18*
%TO.C,D73*%
X-423000000Y-550500000D03*
D19*
X-423000000Y-553040000D03*
%TD*%
D18*
%TO.C,D194*%
X-390275000Y-460200000D03*
D19*
X-390275000Y-457660000D03*
%TD*%
D15*
%TO.C,D154*%
X-278200000Y-529462500D03*
D16*
X-268040000Y-529462500D03*
%TD*%
D17*
%TO.C,R46*%
X-469000000Y-526912500D03*
X-469000000Y-525087500D03*
%TD*%
D18*
%TO.C,D112*%
X-345000000Y-550500000D03*
D19*
X-345000000Y-553040000D03*
%TD*%
D15*
%TO.C,D12*%
X-330000000Y-421920000D03*
D16*
X-330000000Y-432080000D03*
%TD*%
D12*
%TO.C,U80*%
X-413000000Y-455000000D03*
D13*
X-415540000Y-455000000D03*
X-415540000Y-447380000D03*
X-413000000Y-447380000D03*
%TD*%
D18*
%TO.C,D150*%
X-426275000Y-460200000D03*
D19*
X-426275000Y-457660000D03*
%TD*%
D12*
%TO.C,U37*%
X-367725000Y-563300000D03*
D13*
X-370265000Y-563300000D03*
X-370265000Y-555680000D03*
X-367725000Y-555680000D03*
%TD*%
D17*
%TO.C,R68*%
X-469000000Y-484912500D03*
X-469000000Y-483087500D03*
%TD*%
D12*
%TO.C,U24*%
X-462800000Y-545275000D03*
D13*
X-462800000Y-542735000D03*
X-455180000Y-542735000D03*
X-455180000Y-545275000D03*
%TD*%
D18*
%TO.C,D174*%
X-306020000Y-481462500D03*
D19*
X-303480000Y-481462500D03*
%TD*%
D11*
%TO.C,J26*%
X-429200000Y-414000000D03*
X-424200000Y-414000000D03*
X-419200000Y-414000000D03*
%TD*%
D20*
%TO.C,R165*%
X-284200000Y-554925000D03*
X-284200000Y-552000000D03*
%TD*%
D15*
%TO.C,D127*%
X-278200000Y-547462500D03*
D16*
X-268040000Y-547462500D03*
%TD*%
D18*
%TO.C,D63*%
X-450000000Y-532000000D03*
D19*
X-452540000Y-532000000D03*
%TD*%
D25*
%TO.C,R207*%
X-427187500Y-441200000D03*
X-425362500Y-441200000D03*
%TD*%
D12*
%TO.C,U13*%
X-462800000Y-521275000D03*
D13*
X-462800000Y-518735000D03*
X-455180000Y-518735000D03*
X-455180000Y-521275000D03*
%TD*%
D15*
%TO.C,D65*%
X-478000000Y-484000000D03*
D16*
X-488160000Y-484000000D03*
%TD*%
D12*
%TO.C,U70*%
X-353000000Y-455000000D03*
D13*
X-355540000Y-455000000D03*
X-355540000Y-447380000D03*
X-353000000Y-447380000D03*
%TD*%
D18*
%TO.C,D141*%
X-306020000Y-541462500D03*
D19*
X-303480000Y-541462500D03*
%TD*%
D15*
%TO.C,D86*%
X-441000000Y-578500000D03*
D16*
X-441000000Y-588660000D03*
%TD*%
D12*
%TO.C,D138*%
X-358000000Y-566500000D03*
D13*
X-355460000Y-566500000D03*
%TD*%
D10*
%TO.C,R33*%
X-472000000Y-464537500D03*
X-472000000Y-467462500D03*
%TD*%
D17*
%TO.C,R61*%
X-469000000Y-532912500D03*
X-469000000Y-531087500D03*
%TD*%
D15*
%TO.C,D107*%
X-375000000Y-578500000D03*
D16*
X-375000000Y-588660000D03*
%TD*%
D12*
%TO.C,U27*%
X-439725000Y-563300000D03*
D13*
X-442265000Y-563300000D03*
X-442265000Y-555680000D03*
X-439725000Y-555680000D03*
%TD*%
D12*
%TO.C,D106*%
X-430000000Y-566500000D03*
D13*
X-427460000Y-566500000D03*
%TD*%
D26*
%TO.C,R224*%
X-430812500Y-438200000D03*
X-433737500Y-438200000D03*
%TD*%
D17*
%TO.C,R75*%
X-469000000Y-538912500D03*
X-469000000Y-537087500D03*
%TD*%
D12*
%TO.C,U76*%
X-407000000Y-455000000D03*
D13*
X-409540000Y-455000000D03*
X-409540000Y-447380000D03*
X-407000000Y-447380000D03*
%TD*%
D12*
%TO.C,U21*%
X-462800000Y-539275000D03*
D13*
X-462800000Y-536735000D03*
X-455180000Y-536735000D03*
X-455180000Y-539275000D03*
%TD*%
D18*
%TO.C,D32*%
X-450000000Y-460000000D03*
D19*
X-452540000Y-460000000D03*
%TD*%
D15*
%TO.C,D146*%
X-278200000Y-535462500D03*
D16*
X-268040000Y-535462500D03*
%TD*%
D27*
%TO.C,R81*%
X-398087500Y-569500000D03*
X-399912500Y-569500000D03*
%TD*%
D15*
%TO.C,D117*%
X-339000000Y-578500000D03*
D16*
X-339000000Y-588660000D03*
%TD*%
D11*
%TO.C,J18*%
X-259000000Y-488400000D03*
X-259000000Y-493400000D03*
X-259000000Y-498400000D03*
%TD*%
D18*
%TO.C,D119*%
X-369000000Y-550500000D03*
D19*
X-369000000Y-553040000D03*
%TD*%
D15*
%TO.C,D95*%
X-435000000Y-578500000D03*
D16*
X-435000000Y-588660000D03*
%TD*%
D18*
%TO.C,D193*%
X-366275000Y-460200000D03*
D19*
X-366275000Y-457660000D03*
%TD*%
D27*
%TO.C,R120*%
X-434087500Y-569500000D03*
X-435912500Y-569500000D03*
%TD*%
D15*
%TO.C,D58*%
X-478000000Y-532000000D03*
D16*
X-488160000Y-532000000D03*
%TD*%
D12*
%TO.C,U43*%
X-355725000Y-563300000D03*
D13*
X-358265000Y-563300000D03*
X-358265000Y-555680000D03*
X-355725000Y-555680000D03*
%TD*%
D12*
%TO.C,U20*%
X-462800000Y-485275000D03*
D13*
X-462800000Y-482735000D03*
X-455180000Y-482735000D03*
X-455180000Y-485275000D03*
%TD*%
D28*
%TO.C,R128*%
X-436462500Y-572500000D03*
X-433537500Y-572500000D03*
%TD*%
D12*
%TO.C,D94*%
X-388000000Y-566500000D03*
D13*
X-385460000Y-566500000D03*
%TD*%
D28*
%TO.C,R130*%
X-382462500Y-572500000D03*
X-379537500Y-572500000D03*
%TD*%
D15*
%TO.C,D1*%
X-268000000Y-512000000D03*
D16*
X-278160000Y-512000000D03*
%TD*%
D18*
%TO.C,D195*%
X-414275000Y-460200000D03*
D19*
X-414275000Y-457660000D03*
%TD*%
D11*
%TO.C,J7*%
X-497000000Y-543800000D03*
X-497000000Y-538800000D03*
X-497000000Y-533800000D03*
%TD*%
D15*
%TO.C,D125*%
X-363000000Y-578500000D03*
D16*
X-363000000Y-588660000D03*
%TD*%
D12*
%TO.C,U75*%
X-383000000Y-455000000D03*
D13*
X-385540000Y-455000000D03*
X-385540000Y-447380000D03*
X-383000000Y-447380000D03*
%TD*%
D27*
%TO.C,R108*%
X-410087500Y-569500000D03*
X-411912500Y-569500000D03*
%TD*%
%TO.C,R173*%
X-332087500Y-569500000D03*
X-333912500Y-569500000D03*
%TD*%
D15*
%TO.C,D108*%
X-345000000Y-578500000D03*
D16*
X-345000000Y-588660000D03*
%TD*%
D18*
%TO.C,D172*%
X-306020000Y-517462500D03*
D19*
X-303480000Y-517462500D03*
%TD*%
D15*
%TO.C,D155*%
X-432275000Y-432200000D03*
D16*
X-432275000Y-422040000D03*
%TD*%
D18*
%TO.C,D80*%
X-450000000Y-544000000D03*
D19*
X-452540000Y-544000000D03*
%TD*%
D12*
%TO.C,D145*%
X-352000000Y-566500000D03*
D13*
X-349460000Y-566500000D03*
%TD*%
D27*
%TO.C,R126*%
X-380087500Y-569500000D03*
X-381912500Y-569500000D03*
%TD*%
D18*
%TO.C,D130*%
X-333000000Y-550500000D03*
D19*
X-333000000Y-553040000D03*
%TD*%
D12*
%TO.C,U72*%
X-401000000Y-455000000D03*
D13*
X-403540000Y-455000000D03*
X-403540000Y-447380000D03*
X-401000000Y-447380000D03*
%TD*%
D12*
%TO.C,U56*%
X-439550000Y-447400000D03*
D13*
X-437010000Y-447400000D03*
X-437010000Y-455020000D03*
X-439550000Y-455020000D03*
%TD*%
D25*
%TO.C,R221*%
X-433187500Y-441200000D03*
X-431362500Y-441200000D03*
%TD*%
D18*
%TO.C,D182*%
X-372275000Y-460200000D03*
D19*
X-372275000Y-457660000D03*
%TD*%
D12*
%TO.C,D85*%
X-394000000Y-566500000D03*
D13*
X-391460000Y-566500000D03*
%TD*%
D18*
%TO.C,D75*%
X-399000000Y-550500000D03*
D19*
X-399000000Y-553040000D03*
%TD*%
D14*
%TO.C,R232*%
X-287200000Y-522550000D03*
X-287200000Y-524375000D03*
%TD*%
D12*
%TO.C,U73*%
X-335000000Y-455000000D03*
D13*
X-337540000Y-455000000D03*
X-337540000Y-447380000D03*
X-335000000Y-447380000D03*
%TD*%
D11*
%TO.C,J24*%
X-398800000Y-414000000D03*
X-393800000Y-414000000D03*
X-388800000Y-414000000D03*
%TD*%
D18*
%TO.C,D82*%
X-417000000Y-550500000D03*
D19*
X-417000000Y-553040000D03*
%TD*%
D18*
%TO.C,D156*%
X-306020000Y-529462500D03*
D19*
X-303480000Y-529462500D03*
%TD*%
D27*
%TO.C,R123*%
X-404087500Y-569500000D03*
X-405912500Y-569500000D03*
%TD*%
D18*
%TO.C,D180*%
X-324275000Y-460200000D03*
D19*
X-324275000Y-457660000D03*
%TD*%
D10*
%TO.C,R18*%
X-472000000Y-458537500D03*
X-472000000Y-461462500D03*
%TD*%
D12*
%TO.C,U63*%
X-300800000Y-506737500D03*
D13*
X-300800000Y-504197500D03*
X-293180000Y-504197500D03*
X-293180000Y-506737500D03*
%TD*%
D12*
%TO.C,D53*%
X-466000000Y-501000000D03*
D13*
X-466000000Y-503540000D03*
%TD*%
D10*
%TO.C,R50*%
X-472000000Y-524537500D03*
X-472000000Y-527462500D03*
%TD*%
D12*
%TO.C,U60*%
X-293200000Y-516187500D03*
D13*
X-293200000Y-518727500D03*
X-300820000Y-518727500D03*
X-300820000Y-516187500D03*
%TD*%
D12*
%TO.C,U58*%
X-300820000Y-464737500D03*
D13*
X-300820000Y-462197500D03*
X-293200000Y-462197500D03*
X-293200000Y-464737500D03*
%TD*%
D12*
%TO.C,U14*%
X-462800000Y-473275000D03*
D13*
X-462800000Y-470735000D03*
X-455180000Y-470735000D03*
X-455180000Y-473275000D03*
%TD*%
D12*
%TO.C,D131*%
X-334000000Y-566500000D03*
D13*
X-331460000Y-566500000D03*
%TD*%
D12*
%TO.C,U17*%
X-462800000Y-479275000D03*
D13*
X-462800000Y-476735000D03*
X-455180000Y-476735000D03*
X-455180000Y-479275000D03*
%TD*%
D15*
%TO.C,D8*%
X-268000000Y-470000000D03*
D16*
X-278160000Y-470000000D03*
%TD*%
D18*
%TO.C,D61*%
X-450000000Y-508000000D03*
D19*
X-452540000Y-508000000D03*
%TD*%
D15*
%TO.C,D9*%
X-268000000Y-464000000D03*
D16*
X-278160000Y-464000000D03*
%TD*%
D18*
%TO.C,D177*%
X-306020000Y-505462500D03*
D19*
X-303480000Y-505462500D03*
%TD*%
D12*
%TO.C,D67*%
X-466000000Y-483000000D03*
D13*
X-466000000Y-485540000D03*
%TD*%
D29*
%TO.C,C16*%
X-469000000Y-441500000D03*
X-469000000Y-446500000D03*
%TD*%
D12*
%TO.C,U74*%
X-359000000Y-455000000D03*
D13*
X-361540000Y-455000000D03*
X-361540000Y-447380000D03*
X-359000000Y-447380000D03*
%TD*%
D12*
%TO.C,U59*%
X-300800000Y-512737500D03*
D13*
X-300800000Y-510197500D03*
X-293180000Y-510197500D03*
X-293180000Y-512737500D03*
%TD*%
D12*
%TO.C,D179*%
X-419275000Y-444200000D03*
D13*
X-421815000Y-444200000D03*
%TD*%
D12*
%TO.C,U10*%
X-462800000Y-515275000D03*
D13*
X-462800000Y-512735000D03*
X-455180000Y-512735000D03*
X-455180000Y-515275000D03*
%TD*%
D12*
%TO.C,U40*%
X-361725000Y-563300000D03*
D13*
X-364265000Y-563300000D03*
X-364265000Y-555680000D03*
X-361725000Y-555680000D03*
%TD*%
D12*
%TO.C,U45*%
X-293200000Y-540187500D03*
D13*
X-293200000Y-542727500D03*
X-300820000Y-542727500D03*
X-300820000Y-540187500D03*
%TD*%
D15*
%TO.C,D109*%
X-321000000Y-578500000D03*
D16*
X-321000000Y-588660000D03*
%TD*%
D14*
%TO.C,R204*%
X-287200000Y-534550000D03*
X-287200000Y-536375000D03*
%TD*%
D12*
%TO.C,D35*%
X-466000000Y-489000000D03*
D13*
X-466000000Y-491540000D03*
%TD*%
D15*
%TO.C,D17*%
X-360000000Y-421920000D03*
D16*
X-360000000Y-432080000D03*
%TD*%
D12*
%TO.C,U51*%
X-293200000Y-528187500D03*
D13*
X-293200000Y-530727500D03*
X-300820000Y-530727500D03*
X-300820000Y-528187500D03*
%TD*%
D17*
%TO.C,R90*%
X-469000000Y-544912500D03*
X-469000000Y-543087500D03*
%TD*%
D14*
%TO.C,R176*%
X-287200000Y-546550000D03*
X-287200000Y-548375000D03*
%TD*%
D15*
%TO.C,D5*%
X-268000000Y-488000000D03*
D16*
X-278160000Y-488000000D03*
%TD*%
D12*
%TO.C,D92*%
X-412000000Y-566500000D03*
D13*
X-409460000Y-566500000D03*
%TD*%
D12*
%TO.C,U16*%
X-462800000Y-527275000D03*
D13*
X-462800000Y-524735000D03*
X-455180000Y-524735000D03*
X-455180000Y-527275000D03*
%TD*%
D12*
%TO.C,D64*%
X-466000000Y-531000000D03*
D13*
X-466000000Y-533540000D03*
%TD*%
D28*
%TO.C,R85*%
X-400462500Y-572500000D03*
X-397537500Y-572500000D03*
%TD*%
D17*
%TO.C,R28*%
X-469000000Y-496912500D03*
X-469000000Y-495087500D03*
%TD*%
D12*
%TO.C,U35*%
X-343725000Y-563300000D03*
D13*
X-346265000Y-563300000D03*
X-346265000Y-555680000D03*
X-343725000Y-555680000D03*
%TD*%
D15*
%TO.C,D97*%
X-381000000Y-578500000D03*
D16*
X-381000000Y-588660000D03*
%TD*%
D15*
%TO.C,D15*%
X-348000000Y-421920000D03*
D16*
X-348000000Y-432080000D03*
%TD*%
D15*
%TO.C,D69*%
X-423000000Y-578500000D03*
D16*
X-423000000Y-588660000D03*
%TD*%
D12*
%TO.C,U23*%
X-397725000Y-563300000D03*
D13*
X-400265000Y-563300000D03*
X-400265000Y-555680000D03*
X-397725000Y-555680000D03*
%TD*%
D12*
%TO.C,U71*%
X-377000000Y-455000000D03*
D13*
X-379540000Y-455000000D03*
X-379540000Y-447380000D03*
X-377000000Y-447380000D03*
%TD*%
D10*
%TO.C,R63*%
X-472000000Y-476537500D03*
X-472000000Y-479462500D03*
%TD*%
D15*
%TO.C,D27*%
X-408000000Y-421920000D03*
D16*
X-408000000Y-432080000D03*
%TD*%
D11*
%TO.C,J2*%
X-497000000Y-467800000D03*
X-497000000Y-462800000D03*
X-497000000Y-457800000D03*
%TD*%
D18*
%TO.C,D152*%
X-306020000Y-499462500D03*
D19*
X-303480000Y-499462500D03*
%TD*%
D11*
%TO.C,J5*%
X-497000000Y-528600000D03*
X-497000000Y-523600000D03*
X-497000000Y-518600000D03*
%TD*%
D12*
%TO.C,D83*%
X-418000000Y-566500000D03*
D13*
X-415460000Y-566500000D03*
%TD*%
D27*
%TO.C,R158*%
X-338087500Y-569500000D03*
X-339912500Y-569500000D03*
%TD*%
%TO.C,R146*%
X-320087500Y-569500000D03*
X-321912500Y-569500000D03*
%TD*%
D15*
%TO.C,D56*%
X-478000000Y-478000000D03*
D16*
X-488160000Y-478000000D03*
%TD*%
D12*
%TO.C,D157*%
X-290200000Y-530462500D03*
D13*
X-290200000Y-527922500D03*
%TD*%
D12*
%TO.C,U67*%
X-371000000Y-455000000D03*
D13*
X-373540000Y-455000000D03*
X-373540000Y-447380000D03*
X-371000000Y-447380000D03*
%TD*%
D27*
%TO.C,R78*%
X-422087500Y-569500000D03*
X-423912500Y-569500000D03*
%TD*%
%TO.C,R170*%
X-362087500Y-569500000D03*
X-363912500Y-569500000D03*
%TD*%
D29*
%TO.C,C18*%
X-460000000Y-445500000D03*
X-460000000Y-443000000D03*
%TD*%
D18*
%TO.C,D144*%
X-351000000Y-550500000D03*
D19*
X-351000000Y-553040000D03*
%TD*%
D12*
%TO.C,D74*%
X-424000000Y-566500000D03*
D13*
X-421460000Y-566500000D03*
%TD*%
D12*
%TO.C,U61*%
X-300800000Y-482737500D03*
D13*
X-300800000Y-480197500D03*
X-293180000Y-480197500D03*
X-293180000Y-482737500D03*
%TD*%
D12*
%TO.C,U33*%
X-427725000Y-563300000D03*
D13*
X-430265000Y-563300000D03*
X-430265000Y-555680000D03*
X-427725000Y-555680000D03*
%TD*%
D15*
%TO.C,D68*%
X-478000000Y-538000000D03*
D16*
X-488160000Y-538000000D03*
%TD*%
D18*
%TO.C,D105*%
X-429000000Y-550500000D03*
D19*
X-429000000Y-553040000D03*
%TD*%
D18*
%TO.C,D184*%
X-330275000Y-460200000D03*
D19*
X-330275000Y-457660000D03*
%TD*%
D18*
%TO.C,D161*%
X-306020000Y-469462500D03*
D19*
X-303480000Y-469462500D03*
%TD*%
D12*
%TO.C,U15*%
X-462800000Y-503275000D03*
D13*
X-462800000Y-500735000D03*
X-455180000Y-500735000D03*
X-455180000Y-503275000D03*
%TD*%
D12*
%TO.C,U31*%
X-403725000Y-563300000D03*
D13*
X-406265000Y-563300000D03*
X-406265000Y-555680000D03*
X-403725000Y-555680000D03*
%TD*%
D18*
%TO.C,D100*%
X-405000000Y-550500000D03*
D19*
X-405000000Y-553040000D03*
%TD*%
D28*
%TO.C,R84*%
X-424462500Y-572500000D03*
X-421537500Y-572500000D03*
%TD*%
D15*
%TO.C,D6*%
X-268000000Y-482000000D03*
D16*
X-278160000Y-482000000D03*
%TD*%
D12*
%TO.C,D33*%
X-466000000Y-459000000D03*
D13*
X-466000000Y-461540000D03*
%TD*%
D14*
%TO.C,R161*%
X-287200000Y-552550000D03*
X-287200000Y-554375000D03*
%TD*%
D12*
%TO.C,U46*%
X-349725000Y-563300000D03*
D13*
X-352265000Y-563300000D03*
X-352265000Y-555680000D03*
X-349725000Y-555680000D03*
%TD*%
D12*
%TO.C,D60*%
X-466000000Y-477000000D03*
D13*
X-466000000Y-479540000D03*
%TD*%
D12*
%TO.C,D122*%
X-340000000Y-566500000D03*
D13*
X-337460000Y-566500000D03*
%TD*%
D11*
%TO.C,J23*%
X-383600000Y-414000000D03*
X-378600000Y-414000000D03*
X-373600000Y-414000000D03*
%TD*%
D12*
%TO.C,U49*%
X-300800000Y-500737500D03*
D13*
X-300800000Y-498197500D03*
X-293180000Y-498197500D03*
X-293180000Y-500737500D03*
%TD*%
D18*
%TO.C,D128*%
X-363000000Y-550500000D03*
D19*
X-363000000Y-553040000D03*
%TD*%
D18*
%TO.C,D123*%
X-306000000Y-553462500D03*
D19*
X-303460000Y-553462500D03*
%TD*%
D12*
%TO.C,D42*%
X-466000000Y-465000000D03*
D13*
X-466000000Y-467540000D03*
%TD*%
D17*
%TO.C,R10*%
X-469000000Y-460912500D03*
X-469000000Y-459087500D03*
%TD*%
D30*
%TO.C,U5*%
X-403920000Y-444650000D03*
X-405190000Y-444650000D03*
X-406460000Y-444650000D03*
X-407730000Y-444650000D03*
X-409000000Y-444650000D03*
X-410270000Y-444650000D03*
X-411540000Y-444650000D03*
X-412810000Y-444650000D03*
X-414080000Y-444650000D03*
X-414080000Y-435350000D03*
X-412810000Y-435350000D03*
X-411540000Y-435350000D03*
X-410270000Y-435350000D03*
X-409000000Y-435350000D03*
X-407730000Y-435350000D03*
X-406460000Y-435350000D03*
X-405190000Y-435350000D03*
X-403920000Y-435350000D03*
%TD*%
D15*
%TO.C,D78*%
X-417000000Y-578500000D03*
D16*
X-417000000Y-588660000D03*
%TD*%
D11*
%TO.C,J14*%
X-355800000Y-596800000D03*
X-360800000Y-596800000D03*
X-365800000Y-596800000D03*
%TD*%
D12*
%TO.C,U28*%
X-409725000Y-563300000D03*
D13*
X-412265000Y-563300000D03*
X-412265000Y-555680000D03*
X-409725000Y-555680000D03*
%TD*%
D18*
%TO.C,D98*%
X-435000000Y-550500000D03*
D19*
X-435000000Y-553040000D03*
%TD*%
D11*
%TO.C,J10*%
X-371000000Y-596800000D03*
X-376000000Y-596800000D03*
X-381000000Y-596800000D03*
%TD*%
D14*
%TO.C,R191*%
X-287200000Y-540550000D03*
X-287200000Y-542375000D03*
%TD*%
D31*
%TO.C,U6*%
X-474055000Y-420460000D03*
D32*
X-474055000Y-423000000D03*
X-474055000Y-425540000D03*
%TD*%
D28*
%TO.C,R194*%
X-328462500Y-572500000D03*
X-325537500Y-572500000D03*
%TD*%
D30*
%TO.C,U4*%
X-376920000Y-444650000D03*
X-378190000Y-444650000D03*
X-379460000Y-444650000D03*
X-380730000Y-444650000D03*
X-382000000Y-444650000D03*
X-383270000Y-444650000D03*
X-384540000Y-444650000D03*
X-385810000Y-444650000D03*
X-387080000Y-444650000D03*
X-387080000Y-435350000D03*
X-385810000Y-435350000D03*
X-384540000Y-435350000D03*
X-383270000Y-435350000D03*
X-382000000Y-435350000D03*
X-380730000Y-435350000D03*
X-379460000Y-435350000D03*
X-378190000Y-435350000D03*
X-376920000Y-435350000D03*
%TD*%
D11*
%TO.C,J22*%
X-368400000Y-414000000D03*
X-363400000Y-414000000D03*
X-358400000Y-414000000D03*
%TD*%
D10*
%TO.C,R98*%
X-472000000Y-542537500D03*
X-472000000Y-545462500D03*
%TD*%
D15*
%TO.C,D147*%
X-426275000Y-432200000D03*
D16*
X-426275000Y-422040000D03*
%TD*%
D28*
%TO.C,R115*%
X-388462500Y-572500000D03*
X-385537500Y-572500000D03*
%TD*%
%TO.C,R193*%
X-358462500Y-572500000D03*
X-355537500Y-572500000D03*
%TD*%
%TO.C,R100*%
X-394462500Y-572500000D03*
X-391537500Y-572500000D03*
%TD*%
D18*
%TO.C,D132*%
X-306020000Y-547462500D03*
D19*
X-303480000Y-547462500D03*
%TD*%
D17*
%TO.C,R58*%
X-469000000Y-508912500D03*
X-469000000Y-507087500D03*
%TD*%
D12*
%TO.C,U19*%
X-462800000Y-533275000D03*
D13*
X-462800000Y-530735000D03*
X-455180000Y-530735000D03*
X-455180000Y-533275000D03*
%TD*%
D12*
%TO.C,D81*%
X-466000000Y-543000000D03*
D13*
X-466000000Y-545540000D03*
%TD*%
D11*
%TO.C,J3*%
X-497000000Y-498200000D03*
X-497000000Y-493200000D03*
X-497000000Y-488200000D03*
%TD*%
D27*
%TO.C,R96*%
X-392087500Y-569500000D03*
X-393912500Y-569500000D03*
%TD*%
D18*
%TO.C,D153*%
X-306020000Y-475462500D03*
D19*
X-303480000Y-475462500D03*
%TD*%
D26*
%TO.C,R210*%
X-424812500Y-438200000D03*
X-427737500Y-438200000D03*
%TD*%
D27*
%TO.C,R188*%
X-326087500Y-569500000D03*
X-327912500Y-569500000D03*
%TD*%
D12*
%TO.C,U41*%
X-331725000Y-563300000D03*
D13*
X-334265000Y-563300000D03*
X-334265000Y-555680000D03*
X-331725000Y-555680000D03*
%TD*%
D12*
%TO.C,U65*%
X-323000000Y-455000000D03*
D13*
X-325540000Y-455000000D03*
X-325540000Y-447380000D03*
X-323000000Y-447380000D03*
%TD*%
D27*
%TO.C,R185*%
X-356087500Y-569500000D03*
X-357912500Y-569500000D03*
%TD*%
D15*
%TO.C,D4*%
X-268000000Y-494000000D03*
D16*
X-278160000Y-494000000D03*
%TD*%
D18*
%TO.C,D188*%
X-336275000Y-460200000D03*
D19*
X-336275000Y-457660000D03*
%TD*%
D28*
%TO.C,R149*%
X-346462500Y-572500000D03*
X-343537500Y-572500000D03*
%TD*%
D12*
%TO.C,D124*%
X-290200000Y-554462500D03*
D13*
X-290200000Y-551922500D03*
%TD*%
D12*
%TO.C,U48*%
X-427475000Y-447400000D03*
D13*
X-424935000Y-447400000D03*
X-424935000Y-455020000D03*
X-427475000Y-455020000D03*
%TD*%
D27*
%TO.C,R111*%
X-386087500Y-569500000D03*
X-387912500Y-569500000D03*
%TD*%
D18*
%TO.C,D110*%
X-375000000Y-550500000D03*
D19*
X-375000000Y-553040000D03*
%TD*%
D12*
%TO.C,U79*%
X-389000000Y-455000000D03*
D13*
X-391540000Y-455000000D03*
X-391540000Y-447380000D03*
X-389000000Y-447380000D03*
%TD*%
D15*
%TO.C,D57*%
X-478000000Y-508000000D03*
D16*
X-488160000Y-508000000D03*
%TD*%
D15*
%TO.C,D28*%
X-414000000Y-421920000D03*
D16*
X-414000000Y-432080000D03*
%TD*%
D20*
%TO.C,R180*%
X-284200000Y-548925000D03*
X-284200000Y-546000000D03*
%TD*%
D28*
%TO.C,R179*%
X-334462500Y-572500000D03*
X-331537500Y-572500000D03*
%TD*%
D15*
%TO.C,D11*%
X-324000000Y-422000000D03*
D16*
X-324000000Y-432160000D03*
%TD*%
D11*
%TO.C,J8*%
X-386200000Y-596800000D03*
X-391200000Y-596800000D03*
X-396200000Y-596800000D03*
%TD*%
D15*
%TO.C,D21*%
X-384000000Y-422000000D03*
D16*
X-384000000Y-432160000D03*
%TD*%
D18*
%TO.C,D114*%
X-321000000Y-550500000D03*
D19*
X-321000000Y-553040000D03*
%TD*%
D18*
%TO.C,D41*%
X-450000000Y-466000000D03*
D19*
X-452540000Y-466000000D03*
%TD*%
D28*
%TO.C,R178*%
X-364462500Y-572500000D03*
X-361537500Y-572500000D03*
%TD*%
D15*
%TO.C,D88*%
X-387000000Y-578500000D03*
D16*
X-387000000Y-588660000D03*
%TD*%
D15*
%TO.C,D126*%
X-333000000Y-578500000D03*
D16*
X-333000000Y-588660000D03*
%TD*%
D18*
%TO.C,D59*%
X-450000000Y-478000000D03*
D19*
X-452540000Y-478000000D03*
%TD*%
D15*
%TO.C,D20*%
X-378000000Y-422000000D03*
D16*
X-378000000Y-432160000D03*
%TD*%
D12*
%TO.C,D55*%
X-466000000Y-525000000D03*
D13*
X-466000000Y-527540000D03*
%TD*%
D15*
%TO.C,D96*%
X-405000000Y-578500000D03*
D16*
X-405000000Y-588660000D03*
%TD*%
D28*
%TO.C,R99*%
X-418462500Y-572500000D03*
X-415537500Y-572500000D03*
%TD*%
D15*
%TO.C,D19*%
X-372000000Y-422000000D03*
D16*
X-372000000Y-432160000D03*
%TD*%
D18*
%TO.C,D93*%
X-387000000Y-550500000D03*
D19*
X-387000000Y-553040000D03*
%TD*%
D12*
%TO.C,U77*%
X-341000000Y-455000000D03*
D13*
X-343540000Y-455000000D03*
X-343540000Y-447380000D03*
X-341000000Y-447380000D03*
%TD*%
D12*
%TO.C,U30*%
X-433725000Y-563300000D03*
D13*
X-436265000Y-563300000D03*
X-436265000Y-555680000D03*
X-433725000Y-555680000D03*
%TD*%
D18*
%TO.C,D139*%
X-327000000Y-550500000D03*
D19*
X-327000000Y-553040000D03*
%TD*%
D27*
%TO.C,R155*%
X-368087500Y-569500000D03*
X-369912500Y-569500000D03*
%TD*%
D12*
%TO.C,U54*%
X-300820000Y-470737500D03*
D13*
X-300820000Y-468197500D03*
X-293200000Y-468197500D03*
X-293200000Y-470737500D03*
%TD*%
D10*
%TO.C,R70*%
X-472000000Y-482537500D03*
X-472000000Y-485462500D03*
%TD*%
D15*
%TO.C,D2*%
X-268000000Y-506000000D03*
D16*
X-278160000Y-506000000D03*
%TD*%
D30*
%TO.C,U2*%
X-327920000Y-444650000D03*
X-329190000Y-444650000D03*
X-330460000Y-444650000D03*
X-331730000Y-444650000D03*
X-333000000Y-444650000D03*
X-334270000Y-444650000D03*
X-335540000Y-444650000D03*
X-336810000Y-444650000D03*
X-338080000Y-444650000D03*
X-338080000Y-435350000D03*
X-336810000Y-435350000D03*
X-335540000Y-435350000D03*
X-334270000Y-435350000D03*
X-333000000Y-435350000D03*
X-331730000Y-435350000D03*
X-330460000Y-435350000D03*
X-329190000Y-435350000D03*
X-327920000Y-435350000D03*
%TD*%
D15*
%TO.C,D134*%
X-357000000Y-578500000D03*
D16*
X-357000000Y-588660000D03*
%TD*%
D11*
%TO.C,J11*%
X-416600000Y-596800000D03*
X-421600000Y-596800000D03*
X-426600000Y-596800000D03*
%TD*%
D26*
%TO.C,R260*%
X-418812500Y-438200000D03*
X-421737500Y-438200000D03*
%TD*%
D18*
%TO.C,D43*%
X-450000000Y-496000000D03*
D19*
X-452540000Y-496000000D03*
%TD*%
D15*
%TO.C,D170*%
X-278200000Y-517462500D03*
D16*
X-268040000Y-517462500D03*
%TD*%
D11*
%TO.C,J20*%
X-338000000Y-414000000D03*
X-333000000Y-414000000D03*
X-328000000Y-414000000D03*
%TD*%
D28*
%TO.C,R163*%
X-370462500Y-572500000D03*
X-367537500Y-572500000D03*
%TD*%
D20*
%TO.C,R195*%
X-284200000Y-542925000D03*
X-284200000Y-540000000D03*
%TD*%
D28*
%TO.C,R114*%
X-412462500Y-572500000D03*
X-409537500Y-572500000D03*
%TD*%
D12*
%TO.C,U39*%
X-293200000Y-552187500D03*
D13*
X-293200000Y-554727500D03*
X-300820000Y-554727500D03*
X-300820000Y-552187500D03*
%TD*%
D12*
%TO.C,U78*%
X-365000000Y-455000000D03*
D13*
X-367540000Y-455000000D03*
X-367540000Y-447380000D03*
X-365000000Y-447380000D03*
%TD*%
D12*
%TO.C,D129*%
X-364000000Y-566500000D03*
D13*
X-361460000Y-566500000D03*
%TD*%
D12*
%TO.C,U32*%
X-379725000Y-563300000D03*
D13*
X-382265000Y-563300000D03*
X-382265000Y-555680000D03*
X-379725000Y-555680000D03*
%TD*%
D18*
%TO.C,D45*%
X-450000000Y-520000000D03*
D19*
X-452540000Y-520000000D03*
%TD*%
D18*
%TO.C,D178*%
X-420275000Y-460200000D03*
D19*
X-420275000Y-457660000D03*
%TD*%
D18*
%TO.C,D54*%
X-450000000Y-526000000D03*
D19*
X-452540000Y-526000000D03*
%TD*%
D11*
%TO.C,J16*%
X-259000000Y-518800000D03*
X-259000000Y-523800000D03*
X-259000000Y-528800000D03*
%TD*%
D12*
%TO.C,D159*%
X-431275000Y-444200000D03*
D13*
X-433815000Y-444200000D03*
%TD*%
D10*
%TO.C,R65*%
X-472000000Y-530537500D03*
X-472000000Y-533462500D03*
%TD*%
D18*
%TO.C,D185*%
X-354275000Y-460200000D03*
D19*
X-354275000Y-457660000D03*
%TD*%
D12*
%TO.C,U62*%
X-317000000Y-455000000D03*
D13*
X-319540000Y-455000000D03*
X-319540000Y-447380000D03*
X-317000000Y-447380000D03*
%TD*%
D15*
%TO.C,D162*%
X-278200000Y-523462500D03*
D16*
X-268040000Y-523462500D03*
%TD*%
D18*
%TO.C,D148*%
X-306020000Y-535462500D03*
D19*
X-303480000Y-535462500D03*
%TD*%
D12*
%TO.C,U68*%
X-395000000Y-455000000D03*
D13*
X-397540000Y-455000000D03*
X-397540000Y-447380000D03*
X-395000000Y-447380000D03*
%TD*%
D15*
%TO.C,D29*%
X-478000000Y-460000000D03*
D16*
X-488160000Y-460000000D03*
%TD*%
D25*
%TO.C,R257*%
X-421187500Y-441200000D03*
X-419362500Y-441200000D03*
%TD*%
D12*
%TO.C,U55*%
X-293200000Y-522187500D03*
D13*
X-293200000Y-524727500D03*
X-300820000Y-524727500D03*
X-300820000Y-522187500D03*
%TD*%
D15*
%TO.C,D24*%
X-402000000Y-422000000D03*
D16*
X-402000000Y-432160000D03*
%TD*%
D15*
%TO.C,D135*%
X-327000000Y-578500000D03*
D16*
X-327000000Y-588660000D03*
%TD*%
D33*
%TO.C,U1*%
X-290650000Y-489080000D03*
X-290650000Y-487810000D03*
X-290650000Y-486540000D03*
X-290650000Y-485270000D03*
X-290650000Y-484000000D03*
X-290650000Y-482730000D03*
X-290650000Y-481460000D03*
X-290650000Y-480190000D03*
X-290650000Y-478920000D03*
X-281350000Y-478920000D03*
X-281350000Y-480190000D03*
X-281350000Y-481460000D03*
X-281350000Y-482730000D03*
X-281350000Y-484000000D03*
X-281350000Y-485270000D03*
X-281350000Y-486540000D03*
X-281350000Y-487810000D03*
X-281350000Y-489080000D03*
%TD*%
D17*
%TO.C,R55*%
X-469000000Y-478912500D03*
X-469000000Y-477087500D03*
%TD*%
D10*
%TO.C,R35*%
X-472000000Y-518537500D03*
X-472000000Y-521462500D03*
%TD*%
D26*
%TO.C,R238*%
X-436812500Y-438200000D03*
X-439737500Y-438200000D03*
%TD*%
D10*
%TO.C,R83*%
X-472000000Y-536537500D03*
X-472000000Y-539462500D03*
%TD*%
D18*
%TO.C,D89*%
X-441000000Y-550500000D03*
D19*
X-441000000Y-553040000D03*
%TD*%
D12*
%TO.C,D90*%
X-442000000Y-566500000D03*
D13*
X-439460000Y-566500000D03*
%TD*%
D18*
%TO.C,D91*%
X-411000000Y-550500000D03*
D19*
X-411000000Y-553040000D03*
%TD*%
D12*
%TO.C,D99*%
X-436000000Y-566500000D03*
D13*
X-433460000Y-566500000D03*
%TD*%
D11*
%TO.C,J4*%
X-497000000Y-483000000D03*
X-497000000Y-478000000D03*
X-497000000Y-473000000D03*
%TD*%
D15*
%TO.C,D31*%
X-478000000Y-514000000D03*
D16*
X-488160000Y-514000000D03*
%TD*%
D18*
%TO.C,D183*%
X-396275000Y-460200000D03*
D19*
X-396275000Y-457660000D03*
%TD*%
D10*
%TO.C,R64*%
X-472000000Y-506537500D03*
X-472000000Y-509462500D03*
%TD*%
D12*
%TO.C,D120*%
X-370000000Y-566500000D03*
D13*
X-367460000Y-566500000D03*
%TD*%
D18*
%TO.C,D186*%
X-378275000Y-460200000D03*
D19*
X-378275000Y-457660000D03*
%TD*%
D15*
%TO.C,D48*%
X-478000000Y-502000000D03*
D16*
X-488160000Y-502000000D03*
%TD*%
D12*
%TO.C,U47*%
X-293200000Y-534187500D03*
D13*
X-293200000Y-536727500D03*
X-300820000Y-536727500D03*
X-300820000Y-534187500D03*
%TD*%
D18*
%TO.C,D181*%
X-348275000Y-460200000D03*
D19*
X-348275000Y-457660000D03*
%TD*%
D15*
%TO.C,D77*%
X-478000000Y-544000000D03*
D16*
X-488160000Y-544000000D03*
%TD*%
D15*
%TO.C,D116*%
X-369000000Y-578500000D03*
D16*
X-369000000Y-588660000D03*
%TD*%
D25*
%TO.C,R235*%
X-439187500Y-441200000D03*
X-437362500Y-441200000D03*
%TD*%
D18*
%TO.C,D102*%
X-381000000Y-550500000D03*
D19*
X-381000000Y-553040000D03*
%TD*%
D18*
%TO.C,D160*%
X-306020000Y-493462500D03*
D19*
X-303480000Y-493462500D03*
%TD*%
D10*
%TO.C,R49*%
X-472000000Y-500537500D03*
X-472000000Y-503462500D03*
%TD*%
D12*
%TO.C,U11*%
X-462800000Y-467275000D03*
D13*
X-462800000Y-464735000D03*
X-455180000Y-464735000D03*
X-455180000Y-467275000D03*
%TD*%
D28*
%TO.C,R129*%
X-406462500Y-572500000D03*
X-403537500Y-572500000D03*
%TD*%
D12*
%TO.C,D149*%
X-290200000Y-536462500D03*
D13*
X-290200000Y-533922500D03*
%TD*%
D27*
%TO.C,R93*%
X-416087500Y-569500000D03*
X-417912500Y-569500000D03*
%TD*%
D15*
%TO.C,D104*%
X-429000000Y-578500000D03*
D16*
X-429000000Y-588660000D03*
%TD*%
D15*
%TO.C,D79*%
X-393000000Y-578500000D03*
D16*
X-393000000Y-588660000D03*
%TD*%
D11*
%TO.C,J12*%
X-325400000Y-596800000D03*
X-330400000Y-596800000D03*
X-335400000Y-596800000D03*
%TD*%
D12*
%TO.C,U44*%
X-325725000Y-563300000D03*
D13*
X-328265000Y-563300000D03*
X-328265000Y-555680000D03*
X-325725000Y-555680000D03*
%TD*%
D15*
%TO.C,D22*%
X-390000000Y-422000000D03*
D16*
X-390000000Y-432160000D03*
%TD*%
D18*
%TO.C,D175*%
X-318275000Y-460200000D03*
D19*
X-318275000Y-457660000D03*
%TD*%
D15*
%TO.C,D7*%
X-268000000Y-476000000D03*
D16*
X-278160000Y-476000000D03*
%TD*%
D18*
%TO.C,D34*%
X-450000000Y-490000000D03*
D19*
X-452540000Y-490000000D03*
%TD*%
D18*
%TO.C,D191*%
X-408275000Y-460200000D03*
D19*
X-408275000Y-457660000D03*
%TD*%
D28*
%TO.C,R200*%
X-352462500Y-572500000D03*
X-349537500Y-572500000D03*
%TD*%
D12*
%TO.C,D72*%
X-466000000Y-537000000D03*
D13*
X-466000000Y-539540000D03*
%TD*%
D18*
%TO.C,D50*%
X-450000000Y-472000000D03*
D19*
X-452540000Y-472000000D03*
%TD*%
D15*
%TO.C,D118*%
X-278200000Y-553462500D03*
D16*
X-268040000Y-553462500D03*
%TD*%
D12*
%TO.C,D46*%
X-466000000Y-519000000D03*
D13*
X-466000000Y-521540000D03*
%TD*%
D12*
%TO.C,U34*%
X-373725000Y-563300000D03*
D13*
X-376265000Y-563300000D03*
X-376265000Y-555680000D03*
X-373725000Y-555680000D03*
%TD*%
D12*
%TO.C,U22*%
X-421725000Y-563300000D03*
D13*
X-424265000Y-563300000D03*
X-424265000Y-555680000D03*
X-421725000Y-555680000D03*
%TD*%
D18*
%TO.C,D66*%
X-450000000Y-484000000D03*
D19*
X-452540000Y-484000000D03*
%TD*%
D27*
%TO.C,R198*%
X-350087500Y-569500000D03*
X-351912500Y-569500000D03*
%TD*%
D12*
%TO.C,D165*%
X-290200000Y-524462500D03*
D13*
X-290200000Y-521922500D03*
%TD*%
D15*
%TO.C,D39*%
X-478000000Y-496000000D03*
D16*
X-488160000Y-496000000D03*
%TD*%
D28*
%TO.C,R135*%
X-430462500Y-572500000D03*
X-427537500Y-572500000D03*
%TD*%
D27*
%TO.C,R143*%
X-344087500Y-569500000D03*
X-345912500Y-569500000D03*
%TD*%
D12*
%TO.C,U66*%
X-347000000Y-455000000D03*
D13*
X-349540000Y-455000000D03*
X-349540000Y-447380000D03*
X-347000000Y-447380000D03*
%TD*%
D18*
%TO.C,D168*%
X-306020000Y-487462500D03*
D19*
X-303480000Y-487462500D03*
%TD*%
D27*
%TO.C,R133*%
X-428087500Y-569500000D03*
X-429912500Y-569500000D03*
%TD*%
D18*
%TO.C,D171*%
X-306020000Y-511462500D03*
D19*
X-303480000Y-511462500D03*
%TD*%
D12*
%TO.C,D103*%
X-382000000Y-566500000D03*
D13*
X-379460000Y-566500000D03*
%TD*%
D12*
%TO.C,D140*%
X-328000000Y-566500000D03*
D13*
X-325460000Y-566500000D03*
%TD*%
D27*
%TO.C,R140*%
X-374087500Y-569500000D03*
X-375912500Y-569500000D03*
%TD*%
D28*
%TO.C,R113*%
X-442462500Y-572500000D03*
X-439537500Y-572500000D03*
%TD*%
D11*
%TO.C,J15*%
X-259000000Y-534000000D03*
X-259000000Y-539000000D03*
X-259000000Y-544000000D03*
%TD*%
D15*
%TO.C,D3*%
X-268000000Y-500000000D03*
D16*
X-278160000Y-500000000D03*
%TD*%
D28*
%TO.C,R148*%
X-376462500Y-572500000D03*
X-373537500Y-572500000D03*
%TD*%
D12*
%TO.C,U52*%
X-433550000Y-447400000D03*
D13*
X-431010000Y-447400000D03*
X-431010000Y-455020000D03*
X-433550000Y-455020000D03*
%TD*%
D18*
%TO.C,D71*%
X-450000000Y-538000000D03*
D19*
X-452540000Y-538000000D03*
%TD*%
D12*
%TO.C,U12*%
X-462800000Y-497275000D03*
D13*
X-462800000Y-494735000D03*
X-455180000Y-494735000D03*
X-455180000Y-497275000D03*
%TD*%
D10*
%TO.C,R19*%
X-472000000Y-488537500D03*
X-472000000Y-491462500D03*
%TD*%
D12*
%TO.C,U18*%
X-462800000Y-509275000D03*
D13*
X-462800000Y-506735000D03*
X-455180000Y-506735000D03*
X-455180000Y-509275000D03*
%TD*%
D17*
%TO.C,R43*%
X-469000000Y-502912500D03*
X-469000000Y-501087500D03*
%TD*%
D18*
%TO.C,D137*%
X-357000000Y-550500000D03*
D19*
X-357000000Y-553040000D03*
%TD*%
D17*
%TO.C,R13*%
X-469000000Y-490912500D03*
X-469000000Y-489087500D03*
%TD*%
D12*
%TO.C,U53*%
X-300800000Y-494737500D03*
D13*
X-300800000Y-492197500D03*
X-293180000Y-492197500D03*
X-293180000Y-494737500D03*
%TD*%
D28*
%TO.C,R150*%
X-322462500Y-572500000D03*
X-319537500Y-572500000D03*
%TD*%
D10*
%TO.C,R48*%
X-472000000Y-470537500D03*
X-472000000Y-473462500D03*
%TD*%
D29*
%TO.C,C15*%
X-453000000Y-445500000D03*
X-453000000Y-443000000D03*
%TD*%
D18*
%TO.C,D52*%
X-450000000Y-502000000D03*
D19*
X-452540000Y-502000000D03*
%TD*%
D12*
%TO.C,D62*%
X-466000000Y-507000000D03*
D13*
X-466000000Y-509540000D03*
%TD*%
D18*
%TO.C,D84*%
X-393000000Y-550500000D03*
D19*
X-393000000Y-553040000D03*
%TD*%
D18*
%TO.C,D121*%
X-339000000Y-550500000D03*
D19*
X-339000000Y-553040000D03*
%TD*%
D12*
%TO.C,D133*%
X-290200000Y-548462500D03*
D13*
X-290200000Y-545922500D03*
%TD*%
D18*
%TO.C,D164*%
X-306020000Y-523462500D03*
D19*
X-303480000Y-523462500D03*
%TD*%
D18*
%TO.C,D190*%
X-384275000Y-460200000D03*
D19*
X-384275000Y-457660000D03*
%TD*%
D11*
%TO.C,J25*%
X-414000000Y-414000000D03*
X-409000000Y-414000000D03*
X-404000000Y-414000000D03*
%TD*%
D15*
%TO.C,D16*%
X-354000000Y-421920000D03*
D16*
X-354000000Y-432080000D03*
%TD*%
D15*
%TO.C,D40*%
X-478000000Y-520000000D03*
D16*
X-488160000Y-520000000D03*
%TD*%
D12*
%TO.C,U64*%
X-421550000Y-447400000D03*
D13*
X-419010000Y-447400000D03*
X-419010000Y-455020000D03*
X-421550000Y-455020000D03*
%TD*%
D12*
%TO.C,D37*%
X-466000000Y-513000000D03*
D13*
X-466000000Y-515540000D03*
%TD*%
D12*
%TO.C,D44*%
X-466000000Y-495000000D03*
D13*
X-466000000Y-497540000D03*
%TD*%
D15*
%TO.C,D163*%
X-438275000Y-432200000D03*
D16*
X-438275000Y-422040000D03*
%TD*%
D27*
%TO.C,R105*%
X-440087500Y-569500000D03*
X-441912500Y-569500000D03*
%TD*%
D28*
%TO.C,R164*%
X-340462500Y-572500000D03*
X-337537500Y-572500000D03*
%TD*%
M02*
